Rhodium Development-Regular.ufo
<glyph name="exclam" format="1">
  <advance width="280"/>
  <unicode hex="0021"/>
  <outline>
    <contour>
      <point x="97" y="692"/>
      <point x="78" y="672"/>
      <point x="78" y="627" type="curve" smooth="yes"/>
      <point x="78" y="572"/>
      <point x="98" y="395"/>
      <point x="120" y="200" type="curve"/>
      <point x="160" y="200" type="line"/>
      <point x="182" y="395"/>
      <point x="202" y="572"/>
      <point x="202" y="627" type="curve" smooth="yes"/>
      <point x="202" y="672"/>
      <point x="183" y="692"/>
      <point x="140" y="692" type="curve" smooth="yes"/>
    </contour>
    <contour>
      <point x="98" y="128"/>
      <point x="72" y="104"/>
      <point x="72" y="60" type="curve" smooth="yes"/>
      <point x="72" y="16"/>
      <point x="98" y="-8"/>
      <point x="140" y="-8" type="curve" smooth="yes"/>
      <point x="182" y="-8"/>
      <point x="208" y="16"/>
      <point x="208" y="60" type="curve" smooth="yes"/>
      <point x="208" y="104"/>
      <point x="182" y="128"/>
      <point x="140" y="128" type="curve" smooth="yes"/>
    </contour>
  </outline>
</glyph>
<glyph name="quotedbl" format="1">
  <advance width="412"/>
  <unicode hex="0022"/>
  <outline>
    <contour>
      <point x="171" y="680" type="line"/>
      <point x="71" y="680" type="line"/>
      <point x="71" y="635" type="line"/>
      <point x="97" y="358" type="line"/>
      <point x="145" y="358" type="line"/>
      <point x="171" y="635" type="line"/>
    </contour>
    <contour>
      <point x="341" y="680" type="line"/>
      <point x="241" y="680" type="line"/>
      <point x="241" y="635" type="line"/>
      <point x="267" y="358" type="line"/>
      <point x="315" y="358" type="line"/>
      <point x="341" y="635" type="line"/>
    </contour>
  </outline>
</glyph>
<glyph name="dollar" format="1">
  <advance width="536"/>
  <unicode hex="0024"/>
  <outline>
    <contour>
      <point x="289" y="652" type="line"/>
      <point x="183" y="-102" type="line"/>
      <point x="247" y="-102" type="line"/>
      <point x="353" y="652" type="line"/>
    </contour>
    <contour>
      <point x="407" y="90"/>
      <point x="376" y="71"/>
      <point x="273" y="71" type="curve" smooth="yes"/>
      <point x="211" y="71"/>
      <point x="171" y="78"/>
      <point x="114" y="93" type="curve"/>
      <point x="146" y="48" type="line"/>
      <point x="105" y="167" type="line"/>
      <point x="52" y="167" type="line"/>
      <point x="52" y="36" type="line"/>
      <point x="127" y="16"/>
      <point x="192" y="9"/>
      <point x="264" y="9" type="curve" smooth="yes"/>
      <point x="444" y="9"/>
      <point x="491" y="52"/>
      <point x="491" y="160" type="curve" smooth="yes"/>
      <point x="491" y="258"/>
      <point x="457" y="290"/>
      <point x="330" y="307" type="curve" smooth="yes"/>
      <point x="181" y="327"/>
      <point x="129" y="327"/>
      <point x="129" y="407" type="curve" smooth="yes"/>
      <point x="129" y="467"/>
      <point x="156" y="486"/>
      <point x="263" y="486" type="curve" smooth="yes"/>
      <point x="324" y="486"/>
      <point x="363" y="480"/>
      <point x="419" y="467" type="curve"/>
      <point x="387" y="512" type="line"/>
      <point x="428" y="393" type="line"/>
      <point x="481" y="393" type="line"/>
      <point x="481" y="524" type="line"/>
      <point x="407" y="542"/>
      <point x="343" y="548"/>
      <point x="275" y="548" type="curve" smooth="yes"/>
      <point x="92" y="548"/>
      <point x="45" y="505"/>
      <point x="45" y="397" type="curve" smooth="yes"/>
      <point x="45" y="303"/>
      <point x="86" y="258"/>
      <point x="217" y="239" type="curve" smooth="yes"/>
      <point x="349" y="220"/>
      <point x="407" y="221"/>
      <point x="407" y="150" type="curve" smooth="yes"/>
    </contour>
  </outline>
</glyph>
<glyph name="percent" format="1">
  <advance width="1043"/>
  <unicode hex="0025"/>
  <outline>
    <contour>
      <point x="125" y="692"/>
      <point x="30" y="621"/>
      <point x="30" y="479" type="curve" smooth="yes"/>
      <point x="30" y="336"/>
      <point x="125" y="265"/>
      <point x="231" y="265" type="curve" smooth="yes"/>
      <point x="340" y="265"/>
      <point x="432" y="336"/>
      <point x="432" y="479" type="curve" smooth="yes"/>
      <point x="432" y="621"/>
      <point x="340" y="692"/>
      <point x="231" y="692" type="curve" smooth="yes"/>
    </contour>
    <contour>
      <point x="308" y="628"/>
      <point x="354" y="592"/>
      <point x="354" y="479" type="curve" smooth="yes"/>
      <point x="354" y="365"/>
      <point x="308" y="329"/>
      <point x="231" y="329" type="curve" smooth="yes"/>
      <point x="154" y="329"/>
      <point x="108" y="365"/>
      <point x="108" y="479" type="curve" smooth="yes"/>
      <point x="108" y="592"/>
      <point x="154" y="628"/>
      <point x="231" y="628" type="curve" smooth="yes"/>
    </contour>
    <contour>
      <point x="706" y="415"/>
      <point x="611" y="344"/>
      <point x="611" y="202" type="curve" smooth="yes"/>
      <point x="611" y="59"/>
      <point x="706" y="-12"/>
      <point x="812" y="-12" type="curve" smooth="yes"/>
      <point x="921" y="-12"/>
      <point x="1013" y="59"/>
      <point x="1013" y="202" type="curve" smooth="yes"/>
      <point x="1013" y="344"/>
      <point x="921" y="415"/>
      <point x="812" y="415" type="curve" smooth="yes"/>
    </contour>
    <contour>
      <point x="889" y="351"/>
      <point x="935" y="315"/>
      <point x="935" y="202" type="curve" smooth="yes"/>
      <point x="935" y="88"/>
      <point x="889" y="52"/>
      <point x="812" y="52" type="curve" smooth="yes"/>
      <point x="735" y="52"/>
      <point x="689" y="88"/>
      <point x="689" y="202" type="curve" smooth="yes"/>
      <point x="689" y="315"/>
      <point x="735" y="351"/>
      <point x="812" y="351" type="curve" smooth="yes"/>
    </contour>
    <component base="fraction" xOffset="271"/>
  </outline>
</glyph>
<glyph name="ampersand" format="1">
  <advance width="698"/>
  <unicode hex="0026"/>
  <outline>
    <contour>
      <point x="214" y="692"/>
      <point x="162" y="632"/>
      <point x="162" y="543" type="curve" smooth="yes"/>
      <point x="162" y="445"/>
      <point x="217" y="344"/>
      <point x="312" y="225" type="curve" smooth="yes"/>
      <point x="473" y="23"/>
      <point x="548" y="0"/>
      <point x="668" y="0" type="curve"/>
      <point x="668" y="84" type="line"/>
      <point x="578" y="85"/>
      <point x="532" y="86"/>
      <point x="379" y="272" type="curve" smooth="yes"/>
      <point x="304" y="363"/>
      <point x="242" y="458"/>
      <point x="242" y="546" type="curve" smooth="yes"/>
      <point x="242" y="594"/>
      <point x="263" y="629"/>
      <point x="320" y="629" type="curve" smooth="yes"/>
      <point x="371" y="629"/>
      <point x="391" y="602"/>
      <point x="391" y="556" type="curve" smooth="yes"/>
      <point x="391" y="496"/>
      <point x="357" y="474"/>
      <point x="260" y="443" type="curve"/>
      <point x="288" y="393" type="line"/>
      <point x="412" y="433"/>
      <point x="463" y="478"/>
      <point x="463" y="562" type="curve" smooth="yes"/>
      <point x="463" y="642"/>
      <point x="417" y="692"/>
      <point x="320" y="692" type="curve" smooth="yes"/>
    </contour>
    <contour>
      <point x="97" y="379"/>
      <point x="38" y="312"/>
      <point x="38" y="201" type="curve" smooth="yes"/>
      <point x="38" y="63"/>
      <point x="130" y="-12"/>
      <point x="272" y="-12" type="curve" smooth="yes"/>
      <point x="460" y="-12"/>
      <point x="587" y="118"/>
      <point x="604" y="314" type="curve"/>
      <point x="678" y="345" type="line"/>
      <point x="678" y="400" type="line"/>
      <point x="460" y="400" type="line"/>
      <point x="460" y="345" type="line"/>
      <point x="534" y="314" type="line"/>
      <point x="532" y="165"/>
      <point x="425" y="62"/>
      <point x="283" y="62" type="curve" smooth="yes"/>
      <point x="188" y="62"/>
      <point x="128" y="108"/>
      <point x="128" y="210" type="curve" smooth="yes"/>
      <point x="128" y="286"/>
      <point x="161" y="329"/>
      <point x="229" y="371" type="curve"/>
      <point x="202" y="424" type="line"/>
    </contour>
  </outline>
</glyph>
<glyph name="quotesingle" format="1">
  <advance width="242"/>
  <unicode hex="0027"/>
  <outline>
    <contour>
      <point x="171" y="680" type="line"/>
      <point x="71" y="680" type="line"/>
      <point x="71" y="635" type="line"/>
      <point x="97" y="358" type="line"/>
      <point x="145" y="358" type="line"/>
      <point x="171" y="635" type="line"/>
    </contour>
  </outline>
</glyph>
<glyph name="parenleft" format="1">
  <advance width="412"/>
  <unicode hex="0028"/>
  <outline>
    <contour>
      <point x="170" y="680"/>
      <point x="55" y="509"/>
      <point x="55" y="246" type="curve" smooth="yes"/>
      <point x="55" y="-17"/>
      <point x="170" y="-188"/>
      <point x="372" y="-224" type="curve"/>
      <point x="372" y="-152" type="line"/>
      <point x="226" y="-118"/>
      <point x="145" y="7"/>
      <point x="145" y="246" type="curve" smooth="yes"/>
      <point x="145" y="485"/>
      <point x="226" y="610"/>
      <point x="372" y="644" type="curve"/>
      <point x="372" y="716" type="line"/>
    </contour>
  </outline>
</glyph>
<glyph name="asterisk" format="1">
  <advance width="415"/>
  <unicode hex="002A"/>
  <outline>
    <contour>
      <point x="182" y="692"/>
      <point x="167" y="675"/>
      <point x="167" y="652" type="curve" smooth="yes"/>
      <point x="167" y="618"/>
      <point x="189" y="596"/>
      <point x="201" y="519" type="curve"/>
      <point x="134" y="570"/>
      <point x="121" y="620"/>
      <point x="80" y="620" type="curve" smooth="yes"/>
      <point x="56" y="620"/>
      <point x="40" y="596"/>
      <point x="40" y="578" type="curve" smooth="yes"/>
      <point x="40" y="563"/>
      <point x="48" y="551"/>
      <point x="61" y="545" type="curve" smooth="yes"/>
      <point x="91" y="527"/>
      <point x="122" y="535"/>
      <point x="193" y="507" type="curve"/>
      <point x="122" y="479"/>
      <point x="91" y="486"/>
      <point x="61" y="469" type="curve" smooth="yes"/>
      <point x="48" y="462"/>
      <point x="40" y="450"/>
      <point x="40" y="436" type="curve" smooth="yes"/>
      <point x="40" y="417"/>
      <point x="56" y="392"/>
      <point x="80" y="392" type="curve" smooth="yes"/>
      <point x="121" y="392"/>
      <point x="134" y="443"/>
      <point x="201" y="494" type="curve"/>
      <point x="189" y="417"/>
      <point x="167" y="395"/>
      <point x="167" y="361" type="curve" smooth="yes"/>
      <point x="167" y="339"/>
      <point x="182" y="321"/>
      <point x="207" y="321" type="curve" smooth="yes"/>
      <point x="234" y="321"/>
      <point x="249" y="339"/>
      <point x="249" y="361" type="curve" smooth="yes"/>
      <point x="249" y="395"/>
      <point x="227" y="417"/>
      <point x="215" y="494" type="curve"/>
      <point x="281" y="443"/>
      <point x="295" y="392"/>
      <point x="336" y="392" type="curve" smooth="yes"/>
      <point x="360" y="392"/>
      <point x="375" y="417"/>
      <point x="375" y="436" type="curve" smooth="yes"/>
      <point x="375" y="450"/>
      <point x="367" y="462"/>
      <point x="354" y="469" type="curve" smooth="yes"/>
      <point x="325" y="486"/>
      <point x="294" y="479"/>
      <point x="223" y="507" type="curve"/>
      <point x="294" y="535"/>
      <point x="325" y="527"/>
      <point x="354" y="545" type="curve" smooth="yes"/>
      <point x="367" y="551"/>
      <point x="375" y="563"/>
      <point x="375" y="578" type="curve" smooth="yes"/>
      <point x="375" y="596"/>
      <point x="360" y="620"/>
      <point x="336" y="620" type="curve" smooth="yes"/>
      <point x="295" y="620"/>
      <point x="281" y="570"/>
      <point x="215" y="519" type="curve"/>
      <point x="227" y="596"/>
      <point x="249" y="618"/>
      <point x="249" y="652" type="curve" smooth="yes"/>
      <point x="249" y="675"/>
      <point x="234" y="692"/>
      <point x="207" y="692" type="curve" smooth="yes"/>
    </contour>
  </outline>
</glyph>
<glyph name="plus" format="1">
  <advance width="582"/>
  <unicode hex="002B"/>
  <outline>
    <contour>
      <point x="64" y="309" type="line"/>
      <point x="64" y="239" type="line"/>
      <point x="518" y="239" type="line"/>
      <point x="518" y="309" type="line"/>
    </contour>
    <contour>
      <point x="324" y="501" type="line"/>
      <point x="258" y="501" type="line"/>
      <point x="258" y="47" type="line"/>
      <point x="324" y="47" type="line"/>
    </contour>
  </outline>
</glyph>
<glyph name="comma" format="1">
  <advance width="246"/>
  <unicode hex="002C"/>
  <outline>
    <contour>
      <point x="78" y="128"/>
      <point x="52" y="102"/>
      <point x="52" y="55" type="curve" smooth="yes"/>
      <point x="52" y="40"/>
      <point x="57" y="24"/>
      <point x="66" y="13" type="curve"/>
      <point x="134" y="-8" type="line"/>
      <point x="134" y="-104"/>
      <point x="114" y="-123"/>
      <point x="52" y="-127" type="curve"/>
      <point x="52" y="-177" type="line"/>
      <point x="141" y="-171"/>
      <point x="194" y="-125"/>
      <point x="194" y="2" type="curve" smooth="yes"/>
      <point x="194" y="80"/>
      <point x="183" y="128"/>
      <point x="123" y="128" type="curve" smooth="yes"/>
    </contour>
  </outline>
</glyph>
<glyph name="period" format="1">
  <advance width="246"/>
  <unicode hex="002E"/>
  <outline>
    <contour>
      <point x="81" y="128"/>
      <point x="55" y="104"/>
      <point x="55" y="60" type="curve" smooth="yes"/>
      <point x="55" y="16"/>
      <point x="81" y="-8"/>
      <point x="123" y="-8" type="curve" smooth="yes"/>
      <point x="165" y="-8"/>
      <point x="191" y="16"/>
      <point x="191" y="60" type="curve" smooth="yes"/>
      <point x="191" y="104"/>
      <point x="165" y="128"/>
      <point x="123" y="128" type="curve" smooth="yes"/>
    </contour>
  </outline>
</glyph>
<glyph name="slash" format="1">
  <advance width="358"/>
  <unicode hex="002F"/>
  <outline>
    <contour>
      <point x="266" y="750" type="line"/>
      <point x="-2" y="-126" type="line"/>
      <point x="80" y="-126" type="line"/>
      <point x="348" y="750" type="line"/>
    </contour>
  </outline>
</glyph>
<glyph name="zero" format="1">
  <advance width="640"/>
  <unicode hex="0030"/>
  <outline>
    <contour>
      <point x="471" y="-15"/>
      <point x="590" y="59"/>
      <point x="590" y="274" type="curve" smooth="yes"/>
      <point x="590" y="489"/>
      <point x="470" y="563"/>
      <point x="320" y="563" type="curve" smooth="yes"/>
      <point x="170" y="563"/>
      <point x="50" y="489"/>
      <point x="50" y="274" type="curve" smooth="yes"/>
      <point x="50" y="59"/>
      <point x="169" y="-15"/>
      <point x="320" y="-15" type="curve" smooth="yes"/>
    </contour>
    <contour>
      <point x="192" y="57"/>
      <point x="138" y="102"/>
      <point x="138" y="274" type="curve" smooth="yes"/>
      <point x="138" y="446"/>
      <point x="192" y="491"/>
      <point x="320" y="491" type="curve" smooth="yes"/>
      <point x="448" y="491"/>
      <point x="502" y="446"/>
      <point x="502" y="274" type="curve" smooth="yes"/>
      <point x="502" y="102"/>
      <point x="448" y="57"/>
      <point x="320" y="57" type="curve" smooth="yes"/>
    </contour>
  </outline>
</glyph>
<glyph name="one" format="1">
  <advance width="325"/>
  <unicode hex="0031"/>
  <outline>
    <contour>
      <point x="35" y="55" type="line"/>
      <point x="35" y="0" type="line"/>
      <point x="305" y="0" type="line"/>
      <point x="305" y="55" type="line"/>
      <point x="212" y="85" type="line"/>
      <point x="212" y="548" type="line"/>
      <point x="148" y="548" type="line"/>
      <point x="20" y="518" type="line"/>
      <point x="20" y="463" type="line"/>
      <point x="128" y="463" type="line"/>
      <point x="128" y="85" type="line"/>
    </contour>
  </outline>
</glyph>
<glyph name="two" format="1">
  <advance width="575"/>
  <unicode hex="0032"/>
  <outline>
    <contour>
      <point x="535" y="0" type="line"/>
      <point x="535" y="170" type="line"/>
      <point x="478" y="170" type="line"/>
      <point x="450" y="50" type="line"/>
      <point x="484" y="70" type="line"/>
      <point x="93" y="70" type="line"/>
      <point x="93" y="46" type="line"/>
      <point x="200" y="199"/>
      <point x="500" y="162"/>
      <point x="500" y="381" type="curve" smooth="yes"/>
      <point x="500" y="506"/>
      <point x="435" y="563"/>
      <point x="281" y="563" type="curve" smooth="yes"/>
      <point x="134" y="563"/>
      <point x="30" y="507"/>
      <point x="30" y="412" type="curve" smooth="yes"/>
      <point x="30" y="360"/>
      <point x="61" y="332"/>
      <point x="103" y="332" type="curve" smooth="yes"/>
      <point x="132" y="332"/>
      <point x="157" y="345"/>
      <point x="167" y="366" type="curve"/>
      <point x="124" y="477" type="line"/>
      <point x="116" y="458" type="line"/>
      <point x="152" y="478"/>
      <point x="199" y="491"/>
      <point x="279" y="491" type="curve" smooth="yes"/>
      <point x="375" y="491"/>
      <point x="412" y="460"/>
      <point x="412" y="382" type="curve" smooth="yes"/>
      <point x="412" y="223"/>
      <point x="135" y="238"/>
      <point x="15" y="62" type="curve"/>
      <point x="15" y="0" type="line"/>
    </contour>
  </outline>
</glyph>
<glyph name="three" format="1">
  <advance width="561"/>
  <unicode hex="0033"/>
  <outline>
    <contour>
      <point x="40" y="548" type="line"/>
      <point x="40" y="378" type="line"/>
      <point x="98" y="378" type="line"/>
      <point x="127" y="501" type="line"/>
      <point x="95" y="478" type="line"/>
      <point x="449" y="478" type="line"/>
      <point x="449" y="514" type="line"/>
      <point x="194" y="251" type="line"/>
      <point x="194" y="191" type="line"/>
      <point x="231" y="191" type="line" smooth="yes"/>
      <point x="406" y="191"/>
      <point x="446" y="152"/>
      <point x="446" y="63" type="curve" smooth="yes"/>
      <point x="446" y="-36"/>
      <point x="397" y="-72"/>
      <point x="275" y="-72" type="curve" smooth="yes"/>
      <point x="230" y="-72"/>
      <point x="188" y="-67"/>
      <point x="153" y="-57" type="curve"/>
      <point x="191" y="-99" type="line"/>
      <point x="124" y="63" type="line"/>
      <point x="56" y="63"/>
      <point x="30" y="39"/>
      <point x="30" y="-11" type="curve" smooth="yes"/>
      <point x="30" y="-95"/>
      <point x="124" y="-144"/>
      <point x="271" y="-144" type="curve" smooth="yes"/>
      <point x="466" y="-144"/>
      <point x="534" y="-57"/>
      <point x="534" y="66" type="curve" smooth="yes"/>
      <point x="534" y="200"/>
      <point x="453" y="259"/>
      <point x="277" y="259" type="curve"/>
      <point x="277" y="233" type="line"/>
      <point x="524" y="488" type="line"/>
      <point x="524" y="548" type="line"/>
    </contour>
  </outline>
</glyph>
<glyph name="four" format="1">
  <advance width="584"/>
  <unicode hex="0034"/>
  <outline>
    <contour>
      <point x="478" y="-136" type="line"/>
      <point x="478" y="50" type="line"/>
      <point x="578" y="50" type="line"/>
      <point x="578" y="120" type="line"/>
      <point x="478" y="120" type="line"/>
      <point x="478" y="303" type="line"/>
      <point x="394" y="303" type="line"/>
      <point x="394" y="120" type="line"/>
      <point x="38" y="120" type="line"/>
      <point x="72" y="106" type="line"/>
      <point x="221" y="210"/>
      <point x="347" y="385"/>
      <point x="374" y="548" type="curve"/>
      <point x="276" y="548" type="line"/>
      <point x="239" y="385"/>
      <point x="148" y="247"/>
      <point x="10" y="120" type="curve"/>
      <point x="10" y="50" type="line"/>
      <point x="394" y="50" type="line"/>
      <point x="394" y="-136" type="line"/>
    </contour>
  </outline>
</glyph>
<glyph name="five" format="1">
  <advance width="577"/>
  <unicode hex="0035"/>
  <outline>
    <contour>
      <point x="246" y="-72"/>
      <point x="200" y="-68"/>
      <point x="163" y="-57" type="curve"/>
      <point x="201" y="-99" type="line"/>
      <point x="134" y="63" type="line"/>
      <point x="66" y="63"/>
      <point x="40" y="39"/>
      <point x="40" y="-11" type="curve" smooth="yes"/>
      <point x="40" y="-95"/>
      <point x="132" y="-144"/>
      <point x="280" y="-144" type="curve" smooth="yes"/>
      <point x="460" y="-144"/>
      <point x="547" y="-66"/>
      <point x="547" y="90" type="curve" smooth="yes"/>
      <point x="547" y="239"/>
      <point x="468" y="320"/>
      <point x="321" y="320" type="curve" smooth="yes"/>
      <point x="232" y="320"/>
      <point x="159" y="290"/>
      <point x="124" y="238" type="curve"/>
      <point x="144" y="238" type="line"/>
      <point x="144" y="505" type="line"/>
      <point x="123" y="478" type="line"/>
      <point x="513" y="478" type="line"/>
      <point x="513" y="548" type="line"/>
      <point x="60" y="548" type="line"/>
      <point x="60" y="203" type="line"/>
      <point x="140" y="193" type="line"/>
      <point x="184" y="229"/>
      <point x="234" y="248"/>
      <point x="303" y="248" type="curve" smooth="yes"/>
      <point x="411" y="248"/>
      <point x="459" y="202"/>
      <point x="459" y="87" type="curve" smooth="yes"/>
      <point x="459" y="-30"/>
      <point x="410" y="-72"/>
      <point x="285" y="-72" type="curve" smooth="yes"/>
    </contour>
  </outline>
</glyph>
<glyph name="six" format="1">
  <advance width="633"/>
  <unicode hex="0036"/>
  <outline>
    <contour>
      <point x="160" y="692"/>
      <point x="52" y="591"/>
      <point x="52" y="341" type="curve" smooth="yes"/>
      <point x="52" y="104"/>
      <point x="149" y="-12"/>
      <point x="335" y="-12" type="curve" smooth="yes"/>
      <point x="501" y="-12"/>
      <point x="588" y="81"/>
      <point x="588" y="218" type="curve" smooth="yes"/>
      <point x="588" y="338"/>
      <point x="521" y="423"/>
      <point x="363" y="423" type="curve" smooth="yes"/>
      <point x="271" y="423"/>
      <point x="186" y="394"/>
      <point x="127" y="354" type="curve"/>
      <point x="127" y="282" type="line"/>
      <point x="187" y="324"/>
      <point x="263" y="351"/>
      <point x="345" y="351" type="curve" smooth="yes"/>
      <point x="454" y="351"/>
      <point x="500" y="304"/>
      <point x="500" y="214" type="curve" smooth="yes"/>
      <point x="500" y="114"/>
      <point x="444" y="60"/>
      <point x="336" y="60" type="curve" smooth="yes"/>
      <point x="197" y="60"/>
      <point x="140" y="148"/>
      <point x="140" y="339" type="curve" smooth="yes"/>
      <point x="140" y="560"/>
      <point x="217" y="620"/>
      <point x="370" y="620" type="curve" smooth="yes"/>
      <point x="404" y="620"/>
      <point x="432" y="617"/>
      <point x="452" y="609" type="curve"/>
      <point x="421" y="634" type="line"/>
      <point x="474" y="515" type="line"/>
      <point x="537" y="515"/>
      <point x="568" y="539"/>
      <point x="568" y="584" type="curve" smooth="yes"/>
      <point x="568" y="646"/>
      <point x="517" y="692"/>
      <point x="373" y="692" type="curve" smooth="yes"/>
    </contour>
  </outline>
</glyph>
<glyph name="seven" format="1">
  <advance width="533"/>
  <unicode hex="0037"/>
  <outline>
    <contour>
      <point x="263" y="-136" type="line"/>
      <point x="513" y="488" type="line"/>
      <point x="513" y="548" type="line"/>
      <point x="25" y="548" type="line"/>
      <point x="25" y="378" type="line"/>
      <point x="83" y="378" type="line"/>
      <point x="116" y="518" type="line"/>
      <point x="68" y="478" type="line"/>
      <point x="430" y="478" type="line"/>
      <point x="171" y="-136" type="line"/>
    </contour>
  </outline>
</glyph>
<glyph name="eight" format="1">
  <advance width="618"/>
  <unicode hex="0038"/>
  <outline>
    <contour>
      <point x="138" y="694"/>
      <point x="65" y="630"/>
      <point x="65" y="514" type="curve" smooth="yes"/>
      <point x="65" y="406"/>
      <point x="129" y="349"/>
      <point x="253" y="316" type="curve" smooth="yes"/>
      <point x="288" y="307"/>
      <point x="368" y="289"/>
      <point x="396" y="280" type="curve" smooth="yes"/>
      <point x="457" y="261"/>
      <point x="480" y="222"/>
      <point x="480" y="171" type="curve" smooth="yes"/>
      <point x="480" y="94"/>
      <point x="429" y="58"/>
      <point x="316" y="58" type="curve" smooth="yes"/>
      <point x="193" y="58"/>
      <point x="138" y="101"/>
      <point x="138" y="190" type="curve" smooth="yes"/>
      <point x="138" y="253"/>
      <point x="165" y="301"/>
      <point x="230" y="341" type="curve"/>
      <point x="171" y="367" type="line"/>
      <point x="82" y="320"/>
      <point x="50" y="256"/>
      <point x="50" y="182" type="curve" smooth="yes"/>
      <point x="50" y="54"/>
      <point x="145" y="-14"/>
      <point x="317" y="-14" type="curve" smooth="yes"/>
      <point x="498" y="-14"/>
      <point x="568" y="61"/>
      <point x="568" y="180" type="curve" smooth="yes"/>
      <point x="568" y="255"/>
      <point x="540" y="330"/>
      <point x="394" y="369" type="curve" smooth="yes"/>
      <point x="364" y="377"/>
      <point x="287" y="395"/>
      <point x="253" y="405" type="curve" smooth="yes"/>
      <point x="187" y="425"/>
      <point x="153" y="454"/>
      <point x="153" y="520" type="curve" smooth="yes"/>
      <point x="153" y="594"/>
      <point x="195" y="622"/>
      <point x="302" y="622" type="curve" smooth="yes"/>
      <point x="420" y="622"/>
      <point x="465" y="588"/>
      <point x="465" y="497" type="curve" smooth="yes"/>
      <point x="465" y="443"/>
      <point x="449" y="398"/>
      <point x="389" y="353" type="curve"/>
      <point x="445" y="329" type="line"/>
      <point x="515" y="367"/>
      <point x="553" y="429"/>
      <point x="553" y="507" type="curve" smooth="yes"/>
      <point x="553" y="614"/>
      <point x="481" y="694"/>
      <point x="300" y="694" type="curve" smooth="yes"/>
    </contour>
  </outline>
</glyph>
<glyph name="nine" format="1">
  <advance width="633"/>
  <unicode hex="0039"/>
  <outline>
    <contour>
      <point x="495" y="-144"/>
      <point x="583" y="-46"/>
      <point x="583" y="207" type="curve" smooth="yes"/>
      <point x="583" y="456"/>
      <point x="495" y="563"/>
      <point x="298" y="563" type="curve" smooth="yes"/>
      <point x="142" y="563"/>
      <point x="45" y="495"/>
      <point x="45" y="338" type="curve" smooth="yes"/>
      <point x="45" y="198"/>
      <point x="121" y="123"/>
      <point x="278" y="123" type="curve" smooth="yes"/>
      <point x="369" y="123"/>
      <point x="460" y="148"/>
      <point x="512" y="191" type="curve"/>
      <point x="512" y="264" type="line"/>
      <point x="449" y="216"/>
      <point x="379" y="195"/>
      <point x="298" y="195" type="curve" smooth="yes"/>
      <point x="180" y="195"/>
      <point x="133" y="239"/>
      <point x="133" y="339" type="curve" smooth="yes"/>
      <point x="133" y="444"/>
      <point x="184" y="491"/>
      <point x="300" y="491" type="curve" smooth="yes"/>
      <point x="439" y="491"/>
      <point x="495" y="424"/>
      <point x="495" y="213" type="curve" smooth="yes"/>
      <point x="495" y="1"/>
      <point x="439" y="-72"/>
      <point x="292" y="-72" type="curve" smooth="yes"/>
      <point x="262" y="-72"/>
      <point x="202" y="-69"/>
      <point x="172" y="-58" type="curve"/>
      <point x="213" y="-96" type="line"/>
      <point x="156" y="53" type="line"/>
      <point x="85" y="53"/>
      <point x="60" y="24"/>
      <point x="60" y="-23" type="curve" smooth="yes"/>
      <point x="60" y="-105"/>
      <point x="152" y="-144"/>
      <point x="287" y="-144" type="curve" smooth="yes"/>
    </contour>
  </outline>
</glyph>
<glyph name="less" format="1">
  <advance width="582"/>
  <unicode hex="003C"/>
  <outline>
    <contour>
      <point x="64" y="310" type="line"/>
      <point x="64" y="238" type="line"/>
      <point x="494" y="0" type="line"/>
      <point x="494" y="83" type="line"/>
      <point x="111" y="289" type="line"/>
      <point x="111" y="259" type="line"/>
      <point x="494" y="465" type="line"/>
      <point x="494" y="548" type="line"/>
    </contour>
  </outline>
</glyph>
<glyph name="B" format="1">
  <advance width="710"/>
  <unicode hex="0042"/>
  <outline>
    <contour>
      <point x="55" y="680" type="line"/>
      <point x="55" y="623" type="line"/>
      <point x="129" y="594" type="line"/>
      <point x="129" y="86" type="line"/>
      <point x="55" y="55" type="line"/>
      <point x="55" y="0" type="line"/>
      <point x="476" y="0" type="line" smooth="yes"/>
      <point x="607" y="0"/>
      <point x="650" y="71"/>
      <point x="650" y="176" type="curve" smooth="yes"/>
      <point x="650" y="290"/>
      <point x="600" y="340"/>
      <point x="530" y="346" type="curve"/>
      <point x="601" y="362"/>
      <point x="640" y="424"/>
      <point x="640" y="514" type="curve" smooth="yes"/>
      <point x="640" y="617"/>
      <point x="589" y="680"/>
      <point x="461" y="680" type="curve" smooth="yes"/>
    </contour>
    <contour>
      <point x="534" y="306"/>
      <point x="560" y="270"/>
      <point x="560" y="191" type="curve" smooth="yes"/>
      <point x="560" y="103"/>
      <point x="528" y="72"/>
      <point x="466" y="72" type="curve" smooth="yes"/>
      <point x="215" y="72" type="line"/>
      <point x="215" y="306" type="line"/>
      <point x="452" y="306" type="line" smooth="yes"/>
    </contour>
    <contour>
      <point x="526" y="608"/>
      <point x="550" y="577"/>
      <point x="550" y="496" type="curve" smooth="yes"/>
      <point x="550" y="407"/>
      <point x="521" y="378"/>
      <point x="440" y="378" type="curve" smooth="yes"/>
      <point x="215" y="378" type="line"/>
      <point x="215" y="608" type="line"/>
      <point x="458" y="608" type="line" smooth="yes"/>
    </contour>
  </outline>
</glyph>
<glyph name="E" format="1">
  <advance width="692"/>
  <unicode hex="0045"/>
  <outline>
    <contour>
      <point x="55" y="680" type="line"/>
      <point x="55" y="623" type="line"/>
      <point x="129" y="594" type="line"/>
      <point x="129" y="85" type="line"/>
      <point x="55" y="55" type="line"/>
      <point x="55" y="0" type="line"/>
      <point x="640" y="0" type="line"/>
      <point x="640" y="187" type="line"/>
      <point x="581" y="187" type="line"/>
      <point x="555" y="72" type="line"/>
      <point x="215" y="72" type="line"/>
      <point x="215" y="306" type="line"/>
      <point x="414" y="306" type="line"/>
      <point x="429" y="229" type="line"/>
      <point x="484" y="229" type="line"/>
      <point x="484" y="455" type="line"/>
      <point x="429" y="455" type="line"/>
      <point x="414" y="378" type="line"/>
      <point x="215" y="378" type="line"/>
      <point x="215" y="608" type="line"/>
      <point x="555" y="608" type="line"/>
      <point x="581" y="503" type="line"/>
      <point x="640" y="503" type="line"/>
      <point x="640" y="680" type="line"/>
    </contour>
    <contour>
      <point x="552" y="10" type="move" name="ogonek"/>
    </contour>
    <contour>
      <point x="380" y="0" type="move" name="bottom"/>
    </contour>
    <contour>
      <point x="375" y="680" type="move" name="top"/>
    </contour>
  </outline>
</glyph>
<glyph name="F" format="1">
  <advance width="679"/>
  <unicode hex="0046"/>
  <outline>
    <contour>
      <point x="55" y="680" type="line"/>
      <point x="55" y="623" type="line"/>
      <point x="129" y="594" type="line"/>
      <point x="129" y="85" type="line"/>
      <point x="55" y="55" type="line"/>
      <point x="55" y="0" type="line"/>
      <point x="306" y="0" type="line"/>
      <point x="306" y="55" type="line"/>
      <point x="215" y="85" type="line"/>
      <point x="215" y="297" type="line"/>
      <point x="407" y="297" type="line"/>
      <point x="422" y="216" type="line"/>
      <point x="477" y="216" type="line"/>
      <point x="477" y="447" type="line"/>
      <point x="422" y="447" type="line"/>
      <point x="407" y="369" type="line"/>
      <point x="215" y="369" type="line"/>
      <point x="215" y="609" type="line"/>
      <point x="548" y="609" type="line"/>
      <point x="575" y="497" type="line"/>
      <point x="634" y="497" type="line"/>
      <point x="634" y="680" type="line"/>
    </contour>
  </outline>
</glyph>
<glyph name="H" format="1">
  <advance width="822"/>
  <unicode hex="0048"/>
  <outline>
    <contour>
      <point x="533" y="680" type="line"/>
      <point x="533" y="623" type="line"/>
      <point x="607" y="594" type="line"/>
      <point x="607" y="378" type="line"/>
      <point x="215" y="378" type="line"/>
      <point x="215" y="594" type="line"/>
      <point x="289" y="623" type="line"/>
      <point x="289" y="680" type="line"/>
      <point x="55" y="680" type="line"/>
      <point x="55" y="623" type="line"/>
      <point x="129" y="594" type="line"/>
      <point x="129" y="86" type="line"/>
      <point x="55" y="55" type="line"/>
      <point x="55" y="0" type="line"/>
      <point x="289" y="0" type="line"/>
      <point x="289" y="55" type="line"/>
      <point x="215" y="86" type="line"/>
      <point x="215" y="306" type="line"/>
      <point x="607" y="306" type="line"/>
      <point x="607" y="86" type="line"/>
      <point x="533" y="55" type="line"/>
      <point x="533" y="0" type="line"/>
      <point x="767" y="0" type="line"/>
      <point x="767" y="55" type="line"/>
      <point x="693" y="86" type="line"/>
      <point x="693" y="594" type="line"/>
      <point x="767" y="623" type="line"/>
      <point x="767" y="680" type="line"/>
    </contour>
  </outline>
</glyph>
<glyph name="K" format="1">
  <advance width="797"/>
  <unicode hex="004B"/>
  <outline>
    <contour>
      <point x="506" y="680" type="line"/>
      <point x="506" y="623" type="line"/>
      <point x="565" y="598" type="line"/>
      <point x="191" y="304" type="line"/>
      <point x="191" y="216" type="line"/>
      <point x="685" y="603" type="line"/>
      <point x="641" y="578" type="line"/>
      <point x="742" y="623" type="line"/>
      <point x="742" y="680" type="line"/>
    </contour>
    <contour>
      <point x="55" y="680" type="line"/>
      <point x="55" y="623" type="line"/>
      <point x="129" y="594" type="line"/>
      <point x="129" y="86" type="line"/>
      <point x="55" y="55" type="line"/>
      <point x="55" y="0" type="line"/>
      <point x="294" y="0" type="line"/>
      <point x="294" y="55" type="line"/>
      <point x="215" y="86" type="line"/>
      <point x="215" y="594" type="line"/>
      <point x="289" y="623" type="line"/>
      <point x="289" y="680" type="line"/>
    </contour>
    <contour>
      <point x="688" y="86" type="line"/>
      <point x="413" y="411" type="line"/>
      <point x="348" y="358" type="line"/>
      <point x="578" y="85" type="line"/>
      <point x="515" y="56" type="line"/>
      <point x="515" y="1" type="line"/>
      <point x="752" y="1" type="line"/>
      <point x="752" y="56" type="line"/>
    </contour>
    <contour>
      <point x="398" y="680" type="move" name="top"/>
    </contour>
    <contour>
      <point x="405" y="0" type="move" name="bottom"/>
    </contour>
  </outline>
</glyph>
<glyph name="N" format="1">
  <advance width="808"/>
  <unicode hex="004E"/>
  <outline>
    <contour>
      <point x="536" y="680" type="line"/>
      <point x="536" y="623" type="line"/>
      <point x="615" y="594" type="line"/>
      <point x="615" y="81" type="line"/>
      <point x="631" y="84" type="line"/>
      <point x="231" y="680" type="line"/>
      <point x="55" y="680" type="line"/>
      <point x="55" y="623" type="line"/>
      <point x="129" y="594" type="line"/>
      <point x="129" y="85" type="line"/>
      <point x="55" y="55" type="line"/>
      <point x="55" y="0" type="line"/>
      <point x="281" y="0" type="line"/>
      <point x="281" y="55" type="line"/>
      <point x="202" y="85" type="line"/>
      <point x="202" y="599" type="line"/>
      <point x="187" y="595" type="line"/>
      <point x="587" y="0" type="line"/>
      <point x="689" y="0" type="line"/>
      <point x="689" y="594" type="line"/>
      <point x="763" y="623" type="line"/>
      <point x="763" y="680" type="line"/>
    </contour>
    <contour>
      <point x="404" y="680" type="move" name="top"/>
    </contour>
    <contour>
      <point x="404" y="0" type="move" name="bottom"/>
    </contour>
  </outline>
</glyph>
<glyph name="O" format="1">
  <advance width="728"/>
  <unicode hex="004F"/>
  <outline>
    <contour>
      <point x="168" y="692"/>
      <point x="42" y="583"/>
      <point x="42" y="340" type="curve" smooth="yes"/>
      <point x="42" y="97"/>
      <point x="168" y="-12"/>
      <point x="364" y="-12" type="curve" smooth="yes"/>
      <point x="560" y="-12"/>
      <point x="686" y="97"/>
      <point x="686" y="340" type="curve" smooth="yes"/>
      <point x="686" y="583"/>
      <point x="560" y="692"/>
      <point x="364" y="692" type="curve" smooth="yes"/>
    </contour>
    <contour>
      <point x="521" y="618"/>
      <point x="596" y="546"/>
      <point x="596" y="340" type="curve" smooth="yes"/>
      <point x="596" y="134"/>
      <point x="521" y="62"/>
      <point x="364" y="62" type="curve" smooth="yes"/>
      <point x="207" y="62"/>
      <point x="132" y="134"/>
      <point x="132" y="340" type="curve" smooth="yes"/>
      <point x="132" y="546"/>
      <point x="207" y="618"/>
      <point x="364" y="618" type="curve" smooth="yes"/>
    </contour>
    <contour>
      <point x="364" y="680" type="move" name="top"/>
    </contour>
  </outline>
</glyph>
<glyph name="P" format="1">
  <advance width="680"/>
  <unicode hex="0050"/>
  <outline>
    <contour>
      <point x="55" y="680" type="line"/>
      <point x="55" y="623" type="line"/>
      <point x="129" y="594" type="line"/>
      <point x="129" y="86" type="line"/>
      <point x="55" y="55" type="line"/>
      <point x="55" y="0" type="line"/>
      <point x="289" y="0" type="line"/>
      <point x="289" y="55" type="line"/>
      <point x="215" y="86" type="line"/>
      <point x="215" y="270" type="line"/>
      <point x="450" y="270" type="line" smooth="yes"/>
      <point x="591" y="270"/>
      <point x="650" y="329"/>
      <point x="650" y="475" type="curve" smooth="yes"/>
      <point x="650" y="621"/>
      <point x="591" y="680"/>
      <point x="450" y="680" type="curve" smooth="yes"/>
    </contour>
    <contour>
      <point x="530" y="608"/>
      <point x="560" y="579"/>
      <point x="560" y="475" type="curve" smooth="yes"/>
      <point x="560" y="371"/>
      <point x="530" y="342"/>
      <point x="440" y="342" type="curve" smooth="yes"/>
      <point x="215" y="342" type="line"/>
      <point x="215" y="608" type="line"/>
      <point x="440" y="608" type="line" smooth="yes"/>
    </contour>
  </outline>
</glyph>
<glyph name="Q" format="1">
  <advance width="728"/>
  <unicode hex="0051"/>
  <outline>
    <contour>
      <point x="342" y="0" type="line"/>
      <point x="342" y="-143"/>
      <point x="394" y="-191"/>
      <point x="641" y="-191" type="curve"/>
      <point x="641" y="-115" type="line"/>
      <point x="446" y="-115"/>
      <point x="416" y="-95"/>
      <point x="416" y="0" type="curve"/>
    </contour>
    <component base="O"/>
  </outline>
</glyph>
<glyph name="R" format="1">
  <advance width="728"/>
  <unicode hex="0052"/>
  <outline>
    <contour>
      <point x="55" y="680" type="line"/>
      <point x="55" y="623" type="line"/>
      <point x="129" y="594" type="line"/>
      <point x="129" y="86" type="line"/>
      <point x="55" y="55" type="line"/>
      <point x="55" y="0" type="line"/>
      <point x="289" y="0" type="line"/>
      <point x="289" y="55" type="line"/>
      <point x="215" y="86" type="line"/>
      <point x="215" y="282" type="line"/>
      <point x="462" y="282" type="line"/>
      <point x="591" y="293"/>
      <point x="652" y="354"/>
      <point x="652" y="487" type="curve" smooth="yes"/>
      <point x="652" y="621"/>
      <point x="593" y="680"/>
      <point x="452" y="680" type="curve" smooth="yes"/>
    </contour>
    <contour>
      <point x="374" y="303" type="line"/>
      <point x="576" y="0" type="line"/>
      <point x="691" y="0" type="line"/>
      <point x="691" y="55" type="line"/>
      <point x="623" y="85" type="line"/>
      <point x="475" y="303" type="line"/>
    </contour>
    <contour>
      <point x="532" y="608"/>
      <point x="562" y="579"/>
      <point x="562" y="481" type="curve" smooth="yes"/>
      <point x="562" y="375"/>
      <point x="522" y="354"/>
      <point x="432" y="354" type="curve" smooth="yes"/>
      <point x="215" y="354" type="line"/>
      <point x="215" y="608" type="line"/>
      <point x="442" y="608" type="line" smooth="yes"/>
    </contour>
    <contour>
      <point x="373" y="680" type="move" name="top"/>
    </contour>
    <contour>
      <point x="433" y="0" type="move" name="bottom"/>
    </contour>
  </outline>
</glyph>
<glyph name="S" format="1">
  <advance width="619"/>
  <unicode hex="0053"/>
  <outline>
    <contour>
      <point x="123" y="688"/>
      <point x="47" y="640"/>
      <point x="47" y="498" type="curve" smooth="yes"/>
      <point x="47" y="384"/>
      <point x="94" y="342"/>
      <point x="255" y="312" type="curve" smooth="yes"/>
      <point x="461" y="273"/>
      <point x="479" y="274"/>
      <point x="479" y="176" type="curve" smooth="yes"/>
      <point x="479" y="98"/>
      <point x="449" y="66"/>
      <point x="300" y="66" type="curve" smooth="yes"/>
      <point x="241" y="66"/>
      <point x="181" y="72"/>
      <point x="116" y="89" type="curve"/>
      <point x="138" y="52" type="line"/>
      <point x="116" y="200" type="line"/>
      <point x="47" y="200" type="line"/>
      <point x="47" y="22" type="line"/>
      <point x="135" y="-1"/>
      <point x="216" y="-8"/>
      <point x="297" y="-8" type="curve" smooth="yes"/>
      <point x="492" y="-8"/>
      <point x="567" y="40"/>
      <point x="567" y="190" type="curve" smooth="yes"/>
      <point x="567" y="325"/>
      <point x="518" y="351"/>
      <point x="366" y="380" type="curve" smooth="yes"/>
      <point x="163" y="419"/>
      <point x="135" y="419"/>
      <point x="135" y="513" type="curve" smooth="yes"/>
      <point x="135" y="582"/>
      <point x="164" y="614"/>
      <point x="305" y="614" type="curve" smooth="yes"/>
      <point x="361" y="614"/>
      <point x="419" y="609"/>
      <point x="481" y="595" type="curve"/>
      <point x="464" y="634" type="line"/>
      <point x="485" y="487" type="line"/>
      <point x="551" y="487" type="line"/>
      <point x="551" y="662" type="line"/>
      <point x="469" y="679"/>
      <point x="389" y="688"/>
      <point x="309" y="688" type="curve" smooth="yes"/>
    </contour>
    <contour>
      <point x="309" y="680" type="move" name="top"/>
    </contour>
    <contour>
      <point x="310" y="0" type="move" name="bottom"/>
    </contour>
  </outline>
</glyph>
<glyph name="T" format="1">
  <advance width="676"/>
  <unicode hex="0054"/>
  <outline>
    <contour>
      <point x="40" y="680" type="line"/>
      <point x="40" y="488" type="line"/>
      <point x="95" y="488" type="line"/>
      <point x="124" y="608" type="line"/>
      <point x="295" y="608" type="line"/>
      <point x="295" y="85" type="line"/>
      <point x="211" y="55" type="line"/>
      <point x="211" y="0" type="line"/>
      <point x="465" y="0" type="line"/>
      <point x="465" y="55" type="line"/>
      <point x="381" y="85" type="line"/>
      <point x="381" y="608" type="line"/>
      <point x="552" y="608" type="line"/>
      <point x="581" y="488" type="line"/>
      <point x="636" y="488" type="line"/>
      <point x="636" y="680" type="line"/>
    </contour>
    <contour>
      <point x="338" y="340" type="move" name="center"/>
    </contour>
    <contour>
      <point x="338" y="0" type="move" name="bottom"/>
    </contour>
    <contour>
      <point x="338" y="680" type="move" name="top"/>
    </contour>
  </outline>
</glyph>
<glyph name="U" format="1">
  <advance width="793"/>
  <unicode hex="0055"/>
  <outline>
    <contour>
      <point x="516" y="680" type="line"/>
      <point x="516" y="623" type="line"/>
      <point x="597" y="594" type="line"/>
      <point x="597" y="260" type="line" smooth="yes"/>
      <point x="597" y="99"/>
      <point x="532" y="59"/>
      <point x="406" y="59" type="curve" smooth="yes"/>
      <point x="269" y="59"/>
      <point x="205" y="107"/>
      <point x="205" y="267" type="curve" smooth="yes"/>
      <point x="205" y="594" type="line"/>
      <point x="279" y="623" type="line"/>
      <point x="279" y="680" type="line"/>
      <point x="45" y="680" type="line"/>
      <point x="45" y="623" type="line"/>
      <point x="119" y="594" type="line"/>
      <point x="119" y="260" type="line" smooth="yes"/>
      <point x="119" y="57"/>
      <point x="226" y="-15"/>
      <point x="402" y="-15" type="curve" smooth="yes"/>
      <point x="577" y="-15"/>
      <point x="669" y="57"/>
      <point x="669" y="267" type="curve" smooth="yes"/>
      <point x="669" y="594" type="line"/>
      <point x="753" y="623" type="line"/>
      <point x="753" y="680" type="line"/>
    </contour>
    <contour>
      <point x="402" y="8" type="move" name="ogonek"/>
    </contour>
    <contour>
      <point x="398" y="680" type="move" name="top"/>
    </contour>
  </outline>
</glyph>
<glyph name="Y" format="1">
  <advance width="680"/>
  <unicode hex="0059"/>
  <outline>
    <contour>
      <point x="441" y="680" type="line"/>
      <point x="441" y="623" type="line"/>
      <point x="510" y="594" type="line"/>
      <point x="340" y="325" type="line"/>
      <point x="355" y="325" type="line"/>
      <point x="184" y="594" type="line"/>
      <point x="254" y="623" type="line"/>
      <point x="254" y="680" type="line"/>
      <point x="20" y="680" type="line"/>
      <point x="20" y="623" type="line"/>
      <point x="85" y="594" type="line"/>
      <point x="297" y="267" type="line"/>
      <point x="297" y="85" type="line"/>
      <point x="213" y="55" type="line"/>
      <point x="213" y="0" type="line"/>
      <point x="467" y="0" type="line"/>
      <point x="467" y="55" type="line"/>
      <point x="383" y="85" type="line"/>
      <point x="383" y="267" type="line"/>
      <point x="596" y="594" type="line"/>
      <point x="660" y="623" type="line"/>
      <point x="660" y="680" type="line"/>
    </contour>
    <contour>
      <point x="348" y="680" type="move" name="top"/>
    </contour>
  </outline>
</glyph>
<glyph name="Z" format="1">
  <advance width="674"/>
  <unicode hex="005A"/>
  <outline>
    <contour>
      <point x="65" y="680" type="line"/>
      <point x="65" y="503" type="line"/>
      <point x="124" y="503" type="line"/>
      <point x="150" y="608" type="line"/>
      <point x="557" y="608" type="line"/>
      <point x="544" y="638" type="line"/>
      <point x="60" y="85" type="line"/>
      <point x="60" y="0" type="line"/>
      <point x="624" y="0" type="line"/>
      <point x="624" y="187" type="line"/>
      <point x="565" y="187" type="line"/>
      <point x="539" y="72" type="line"/>
      <point x="118" y="72" type="line"/>
      <point x="131" y="43" type="line"/>
      <point x="614" y="595" type="line"/>
      <point x="614" y="680" type="line"/>
    </contour>
    <contour>
      <point x="340" y="680" type="move" name="top"/>
    </contour>
  </outline>
</glyph>
<glyph name="bracketleft" format="1">
  <advance width="395"/>
  <unicode hex="005B"/>
  <outline>
    <contour>
      <point x="109" y="716" type="line"/>
      <point x="109" y="-224" type="line"/>
      <point x="355" y="-224" type="line"/>
      <point x="355" y="-152" type="line"/>
      <point x="195" y="-152" type="line"/>
      <point x="195" y="644" type="line"/>
      <point x="355" y="644" type="line"/>
      <point x="355" y="716" type="line"/>
    </contour>
  </outline>
</glyph>
<glyph name="asciicircum" format="1">
  <advance width="582"/>
  <unicode hex="005E"/>
  <outline>
    <contour>
      <point x="132" y="389" type="line"/>
      <point x="311" y="630" type="line"/>
      <point x="271" y="630" type="line"/>
      <point x="450" y="389" type="line"/>
      <point x="534" y="389" type="line"/>
      <point x="328" y="692" type="line"/>
      <point x="254" y="692" type="line"/>
      <point x="48" y="389" type="line"/>
    </contour>
  </outline>
</glyph>
<glyph name="underscore" format="1">
  <advance width="475"/>
  <unicode hex="005F"/>
  <outline>
    <contour>
      <point x="0" y="-127" type="line"/>
      <point x="475" y="-127" type="line"/>
      <point x="475" y="-55" type="line"/>
      <point x="0" y="-55" type="line"/>
    </contour>
  </outline>
</glyph>
<glyph name="f" format="1">
  <advance width="342"/>
  <unicode hex="0066"/>
  <outline>
    <contour>
      <point x="177" y="718"/>
      <point x="114" y="664"/>
      <point x="114" y="550" type="curve" smooth="yes"/>
      <point x="114" y="502" type="line"/>
      <point x="46" y="488" type="line"/>
      <point x="46" y="432" type="line"/>
      <point x="114" y="432" type="line"/>
      <point x="114" y="85" type="line"/>
      <point x="46" y="55" type="line"/>
      <point x="46" y="0" type="line"/>
      <point x="291" y="0" type="line"/>
      <point x="291" y="55" type="line"/>
      <point x="198" y="85" type="line"/>
      <point x="198" y="432" type="line"/>
      <point x="291" y="432" type="line"/>
      <point x="291" y="502" type="line"/>
      <point x="198" y="502" type="line"/>
      <point x="198" y="576" type="line" smooth="yes"/>
      <point x="198" y="625"/>
      <point x="222" y="656"/>
      <point x="279" y="656" type="curve"/>
      <point x="306" y="597" type="line"/>
      <point x="358" y="597"/>
      <point x="377" y="616"/>
      <point x="377" y="651" type="curve" smooth="yes"/>
      <point x="377" y="697"/>
      <point x="352" y="718"/>
      <point x="290" y="718" type="curve" smooth="yes"/>
    </contour>
  </outline>
</glyph>
<glyph name="g" format="1">
  <advance width="566"/>
  <unicode hex="0067"/>
  <outline>
    <contour>
      <point x="131" y="516"/>
      <point x="47" y="457"/>
      <point x="47" y="336" type="curve" smooth="yes"/>
      <point x="47" y="210"/>
      <point x="132" y="156"/>
      <point x="266" y="156" type="curve" smooth="yes"/>
      <point x="402" y="156"/>
      <point x="486" y="207"/>
      <point x="486" y="336" type="curve" smooth="yes"/>
      <point x="486" y="452"/>
      <point x="401" y="516"/>
      <point x="266" y="516" type="curve" smooth="yes"/>
    </contour>
    <contour>
      <point x="379" y="451"/>
      <point x="402" y="414"/>
      <point x="402" y="336" type="curve" smooth="yes"/>
      <point x="402" y="258"/>
      <point x="379" y="221"/>
      <point x="266" y="221" type="curve" smooth="yes"/>
      <point x="153" y="221"/>
      <point x="130" y="257"/>
      <point x="130" y="336" type="curve" smooth="yes"/>
      <point x="130" y="413"/>
      <point x="153" y="451"/>
      <point x="266" y="451" type="curve" smooth="yes"/>
    </contour>
    <contour>
      <point x="541" y="445" type="line"/>
      <point x="541" y="502" type="line"/>
      <point x="334" y="502" type="line"/>
      <point x="453" y="417" type="line"/>
    </contour>
    <contour>
      <point x="61" y="199"/>
      <point x="37" y="165"/>
      <point x="37" y="118" type="curve" smooth="yes"/>
      <point x="37" y="68"/>
      <point x="61" y="32"/>
      <point x="114" y="18" type="curve"/>
      <point x="114" y="28" type="line"/>
      <point x="51" y="16"/>
      <point x="22" y="-24"/>
      <point x="22" y="-79" type="curve" smooth="yes"/>
      <point x="22" y="-138"/>
      <point x="43" y="-174"/>
      <point x="89" y="-198" type="curve" smooth="yes"/>
      <point x="137" y="-223"/>
      <point x="212" y="-234"/>
      <point x="286" y="-234" type="curve" smooth="yes"/>
      <point x="457" y="-234"/>
      <point x="541" y="-179"/>
      <point x="541" y="-62" type="curve" smooth="yes"/>
      <point x="541" y="35"/>
      <point x="501" y="78"/>
      <point x="388" y="78" type="curve" smooth="yes"/>
      <point x="204" y="78" type="line" smooth="yes"/>
      <point x="133" y="78"/>
      <point x="110" y="95"/>
      <point x="110" y="132" type="curve" smooth="yes"/>
      <point x="110" y="157"/>
      <point x="123" y="181"/>
      <point x="157" y="197" type="curve"/>
      <point x="113" y="217" type="line"/>
    </contour>
    <contour>
      <point x="440" y="0"/>
      <point x="458" y="-18"/>
      <point x="458" y="-72" type="curve" smooth="yes"/>
      <point x="458" y="-140"/>
      <point x="428" y="-167"/>
      <point x="304" y="-167" type="curve" smooth="yes"/>
      <point x="145" y="-167"/>
      <point x="100" y="-136"/>
      <point x="100" y="-71" type="curve" smooth="yes"/>
      <point x="100" y="-23"/>
      <point x="124" y="0"/>
      <point x="169" y="0" type="curve" smooth="yes"/>
      <point x="381" y="0" type="line" smooth="yes"/>
    </contour>
    <contour>
      <point x="294" y="502" type="move" name="top"/>
    </contour>
  </outline>
</glyph>
<glyph name="h" format="1">
  <advance width="663"/>
  <unicode hex="0068"/>
  <outline>
    <contour>
      <point x="46" y="710" type="line"/>
      <point x="46" y="653" type="line"/>
      <point x="114" y="625" type="line"/>
      <point x="114" y="85" type="line"/>
      <point x="46" y="55" type="line"/>
      <point x="46" y="0" type="line"/>
      <point x="266" y="0" type="line"/>
      <point x="266" y="55" type="line"/>
      <point x="198" y="85" type="line"/>
      <point x="198" y="402" type="line"/>
      <point x="268" y="427"/>
      <point x="313" y="443"/>
      <point x="364" y="443" type="curve" smooth="yes"/>
      <point x="435" y="443"/>
      <point x="476" y="412"/>
      <point x="476" y="331" type="curve" smooth="yes"/>
      <point x="476" y="0" type="line"/>
      <point x="628" y="0" type="line"/>
      <point x="628" y="55" type="line"/>
      <point x="560" y="85" type="line"/>
      <point x="560" y="320" type="line" smooth="yes"/>
      <point x="560" y="462"/>
      <point x="517" y="516"/>
      <point x="391" y="516" type="curve" smooth="yes"/>
      <point x="319" y="516"/>
      <point x="252" y="498"/>
      <point x="171" y="452" type="curve"/>
      <point x="198" y="452" type="line"/>
      <point x="198" y="710" type="line"/>
    </contour>
  </outline>
</glyph>
<glyph name="k" format="1">
  <advance width="643"/>
  <unicode hex="006B"/>
  <outline>
    <contour>
      <point x="46" y="710" type="line"/>
      <point x="46" y="653" type="line"/>
      <point x="114" y="625" type="line"/>
      <point x="114" y="85" type="line"/>
      <point x="46" y="55" type="line"/>
      <point x="46" y="0" type="line"/>
      <point x="266" y="0" type="line"/>
      <point x="266" y="55" type="line"/>
      <point x="198" y="85" type="line"/>
      <point x="198" y="710" type="line"/>
    </contour>
    <contour>
      <point x="346" y="502" type="line"/>
      <point x="346" y="445" type="line"/>
      <point x="445" y="419" type="line"/>
      <point x="445" y="440" type="line"/>
      <point x="178" y="237" type="line"/>
      <point x="178" y="150" type="line"/>
      <point x="529" y="417" type="line"/>
      <point x="597" y="445" type="line"/>
      <point x="597" y="502" type="line"/>
    </contour>
    <contour>
      <point x="287" y="279" type="line"/>
      <point x="521" y="0" type="line"/>
      <point x="628" y="0" type="line"/>
      <point x="628" y="55" type="line"/>
      <point x="560" y="85" type="line"/>
      <point x="354" y="328" type="line"/>
    </contour>
    <contour>
      <point x="394" y="0" type="move" name="bottom"/>
    </contour>
  </outline>
</glyph>
<glyph name="n" format="1">
  <advance width="663"/>
  <unicode hex="006E"/>
  <outline>
    <contour>
      <point x="319" y="516"/>
      <point x="251" y="497"/>
      <point x="172" y="455" type="curve"/>
      <point x="193" y="446" type="line"/>
      <point x="157" y="502" type="line"/>
      <point x="46" y="502" type="line"/>
      <point x="46" y="445" type="line"/>
      <point x="114" y="417" type="line"/>
      <point x="114" y="85" type="line"/>
      <point x="46" y="55" type="line"/>
      <point x="46" y="0" type="line"/>
      <point x="276" y="0" type="line"/>
      <point x="276" y="55" type="line"/>
      <point x="198" y="85" type="line"/>
      <point x="198" y="402" type="line"/>
      <point x="268" y="427"/>
      <point x="313" y="443"/>
      <point x="364" y="443" type="curve" smooth="yes"/>
      <point x="435" y="443"/>
      <point x="476" y="412"/>
      <point x="476" y="331" type="curve" smooth="yes"/>
      <point x="476" y="0" type="line"/>
      <point x="628" y="0" type="line"/>
      <point x="628" y="55" type="line"/>
      <point x="560" y="85" type="line"/>
      <point x="560" y="320" type="line" smooth="yes"/>
      <point x="560" y="462"/>
      <point x="517" y="516"/>
      <point x="391" y="516" type="curve" smooth="yes"/>
    </contour>
    <contour>
      <point x="337" y="502" type="move" name="top"/>
    </contour>
    <contour>
      <point x="337" y="0" type="move" name="bottom"/>
    </contour>
  </outline>
</glyph>
<glyph name="o" format="1">
  <advance width="590"/>
  <unicode hex="006F"/>
  <outline>
    <contour>
      <point x="154" y="516"/>
      <point x="41" y="446"/>
      <point x="41" y="251" type="curve" smooth="yes"/>
      <point x="41" y="56"/>
      <point x="153" y="-14"/>
      <point x="295" y="-14" type="curve" smooth="yes"/>
      <point x="437" y="-14"/>
      <point x="549" y="56"/>
      <point x="549" y="251" type="curve" smooth="yes"/>
      <point x="549" y="446"/>
      <point x="436" y="516"/>
      <point x="295" y="516" type="curve" smooth="yes"/>
    </contour>
    <contour>
      <point x="410" y="444"/>
      <point x="461" y="402"/>
      <point x="461" y="251" type="curve" smooth="yes"/>
      <point x="461" y="100"/>
      <point x="410" y="58"/>
      <point x="295" y="58" type="curve" smooth="yes"/>
      <point x="180" y="58"/>
      <point x="129" y="100"/>
      <point x="129" y="251" type="curve" smooth="yes"/>
      <point x="129" y="402"/>
      <point x="180" y="444"/>
      <point x="295" y="444" type="curve" smooth="yes"/>
    </contour>
    <contour>
      <point x="295" y="502" type="move" name="top"/>
    </contour>
  </outline>
</glyph>
<glyph name="p" format="1">
  <advance width="625"/>
  <unicode hex="0070"/>
  <outline>
    <contour>
      <point x="308" y="516"/>
      <point x="246" y="499"/>
      <point x="169" y="449" type="curve"/>
      <point x="183" y="446" type="line"/>
      <point x="147" y="502" type="line"/>
      <point x="36" y="502" type="line"/>
      <point x="36" y="445" type="line"/>
      <point x="104" y="417" type="line"/>
      <point x="104" y="-139" type="line"/>
      <point x="36" y="-169" type="line"/>
      <point x="36" y="-224" type="line"/>
      <point x="266" y="-224" type="line"/>
      <point x="266" y="-169" type="line"/>
      <point x="188" y="-139" type="line"/>
      <point x="188" y="90" type="line"/>
      <point x="165" y="90" type="line"/>
      <point x="224" y="21"/>
      <point x="289" y="-10"/>
      <point x="380" y="-10" type="curve" smooth="yes"/>
      <point x="510" y="-10"/>
      <point x="579" y="47"/>
      <point x="579" y="249" type="curve" smooth="yes"/>
      <point x="579" y="446"/>
      <point x="497" y="516"/>
      <point x="371" y="516" type="curve" smooth="yes"/>
    </contour>
    <contour>
      <point x="454" y="443"/>
      <point x="491" y="374"/>
      <point x="491" y="241" type="curve" smooth="yes"/>
      <point x="491" y="101"/>
      <point x="450" y="63"/>
      <point x="363" y="63" type="curve" smooth="yes"/>
      <point x="297" y="63"/>
      <point x="241" y="86"/>
      <point x="188" y="128" type="curve"/>
      <point x="188" y="402" type="line"/>
      <point x="252" y="425"/>
      <point x="299" y="443"/>
      <point x="351" y="443" type="curve" smooth="yes"/>
    </contour>
  </outline>
</glyph>
<glyph name="q" format="1">
  <advance width="624"/>
  <unicode hex="0071"/>
  <outline>
    <contour>
      <point x="128" y="516"/>
      <point x="46" y="446"/>
      <point x="46" y="249" type="curve" smooth="yes"/>
      <point x="46" y="47"/>
      <point x="115" y="-10"/>
      <point x="245" y="-10" type="curve" smooth="yes"/>
      <point x="336" y="-10"/>
      <point x="401" y="21"/>
      <point x="460" y="90" type="curve"/>
      <point x="437" y="90" type="line"/>
      <point x="437" y="-139" type="line"/>
      <point x="359" y="-169" type="line"/>
      <point x="359" y="-224" type="line"/>
      <point x="589" y="-224" type="line"/>
      <point x="589" y="-169" type="line"/>
      <point x="521" y="-139" type="line"/>
      <point x="521" y="502" type="line"/>
      <point x="478" y="502" type="line"/>
      <point x="442" y="446" type="line"/>
      <point x="461" y="446" type="line"/>
      <point x="378" y="500"/>
      <point x="317" y="516"/>
      <point x="254" y="516" type="curve" smooth="yes"/>
    </contour>
    <contour>
      <point x="326" y="443"/>
      <point x="373" y="425"/>
      <point x="437" y="402" type="curve"/>
      <point x="437" y="128" type="line"/>
      <point x="384" y="86"/>
      <point x="328" y="63"/>
      <point x="262" y="63" type="curve" smooth="yes"/>
      <point x="175" y="63"/>
      <point x="134" y="101"/>
      <point x="134" y="241" type="curve" smooth="yes"/>
      <point x="134" y="374"/>
      <point x="171" y="443"/>
      <point x="274" y="443" type="curve" smooth="yes"/>
    </contour>
  </outline>
</glyph>
<glyph name="r" format="1">
  <advance width="444"/>
  <unicode hex="0072"/>
  <outline>
    <contour>
      <point x="307" y="518"/>
      <point x="242" y="495"/>
      <point x="171" y="417" type="curve"/>
      <point x="214" y="412" type="line"/>
      <point x="157" y="502" type="line"/>
      <point x="46" y="502" type="line"/>
      <point x="46" y="445" type="line"/>
      <point x="114" y="417" type="line"/>
      <point x="114" y="85" type="line"/>
      <point x="46" y="55" type="line"/>
      <point x="46" y="0" type="line"/>
      <point x="276" y="0" type="line"/>
      <point x="276" y="55" type="line"/>
      <point x="198" y="85" type="line"/>
      <point x="198" y="375" type="line"/>
      <point x="237" y="407"/>
      <point x="275" y="430"/>
      <point x="320" y="450" type="curve"/>
      <point x="308" y="453" type="line"/>
      <point x="345" y="394" type="line"/>
      <point x="393" y="394"/>
      <point x="419" y="412"/>
      <point x="419" y="458" type="curve" smooth="yes"/>
      <point x="419" y="499"/>
      <point x="401" y="518"/>
      <point x="360" y="518" type="curve" smooth="yes"/>
    </contour>
    <contour>
      <point x="233" y="502" type="move" name="top"/>
    </contour>
    <contour>
      <point x="156" y="0" type="move" name="bottom"/>
    </contour>
  </outline>
</glyph>
<glyph name="t" format="1">
  <advance width="361"/>
  <unicode hex="0074"/>
  <outline>
    <contour>
      <point x="275" y="-8"/>
      <point x="294" y="-7"/>
      <point x="311" y="-4" type="curve"/>
      <point x="311" y="66" type="line"/>
      <point x="297" y="64"/>
      <point x="283" y="64"/>
      <point x="265" y="64" type="curve" smooth="yes"/>
      <point x="205" y="64"/>
      <point x="188" y="79"/>
      <point x="188" y="123" type="curve" smooth="yes"/>
      <point x="188" y="432" type="line"/>
      <point x="311" y="432" type="line"/>
      <point x="311" y="502" type="line"/>
      <point x="188" y="502" type="line"/>
      <point x="188" y="647" type="line"/>
      <point x="134" y="647" type="line"/>
      <point x="104" y="502" type="line"/>
      <point x="36" y="488" type="line"/>
      <point x="36" y="432" type="line"/>
      <point x="104" y="432" type="line"/>
      <point x="104" y="125" type="line" smooth="yes"/>
      <point x="104" y="31"/>
      <point x="146" y="-8"/>
      <point x="248" y="-8" type="curve" smooth="yes"/>
    </contour>
    <contour>
      <point x="181" y="251" type="move" name="center"/>
    </contour>
    <contour>
      <point x="208" y="0" type="move" name="bottom"/>
    </contour>
    <contour>
      <point x="270" y="502" type="move" name="topright"/>
    </contour>
  </outline>
</glyph>
<glyph name="u" format="1">
  <advance width="648"/>
  <unicode hex="0075"/>
  <outline>
    <contour>
      <point x="393" y="502" type="line"/>
      <point x="393" y="447" type="line"/>
      <point x="461" y="419" type="line"/>
      <point x="461" y="100" type="line"/>
      <point x="391" y="75"/>
      <point x="346" y="59"/>
      <point x="295" y="59" type="curve" smooth="yes"/>
      <point x="224" y="59"/>
      <point x="183" y="90"/>
      <point x="183" y="171" type="curve" smooth="yes"/>
      <point x="183" y="502" type="line"/>
      <point x="31" y="502" type="line"/>
      <point x="31" y="447" type="line"/>
      <point x="99" y="417" type="line"/>
      <point x="99" y="182" type="line" smooth="yes"/>
      <point x="99" y="40"/>
      <point x="141" y="-14"/>
      <point x="268" y="-14" type="curve" smooth="yes"/>
      <point x="342" y="-14"/>
      <point x="411" y="5"/>
      <point x="504" y="56" type="curve"/>
      <point x="466" y="56" type="line"/>
      <point x="502" y="0" type="line"/>
      <point x="613" y="0" type="line"/>
      <point x="613" y="57" type="line"/>
      <point x="545" y="85" type="line"/>
      <point x="545" y="502" type="line"/>
    </contour>
    <contour>
      <point x="525" y="10" type="move" name="ogonek"/>
    </contour>
    <contour>
      <point x="322" y="502" type="move" name="top"/>
    </contour>
  </outline>
</glyph>
<glyph name="v" format="1">
  <advance width="589"/>
  <unicode hex="0076"/>
  <outline>
    <contour>
      <point x="579" y="502" type="line"/>
      <point x="378" y="502" type="line"/>
      <point x="378" y="446" type="line"/>
      <point x="446" y="419" type="line"/>
      <point x="288" y="38" type="line"/>
      <point x="318" y="38" type="line"/>
      <point x="160" y="419" type="line"/>
      <point x="228" y="446" type="line"/>
      <point x="228" y="502" type="line"/>
      <point x="10" y="502" type="line"/>
      <point x="10" y="446" type="line"/>
      <point x="68" y="418" type="line"/>
      <point x="247" y="0" type="line"/>
      <point x="343" y="0" type="line"/>
      <point x="521" y="418" type="line"/>
      <point x="579" y="446" type="line"/>
    </contour>
  </outline>
</glyph>
<glyph name="x" format="1">
  <advance width="632"/>
  <unicode hex="0078"/>
  <outline>
    <contour>
      <point x="25" y="502" type="line"/>
      <point x="25" y="445" type="line"/>
      <point x="83" y="417" type="line"/>
      <point x="437" y="85" type="line"/>
      <point x="379" y="55" type="line"/>
      <point x="379" y="0" type="line"/>
      <point x="607" y="0" type="line"/>
      <point x="607" y="55" type="line"/>
      <point x="547" y="85" type="line"/>
      <point x="194" y="417" type="line"/>
      <point x="252" y="445" type="line"/>
      <point x="252" y="502" type="line"/>
    </contour>
    <contour>
      <point x="85" y="85" type="line"/>
      <point x="25" y="55" type="line"/>
      <point x="25" y="0" type="line"/>
      <point x="243" y="0" type="line"/>
      <point x="243" y="55" type="line"/>
      <point x="185" y="85" type="line"/>
      <point x="316" y="216" type="line"/>
      <point x="272" y="260" type="line"/>
    </contour>
    <contour>
      <point x="391" y="502" type="line"/>
      <point x="391" y="445" type="line"/>
      <point x="449" y="417" type="line"/>
      <point x="316" y="286" type="line"/>
      <point x="359" y="241" type="line"/>
      <point x="549" y="417" type="line"/>
      <point x="607" y="445" type="line"/>
      <point x="607" y="502" type="line"/>
    </contour>
  </outline>
</glyph>
<glyph name="braceleft" format="1">
  <advance width="465"/>
  <unicode hex="007B"/>
  <outline>
    <contour>
      <point x="293" y="716" type="line" smooth="yes"/>
      <point x="219" y="716"/>
      <point x="179" y="679"/>
      <point x="179" y="605" type="curve" smooth="yes"/>
      <point x="179" y="417" type="line" smooth="yes"/>
      <point x="179" y="316"/>
      <point x="159" y="293"/>
      <point x="15" y="285" type="curve"/>
      <point x="15" y="207" type="line"/>
      <point x="159" y="199"/>
      <point x="179" y="175"/>
      <point x="179" y="75" type="curve" smooth="yes"/>
      <point x="179" y="-113" type="line" smooth="yes"/>
      <point x="179" y="-187"/>
      <point x="219" y="-224"/>
      <point x="293" y="-224" type="curve" smooth="yes"/>
      <point x="425" y="-224" type="line"/>
      <point x="425" y="-152" type="line"/>
      <point x="305" y="-152" type="line" smooth="yes"/>
      <point x="274" y="-152"/>
      <point x="265" y="-143"/>
      <point x="265" y="-106" type="curve" smooth="yes"/>
      <point x="265" y="94" type="line" smooth="yes"/>
      <point x="265" y="187"/>
      <point x="227" y="241"/>
      <point x="134" y="244" type="curve"/>
      <point x="134" y="248" type="line"/>
      <point x="227" y="251"/>
      <point x="265" y="305"/>
      <point x="265" y="398" type="curve" smooth="yes"/>
      <point x="265" y="598" type="line" smooth="yes"/>
      <point x="265" y="635"/>
      <point x="274" y="644"/>
      <point x="305" y="644" type="curve" smooth="yes"/>
      <point x="425" y="644" type="line"/>
      <point x="425" y="716" type="line"/>
    </contour>
  </outline>
</glyph>
<glyph name="bar" format="1">
  <advance width="500"/>
  <unicode hex="007C"/>
  <outline>
    <contour>
      <point x="208" y="798" type="line"/>
      <point x="208" y="-118" type="line"/>
      <point x="292" y="-118" type="line"/>
      <point x="292" y="798" type="line"/>
    </contour>
  </outline>
</glyph>
<glyph name="asciitilde" format="1">
  <advance width="582"/>
  <unicode hex="007E"/>
  <outline>
    <contour>
      <point x="484" y="194"/>
      <point x="518" y="241"/>
      <point x="518" y="348" type="curve"/>
      <point x="450" y="348" type="line"/>
      <point x="450" y="290"/>
      <point x="437" y="264"/>
      <point x="402" y="264" type="curve" smooth="yes"/>
      <point x="372" y="264"/>
      <point x="355" y="276"/>
      <point x="303" y="309" type="curve" smooth="yes"/>
      <point x="251" y="342"/>
      <point x="217" y="354"/>
      <point x="182" y="354" type="curve" smooth="yes"/>
      <point x="98" y="354"/>
      <point x="64" y="307"/>
      <point x="64" y="200" type="curve"/>
      <point x="132" y="200" type="line"/>
      <point x="132" y="258"/>
      <point x="145" y="284"/>
      <point x="180" y="284" type="curve" smooth="yes"/>
      <point x="210" y="284"/>
      <point x="227" y="272"/>
      <point x="279" y="239" type="curve" smooth="yes"/>
      <point x="331" y="206"/>
      <point x="365" y="194"/>
      <point x="400" y="194" type="curve" smooth="yes"/>
    </contour>
  </outline>
</glyph>
<glyph name="exclamdown" format="1">
  <advance width="280"/>
  <unicode hex="00A1"/>
  <outline>
    <contour>
      <point x="183" y="-184"/>
      <point x="202" y="-164"/>
      <point x="202" y="-119" type="curve" smooth="yes"/>
      <point x="202" y="-64"/>
      <point x="182" y="113"/>
      <point x="160" y="308" type="curve"/>
      <point x="120" y="308" type="line"/>
      <point x="98" y="113"/>
      <point x="78" y="-64"/>
      <point x="78" y="-119" type="curve" smooth="yes"/>
      <point x="78" y="-164"/>
      <point x="97" y="-184"/>
      <point x="140" y="-184" type="curve" smooth="yes"/>
    </contour>
    <contour>
      <point x="182" y="380"/>
      <point x="208" y="404"/>
      <point x="208" y="448" type="curve" smooth="yes"/>
      <point x="208" y="492"/>
      <point x="182" y="516"/>
      <point x="140" y="516" type="curve" smooth="yes"/>
      <point x="98" y="516"/>
      <point x="72" y="492"/>
      <point x="72" y="448" type="curve" smooth="yes"/>
      <point x="72" y="404"/>
      <point x="98" y="380"/>
      <point x="140" y="380" type="curve" smooth="yes"/>
    </contour>
  </outline>
</glyph>
<glyph name="cent" format="1">
  <advance width="525"/>
  <unicode hex="00A2"/>
  <outline>
    <contour>
      <point x="325" y="648" type="line"/>
      <point x="219" y="-100" type="line"/>
      <point x="283" y="-100" type="line"/>
      <point x="389" y="648" type="line"/>
    </contour>
    <contour>
      <point x="149" y="528"/>
      <point x="50" y="457"/>
      <point x="50" y="273" type="curve" smooth="yes"/>
      <point x="50" y="78"/>
      <point x="157" y="20"/>
      <point x="315" y="20" type="curve" smooth="yes"/>
      <point x="373" y="20"/>
      <point x="432" y="29"/>
      <point x="475" y="46" type="curve"/>
      <point x="475" y="116" type="line"/>
      <point x="423" y="98"/>
      <point x="378" y="92"/>
      <point x="319" y="92" type="curve" smooth="yes"/>
      <point x="192" y="92"/>
      <point x="138" y="125"/>
      <point x="138" y="276" type="curve" smooth="yes"/>
      <point x="138" y="414"/>
      <point x="177" y="458"/>
      <point x="350" y="458" type="curve"/>
      <point x="392" y="363" type="line"/>
      <point x="457" y="363"/>
      <point x="485" y="393"/>
      <point x="485" y="444" type="curve" smooth="yes"/>
      <point x="485" y="500"/>
      <point x="449" y="528"/>
      <point x="333" y="528" type="curve" smooth="yes"/>
    </contour>
  </outline>
</glyph>
<glyph name="sterling" format="1">
  <advance width="584"/>
  <unicode hex="00A3"/>
  <outline>
    <contour>
      <point x="167" y="563"/>
      <point x="77" y="505"/>
      <point x="77" y="392" type="curve" smooth="yes"/>
      <point x="77" y="282"/>
      <point x="162" y="260"/>
      <point x="162" y="114" type="curve" smooth="yes"/>
      <point x="162" y="26"/>
      <point x="131" y="4"/>
      <point x="25" y="4" type="curve"/>
      <point x="25" y="-68" type="line"/>
      <point x="157" y="-68"/>
      <point x="175" y="-34"/>
      <point x="229" y="-34" type="curve" smooth="yes"/>
      <point x="286" y="-34"/>
      <point x="300" y="-72"/>
      <point x="398" y="-72" type="curve" smooth="yes"/>
      <point x="509" y="-72"/>
      <point x="554" y="-22"/>
      <point x="554" y="113" type="curve"/>
      <point x="470" y="113" type="line"/>
      <point x="470" y="28"/>
      <point x="442" y="0"/>
      <point x="382" y="0" type="curve" smooth="yes"/>
      <point x="314" y="0"/>
      <point x="291" y="34"/>
      <point x="254" y="34" type="curve" smooth="yes"/>
      <point x="241" y="34"/>
      <point x="228" y="30"/>
      <point x="214" y="24" type="curve"/>
      <point x="212" y="26" type="line"/>
      <point x="233" y="51"/>
      <point x="243" y="85"/>
      <point x="243" y="129" type="curve" smooth="yes"/>
      <point x="243" y="253"/>
      <point x="165" y="289"/>
      <point x="165" y="382" type="curve" smooth="yes"/>
      <point x="165" y="451"/>
      <point x="208" y="491"/>
      <point x="313" y="491" type="curve" smooth="yes"/>
      <point x="344" y="491"/>
      <point x="376" y="488"/>
      <point x="401" y="475" type="curve"/>
      <point x="377" y="494" type="line"/>
      <point x="429" y="378" type="line"/>
      <point x="498" y="378"/>
      <point x="524" y="412"/>
      <point x="524" y="455" type="curve" smooth="yes"/>
      <point x="524" y="519"/>
      <point x="468" y="563"/>
      <point x="323" y="563" type="curve" smooth="yes"/>
    </contour>
    <contour>
      <point x="40" y="255" type="line"/>
      <point x="40" y="185" type="line"/>
      <point x="386" y="185" type="line"/>
      <point x="386" y="255" type="line"/>
    </contour>
    <contour>
      <point x="215" y="24" type="move"/>
    </contour>
  </outline>
</glyph>
<glyph name="section" format="1">
  <advance width="586"/>
  <unicode hex="00A7"/>
  <outline>
    <contour>
      <point x="111" y="692"/>
      <point x="50" y="633"/>
      <point x="50" y="509" type="curve" smooth="yes"/>
      <point x="50" y="422"/>
      <point x="80" y="369"/>
      <point x="198" y="342" type="curve" smooth="yes"/>
      <point x="222" y="337"/>
      <point x="344" y="311"/>
      <point x="373" y="304" type="curve" smooth="yes"/>
      <point x="430" y="290"/>
      <point x="455" y="273"/>
      <point x="455" y="218" type="curve" smooth="yes"/>
      <point x="455" y="175"/>
      <point x="440" y="133"/>
      <point x="405" y="103" type="curve"/>
      <point x="460" y="78" type="line"/>
      <point x="499" y="111"/>
      <point x="535" y="159"/>
      <point x="535" y="235" type="curve" smooth="yes"/>
      <point x="535" y="328"/>
      <point x="482" y="363"/>
      <point x="406" y="382" type="curve" smooth="yes"/>
      <point x="377" y="389"/>
      <point x="259" y="415"/>
      <point x="222" y="424" type="curve" smooth="yes"/>
      <point x="160" y="440"/>
      <point x="136" y="456"/>
      <point x="136" y="515" type="curve" smooth="yes"/>
      <point x="136" y="585"/>
      <point x="170" y="618"/>
      <point x="276" y="618" type="curve" smooth="yes"/>
      <point x="332" y="618"/>
      <point x="371" y="609"/>
      <point x="395" y="597" type="curve"/>
      <point x="386" y="609" type="line"/>
      <point x="431" y="497" type="line"/>
      <point x="498" y="497"/>
      <point x="527" y="527"/>
      <point x="527" y="572" type="curve" smooth="yes"/>
      <point x="527" y="626"/>
      <point x="484" y="692"/>
      <point x="292" y="692" type="curve" smooth="yes"/>
    </contour>
    <contour>
      <point x="81" y="352"/>
      <point x="51" y="303"/>
      <point x="51" y="232" type="curve" smooth="yes"/>
      <point x="51" y="143"/>
      <point x="99" y="106"/>
      <point x="180" y="86" type="curve" smooth="yes"/>
      <point x="210" y="79"/>
      <point x="327" y="53"/>
      <point x="364" y="44" type="curve" smooth="yes"/>
      <point x="433" y="27"/>
      <point x="450" y="5"/>
      <point x="450" y="-45" type="curve" smooth="yes"/>
      <point x="450" y="-115"/>
      <point x="416" y="-150"/>
      <point x="307" y="-150" type="curve" smooth="yes"/>
      <point x="251" y="-150"/>
      <point x="215" y="-141"/>
      <point x="191" y="-129" type="curve"/>
      <point x="200" y="-141" type="line"/>
      <point x="155" y="-29" type="line"/>
      <point x="88" y="-29"/>
      <point x="59" y="-59"/>
      <point x="59" y="-105" type="curve" smooth="yes"/>
      <point x="59" y="-158"/>
      <point x="98" y="-224"/>
      <point x="290" y="-224" type="curve" smooth="yes"/>
      <point x="476" y="-224"/>
      <point x="536" y="-162"/>
      <point x="536" y="-40" type="curve" smooth="yes"/>
      <point x="536" y="47"/>
      <point x="505" y="99"/>
      <point x="388" y="126" type="curve" smooth="yes"/>
      <point x="365" y="131"/>
      <point x="242" y="157"/>
      <point x="213" y="164" type="curve" smooth="yes"/>
      <point x="156" y="178"/>
      <point x="131" y="195"/>
      <point x="131" y="250" type="curve" smooth="yes"/>
      <point x="131" y="293"/>
      <point x="146" y="334"/>
      <point x="181" y="364" type="curve"/>
      <point x="126" y="390" type="line"/>
    </contour>
  </outline>
</glyph>
<glyph name="dieresis" format="1">
  <advance width="500"/>
  <unicode hex="00A8"/>
  <outline>
    <contour>
      <point x="90" y="716"/>
      <point x="65" y="691"/>
      <point x="65" y="648" type="curve" smooth="yes"/>
      <point x="65" y="605"/>
      <point x="90" y="580"/>
      <point x="133" y="580" type="curve" smooth="yes"/>
      <point x="176" y="580"/>
      <point x="201" y="605"/>
      <point x="201" y="648" type="curve" smooth="yes"/>
      <point x="201" y="691"/>
      <point x="176" y="716"/>
      <point x="133" y="716" type="curve" smooth="yes"/>
    </contour>
    <contour>
      <point x="324" y="716"/>
      <point x="299" y="691"/>
      <point x="299" y="648" type="curve" smooth="yes"/>
      <point x="299" y="605"/>
      <point x="324" y="580"/>
      <point x="367" y="580" type="curve" smooth="yes"/>
      <point x="410" y="580"/>
      <point x="435" y="605"/>
      <point x="435" y="648" type="curve" smooth="yes"/>
      <point x="435" y="691"/>
      <point x="410" y="716"/>
      <point x="367" y="716" type="curve" smooth="yes"/>
    </contour>
    <contour>
      <point x="250" y="502" type="move" name="_top"/>
    </contour>
  </outline>
</glyph>
<glyph name="copyright" format="1">
  <advance width="798"/>
  <unicode hex="00A9"/>
  <outline>
    <contour>
      <point x="192" y="692"/>
      <point x="42" y="578"/>
      <point x="42" y="340" type="curve" smooth="yes"/>
      <point x="42" y="102"/>
      <point x="192" y="-12"/>
      <point x="399" y="-12" type="curve" smooth="yes"/>
      <point x="606" y="-12"/>
      <point x="756" y="102"/>
      <point x="756" y="340" type="curve" smooth="yes"/>
      <point x="756" y="578"/>
      <point x="606" y="692"/>
      <point x="399" y="692" type="curve" smooth="yes"/>
    </contour>
    <contour>
      <point x="284" y="531"/>
      <point x="223" y="468"/>
      <point x="223" y="339" type="curve" smooth="yes"/>
      <point x="223" y="190"/>
      <point x="302" y="149"/>
      <point x="413" y="149" type="curve" smooth="yes"/>
      <point x="458" y="149"/>
      <point x="509" y="157"/>
      <point x="534" y="169" type="curve"/>
      <point x="534" y="229" type="line"/>
      <point x="495" y="216"/>
      <point x="465" y="212"/>
      <point x="418" y="212" type="curve" smooth="yes"/>
      <point x="341" y="212"/>
      <point x="293" y="232"/>
      <point x="293" y="339" type="curve" smooth="yes"/>
      <point x="293" y="438"/>
      <point x="334" y="468"/>
      <point x="431" y="468" type="curve"/>
      <point x="465" y="393" type="line"/>
      <point x="516" y="393"/>
      <point x="539" y="416"/>
      <point x="539" y="458" type="curve" smooth="yes"/>
      <point x="539" y="509"/>
      <point x="507" y="531"/>
      <point x="427" y="531" type="curve" smooth="yes"/>
    </contour>
    <contour>
      <point x="576" y="642"/>
      <point x="702" y="549"/>
      <point x="702" y="340" type="curve" smooth="yes"/>
      <point x="702" y="131"/>
      <point x="576" y="38"/>
      <point x="399" y="38" type="curve" smooth="yes"/>
      <point x="222" y="38"/>
      <point x="96" y="131"/>
      <point x="96" y="340" type="curve" smooth="yes"/>
      <point x="96" y="549"/>
      <point x="222" y="642"/>
      <point x="399" y="642" type="curve" smooth="yes"/>
    </contour>
  </outline>
</glyph>
<glyph name="registered" format="1">
  <advance width="798"/>
  <unicode hex="00AE"/>
  <outline>
    <contour>
      <point x="192" y="692"/>
      <point x="42" y="578"/>
      <point x="42" y="340" type="curve" smooth="yes"/>
      <point x="42" y="102"/>
      <point x="192" y="-12"/>
      <point x="399" y="-12" type="curve" smooth="yes"/>
      <point x="606" y="-12"/>
      <point x="756" y="102"/>
      <point x="756" y="340" type="curve" smooth="yes"/>
      <point x="756" y="578"/>
      <point x="606" y="692"/>
      <point x="399" y="692" type="curve" smooth="yes"/>
    </contour>
    <contour>
      <point x="405" y="303" type="line"/>
      <point x="511" y="153" type="line"/>
      <point x="593" y="153" type="line"/>
      <point x="593" y="198" type="line"/>
      <point x="547" y="217" type="line"/>
      <point x="483" y="303" type="line"/>
    </contour>
    <contour>
      <point x="213" y="527" type="line"/>
      <point x="213" y="483" type="line"/>
      <point x="257" y="466" type="line"/>
      <point x="257" y="217" type="line"/>
      <point x="213" y="198" type="line"/>
      <point x="213" y="153" type="line"/>
      <point x="371" y="153" type="line"/>
      <point x="371" y="198" type="line"/>
      <point x="323" y="217" type="line"/>
      <point x="323" y="294" type="line"/>
      <point x="472" y="294" type="line"/>
      <point x="544" y="294"/>
      <point x="573" y="338"/>
      <point x="573" y="412" type="curve" smooth="yes"/>
      <point x="573" y="494"/>
      <point x="538" y="527"/>
      <point x="447" y="527" type="curve" smooth="yes"/>
    </contour>
    <contour>
      <point x="576" y="642"/>
      <point x="702" y="549"/>
      <point x="702" y="340" type="curve" smooth="yes"/>
      <point x="702" y="131"/>
      <point x="576" y="38"/>
      <point x="399" y="38" type="curve" smooth="yes"/>
      <point x="222" y="38"/>
      <point x="96" y="131"/>
      <point x="96" y="340" type="curve" smooth="yes"/>
      <point x="96" y="549"/>
      <point x="222" y="642"/>
      <point x="399" y="642" type="curve" smooth="yes"/>
    </contour>
    <contour>
      <point x="490" y="472"/>
      <point x="505" y="453"/>
      <point x="505" y="408" type="curve" smooth="yes"/>
      <point x="505" y="360"/>
      <point x="488" y="349"/>
      <point x="449" y="349" type="curve" smooth="yes"/>
      <point x="323" y="349" type="line"/>
      <point x="323" y="472" type="line"/>
      <point x="449" y="472" type="line" smooth="yes"/>
    </contour>
  </outline>
</glyph>
<glyph name="plusminus" format="1">
  <advance width="582"/>
  <unicode hex="00B1"/>
  <outline>
    <contour>
      <point x="64" y="356" type="line"/>
      <point x="64" y="286" type="line"/>
      <point x="518" y="286" type="line"/>
      <point x="518" y="356" type="line"/>
    </contour>
    <contour>
      <point x="324" y="548" type="line"/>
      <point x="258" y="548" type="line"/>
      <point x="258" y="94" type="line"/>
      <point x="324" y="94" type="line"/>
    </contour>
    <contour>
      <point x="64" y="70" type="line"/>
      <point x="64" y="0" type="line"/>
      <point x="518" y="0" type="line"/>
      <point x="518" y="70" type="line"/>
    </contour>
  </outline>
</glyph>
<glyph name="acute" format="1">
  <advance width="500"/>
  <unicode hex="00B4"/>
  <outline>
    <contour>
      <point x="311" y="756" type="line"/>
      <point x="203" y="572" type="line"/>
      <point x="287" y="572" type="line"/>
      <point x="431" y="756" type="line"/>
    </contour>
    <contour>
      <point x="250" y="502" type="move" name="_top"/>
    </contour>
  </outline>
</glyph>
<glyph name="cedilla" format="1">
  <advance width="500"/>
  <unicode hex="00B8"/>
  <outline>
    <contour>
      <point x="227" y="-237" type="line" smooth="yes"/>
      <point x="370" y="-237"/>
      <point x="405" y="-211"/>
      <point x="405" y="-140" type="curve" smooth="yes"/>
      <point x="405" y="-81"/>
      <point x="380" y="-52"/>
      <point x="275" y="-52" type="curve"/>
      <point x="275" y="0" type="line"/>
      <point x="225" y="0" type="line"/>
      <point x="225" y="-98" type="line"/>
      <point x="318" y="-98"/>
      <point x="333" y="-105"/>
      <point x="333" y="-140" type="curve" smooth="yes"/>
      <point x="333" y="-177"/>
      <point x="311" y="-185"/>
      <point x="177" y="-185" type="curve"/>
      <point x="177" y="-237" type="line"/>
    </contour>
    <contour>
      <point x="250" y="0" type="move" name="_bottom"/>
    </contour>
  </outline>
</glyph>
<glyph name="ordmasculine" format="1">
  <advance width="520"/>
  <unicode hex="00BA"/>
  <outline>
    <contour>
      <point x="135" y="692"/>
      <point x="35" y="625"/>
      <point x="35" y="440" type="curve" smooth="yes"/>
      <point x="35" y="254"/>
      <point x="134" y="188"/>
      <point x="261" y="188" type="curve" smooth="yes"/>
      <point x="386" y="188"/>
      <point x="485" y="254"/>
      <point x="485" y="440" type="curve" smooth="yes"/>
      <point x="485" y="625"/>
      <point x="385" y="692"/>
      <point x="261" y="692" type="curve" smooth="yes"/>
    </contour>
    <contour>
      <point x="356" y="621"/>
      <point x="399" y="582"/>
      <point x="399" y="440" type="curve" smooth="yes"/>
      <point x="399" y="298"/>
      <point x="356" y="258"/>
      <point x="261" y="258" type="curve" smooth="yes"/>
      <point x="164" y="258"/>
      <point x="122" y="298"/>
      <point x="122" y="440" type="curve" smooth="yes"/>
      <point x="122" y="582"/>
      <point x="164" y="621"/>
      <point x="261" y="621" type="curve" smooth="yes"/>
    </contour>
  </outline>
</glyph>
<glyph name="guillemotright" format="1">
  <advance width="407"/>
  <unicode hex="00BB"/>
  <outline>
    <contour>
      <point x="192" y="452" type="line"/>
      <point x="299" y="261" type="line"/>
      <point x="192" y="70" type="line"/>
      <point x="284" y="70" type="line"/>
      <point x="385" y="251" type="line"/>
      <point x="385" y="271" type="line"/>
      <point x="284" y="452" type="line"/>
    </contour>
    <contour>
      <point x="20" y="452" type="line"/>
      <point x="127" y="261" type="line"/>
      <point x="20" y="70" type="line"/>
      <point x="112" y="70" type="line"/>
      <point x="213" y="251" type="line"/>
      <point x="213" y="271" type="line"/>
      <point x="112" y="452" type="line"/>
    </contour>
  </outline>
</glyph>
<glyph name="AE" format="1">
  <advance width="1069"/>
  <unicode hex="00C6"/>
  <outline>
    <contour>
      <point x="226" y="296" type="line"/>
      <point x="226" y="225" type="line"/>
      <point x="556" y="225" type="line"/>
      <point x="556" y="296" type="line"/>
    </contour>
    <contour>
      <point x="66" y="85" type="line"/>
      <point x="-15" y="55" type="line"/>
      <point x="-15" y="0" type="line"/>
      <point x="204" y="0" type="line"/>
      <point x="204" y="55" type="line"/>
      <point x="149" y="82" type="line"/>
      <point x="509" y="608" type="line"/>
      <point x="519" y="608" type="line"/>
      <point x="519" y="85" type="line"/>
      <point x="445" y="55" type="line"/>
      <point x="445" y="0" type="line"/>
      <point x="1015" y="0" type="line"/>
      <point x="1015" y="187" type="line"/>
      <point x="956" y="187" type="line"/>
      <point x="930" y="72" type="line"/>
      <point x="605" y="72" type="line"/>
      <point x="605" y="306" type="line"/>
      <point x="789" y="306" type="line"/>
      <point x="804" y="229" type="line"/>
      <point x="859" y="229" type="line"/>
      <point x="859" y="455" type="line"/>
      <point x="804" y="455" type="line"/>
      <point x="789" y="378" type="line"/>
      <point x="605" y="378" type="line"/>
      <point x="605" y="608" type="line"/>
      <point x="930" y="608" type="line"/>
      <point x="956" y="503" type="line"/>
      <point x="1015" y="503" type="line"/>
      <point x="1015" y="680" type="line"/>
      <point x="468" y="680" type="line"/>
    </contour>
    <contour>
      <point x="562" y="680" type="move" name="top"/>
    </contour>
  </outline>
</glyph>
<glyph name="Eth" format="1">
  <advance width="761"/>
  <unicode hex="00D0"/>
  <outline>
    <contour>
      <point x="55" y="376" type="line"/>
      <point x="55" y="304" type="line"/>
      <point x="475" y="304" type="line"/>
      <point x="475" y="376" type="line"/>
    </contour>
    <component base="D"/>
  </outline>
</glyph>
<glyph name="Oslash" format="1">
  <advance width="728"/>
  <unicode hex="00D8"/>
  <outline>
    <contour>
      <point x="584" y="705" type="line"/>
      <point x="52" y="-25" type="line"/>
      <point x="145" y="-25" type="line"/>
      <point x="676" y="705" type="line"/>
    </contour>
    <component base="O"/>
  </outline>
</glyph>
<glyph name="Thorn" format="1">
  <advance width="665"/>
  <unicode hex="00DE"/>
  <outline>
    <contour>
      <point x="55" y="680" type="line"/>
      <point x="55" y="623" type="line"/>
      <point x="129" y="594" type="line"/>
      <point x="129" y="86" type="line"/>
      <point x="55" y="55" type="line"/>
      <point x="55" y="0" type="line"/>
      <point x="294" y="0" type="line"/>
      <point x="294" y="55" type="line"/>
      <point x="215" y="86" type="line"/>
      <point x="215" y="135" type="line"/>
      <point x="450" y="135" type="line" smooth="yes"/>
      <point x="591" y="135"/>
      <point x="650" y="194"/>
      <point x="650" y="340" type="curve" smooth="yes"/>
      <point x="650" y="486"/>
      <point x="591" y="545"/>
      <point x="450" y="545" type="curve" smooth="yes"/>
      <point x="215" y="545" type="line"/>
      <point x="215" y="594" type="line"/>
      <point x="294" y="623" type="line"/>
      <point x="294" y="680" type="line"/>
    </contour>
    <contour>
      <point x="530" y="473"/>
      <point x="560" y="444"/>
      <point x="560" y="340" type="curve" smooth="yes"/>
      <point x="560" y="236"/>
      <point x="530" y="207"/>
      <point x="440" y="207" type="curve" smooth="yes"/>
      <point x="215" y="207" type="line"/>
      <point x="215" y="473" type="line"/>
      <point x="440" y="473" type="line" smooth="yes"/>
    </contour>
  </outline>
</glyph>
<glyph name="germandbls" format="1">
  <advance width="590"/>
  <unicode hex="00DF"/>
  <outline>
    <contour>
      <point x="191" y="718"/>
      <point x="114" y="650"/>
      <point x="114" y="522" type="curve" smooth="yes"/>
      <point x="114" y="502" type="line"/>
      <point x="46" y="488" type="line"/>
      <point x="46" y="430" type="line"/>
      <point x="114" y="430" type="line"/>
      <point x="114" y="85" type="line"/>
      <point x="46" y="55" type="line"/>
      <point x="46" y="0" type="line"/>
      <point x="198" y="0" type="line"/>
      <point x="198" y="520" type="line" smooth="yes"/>
      <point x="198" y="609"/>
      <point x="232" y="646"/>
      <point x="314" y="646" type="curve" smooth="yes"/>
      <point x="384" y="646"/>
      <point x="412" y="619"/>
      <point x="412" y="550" type="curve" smooth="yes"/>
      <point x="412" y="471"/>
      <point x="375" y="437"/>
      <point x="289" y="437" type="curve"/>
      <point x="289" y="365" type="line"/>
      <point x="309" y="365" type="line" smooth="yes"/>
      <point x="431" y="365"/>
      <point x="472" y="323"/>
      <point x="472" y="217" type="curve" smooth="yes"/>
      <point x="472" y="113"/>
      <point x="432" y="74"/>
      <point x="329" y="74" type="curve" smooth="yes"/>
      <point x="289" y="74" type="line"/>
      <point x="289" y="0" type="line"/>
      <point x="344" y="0" type="line" smooth="yes"/>
      <point x="489" y="0"/>
      <point x="560" y="77"/>
      <point x="560" y="220" type="curve" smooth="yes"/>
      <point x="560" y="332"/>
      <point x="516" y="408"/>
      <point x="391" y="418" type="curve"/>
      <point x="391" y="420" type="line"/>
      <point x="456" y="434"/>
      <point x="494" y="484"/>
      <point x="494" y="561" type="curve" smooth="yes"/>
      <point x="494" y="660"/>
      <point x="433" y="718"/>
      <point x="317" y="718" type="curve" smooth="yes"/>
    </contour>
  </outline>
</glyph>
<glyph name="ae" format="1">
  <advance width="895"/>
  <unicode hex="00E6"/>
  <outline>
    <contour>
      <point x="727" y="-14"/>
      <point x="798" y="-4"/>
      <point x="846" y="9" type="curve"/>
      <point x="846" y="81" type="line"/>
      <point x="777" y="63"/>
      <point x="723" y="58"/>
      <point x="667" y="58" type="curve" smooth="yes"/>
      <point x="548" y="58"/>
      <point x="501" y="91"/>
      <point x="492" y="224" type="curve"/>
      <point x="864" y="224" type="line"/>
      <point x="864" y="264" type="line" smooth="yes"/>
      <point x="864" y="439"/>
      <point x="768" y="516"/>
      <point x="646" y="516" type="curve" smooth="yes"/>
      <point x="570" y="516"/>
      <point x="506" y="493"/>
      <point x="468" y="440" type="curve"/>
      <point x="472" y="440" type="line"/>
      <point x="450" y="490"/>
      <point x="401" y="516"/>
      <point x="278" y="516" type="curve" smooth="yes"/>
      <point x="205" y="516"/>
      <point x="136" y="506"/>
      <point x="74" y="492" type="curve"/>
      <point x="74" y="420" type="line"/>
      <point x="139" y="435"/>
      <point x="205" y="444"/>
      <point x="276" y="444" type="curve" smooth="yes"/>
      <point x="383" y="444"/>
      <point x="408" y="413"/>
      <point x="408" y="324" type="curve" smooth="yes"/>
      <point x="408" y="285" type="line"/>
      <point x="383" y="299"/>
      <point x="336" y="314"/>
      <point x="270" y="314" type="curve" smooth="yes"/>
      <point x="114" y="314"/>
      <point x="47" y="264"/>
      <point x="47" y="147" type="curve" smooth="yes"/>
      <point x="47" y="35"/>
      <point x="108" y="-10"/>
      <point x="228" y="-10" type="curve" smooth="yes"/>
      <point x="323" y="-10"/>
      <point x="394" y="21"/>
      <point x="458" y="91" type="curve"/>
      <point x="445" y="91" type="line"/>
      <point x="483" y="13"/>
      <point x="560" y="-14"/>
      <point x="665" y="-14" type="curve" smooth="yes"/>
    </contour>
    <contour>
      <point x="156" y="62"/>
      <point x="135" y="90"/>
      <point x="135" y="153" type="curve" smooth="yes"/>
      <point x="135" y="212"/>
      <point x="162" y="244"/>
      <point x="279" y="244" type="curve" smooth="yes"/>
      <point x="317" y="244"/>
      <point x="368" y="240"/>
      <point x="408" y="228" type="curve"/>
      <point x="408" y="128" type="line"/>
      <point x="362" y="88"/>
      <point x="305" y="62"/>
      <point x="241" y="62" type="curve" smooth="yes"/>
    </contour>
    <contour>
      <point x="500" y="400"/>
      <point x="543" y="444"/>
      <point x="642" y="444" type="curve" smooth="yes"/>
      <point x="728" y="444"/>
      <point x="769" y="392"/>
      <point x="776" y="295" type="curve"/>
      <point x="492" y="295" type="line"/>
    </contour>
  </outline>
</glyph>
<glyph name="eth" format="1">
  <advance width="613"/>
  <unicode hex="00F0"/>
  <outline>
    <contour>
      <point x="169" y="656" type="line"/>
      <point x="356" y="645"/>
      <point x="460" y="527"/>
      <point x="460" y="281" type="curve" smooth="yes"/>
      <point x="460" y="107"/>
      <point x="408" y="58"/>
      <point x="293" y="58" type="curve" smooth="yes"/>
      <point x="186" y="58"/>
      <point x="128" y="100"/>
      <point x="128" y="216" type="curve" smooth="yes"/>
      <point x="128" y="334"/>
      <point x="187" y="380"/>
      <point x="274" y="380" type="curve" smooth="yes"/>
      <point x="325" y="380"/>
      <point x="389" y="364"/>
      <point x="470" y="325" type="curve"/>
      <point x="470" y="387" type="line"/>
      <point x="400" y="428"/>
      <point x="321" y="452"/>
      <point x="251" y="452" type="curve" smooth="yes"/>
      <point x="130" y="452"/>
      <point x="40" y="380"/>
      <point x="40" y="224" type="curve" smooth="yes"/>
      <point x="40" y="48"/>
      <point x="155" y="-14"/>
      <point x="288" y="-14" type="curve" smooth="yes"/>
      <point x="441" y="-14"/>
      <point x="548" y="67"/>
      <point x="548" y="285" type="curve" smooth="yes"/>
      <point x="548" y="513"/>
      <point x="432" y="708"/>
      <point x="169" y="718" type="curve"/>
    </contour>
    <contour>
      <point x="190" y="536" type="line"/>
      <point x="213" y="488" type="line"/>
      <point x="527" y="631" type="line"/>
      <point x="498" y="690" type="line"/>
    </contour>
  </outline>
</glyph>
<glyph name="oslash" format="1">
  <advance width="590"/>
  <unicode hex="00F8"/>
  <outline>
    <contour>
      <point x="452" y="536" type="line"/>
      <point x="51" y="-34" type="line"/>
      <point x="139" y="-34" type="line"/>
      <point x="539" y="536" type="line"/>
    </contour>
    <component base="o"/>
  </outline>
</glyph>
<glyph name="gcommaaccent" format="1">
  <advance width="556"/>
  <unicode hex="0123"/>
  <outline>
    <contour>
      <point x="336" y="777" type="line"/>
      <point x="272" y="777" type="line"/>
      <point x="242" y="577" type="line"/>
      <point x="336" y="577" type="line"/>
    </contour>
    <component base="g"/>
  </outline>
</glyph>
<glyph name="Lcaron" format="1">
  <advance width="649"/>
  <unicode hex="013D"/>
  <outline>
    <contour>
      <point x="447" y="470" type="line"/>
      <point x="513" y="470" type="line"/>
      <point x="545" y="680" type="line"/>
      <point x="447" y="680" type="line"/>
    </contour>
    <component base="L"/>
  </outline>
</glyph>
<glyph name="Lslash" format="1">
  <advance width="649"/>
  <unicode hex="0141"/>
  <outline>
    <contour>
      <point x="428" y="409" type="line"/>
      <point x="428" y="485" type="line"/>
      <point x="55" y="329" type="line"/>
      <point x="55" y="253" type="line"/>
    </contour>
    <contour>
      <point x="55" y="680" type="line"/>
      <point x="55" y="623" type="line"/>
      <point x="129" y="594" type="line"/>
      <point x="129" y="85" type="line"/>
      <point x="55" y="55" type="line"/>
      <point x="55" y="0" type="line"/>
      <point x="629" y="0" type="line"/>
      <point x="629" y="187" type="line"/>
      <point x="570" y="187" type="line"/>
      <point x="544" y="72" type="line"/>
      <point x="215" y="72" type="line"/>
      <point x="215" y="594" type="line"/>
      <point x="289" y="623" type="line"/>
      <point x="289" y="680" type="line"/>
    </contour>
    <contour>
      <point x="172" y="680" type="move" name="top"/>
    </contour>
    <contour>
      <point x="379" y="0" type="move" name="bottom"/>
    </contour>
    <contour>
      <point x="629" y="680" type="move" name="topright"/>
    </contour>
  </outline>
</glyph>
<glyph name="OE" format="1">
  <advance width="1121"/>
  <unicode hex="0152"/>
  <outline>
    <contour>
      <point x="438" y="-14"/>
      <point x="491" y="-7"/>
      <point x="523" y="0" type="curve"/>
      <point x="1067" y="0" type="line"/>
      <point x="1067" y="187" type="line"/>
      <point x="1008" y="187" type="line"/>
      <point x="982" y="72" type="line"/>
      <point x="657" y="72" type="line"/>
      <point x="657" y="306" type="line"/>
      <point x="841" y="306" type="line"/>
      <point x="856" y="229" type="line"/>
      <point x="911" y="229" type="line"/>
      <point x="911" y="455" type="line"/>
      <point x="856" y="455" type="line"/>
      <point x="841" y="378" type="line"/>
      <point x="657" y="378" type="line"/>
      <point x="657" y="608" type="line"/>
      <point x="982" y="608" type="line"/>
      <point x="1008" y="503" type="line"/>
      <point x="1067" y="503" type="line"/>
      <point x="1067" y="680" type="line"/>
      <point x="523" y="680" type="line"/>
      <point x="491" y="686"/>
      <point x="438" y="694"/>
      <point x="382" y="694" type="curve" smooth="yes"/>
      <point x="167" y="694"/>
      <point x="42" y="580"/>
      <point x="42" y="342" type="curve" smooth="yes"/>
      <point x="42" y="101"/>
      <point x="167" y="-14"/>
      <point x="382" y="-14" type="curve" smooth="yes"/>
    </contour>
    <contour>
      <point x="228" y="60"/>
      <point x="133" y="145"/>
      <point x="131" y="342" type="curve" smooth="yes"/>
      <point x="129" y="536"/>
      <point x="228" y="620"/>
      <point x="386" y="620" type="curve" smooth="yes"/>
      <point x="448" y="620"/>
      <point x="511" y="613"/>
      <point x="572" y="592" type="curve"/>
      <point x="572" y="88" type="line"/>
      <point x="511" y="67"/>
      <point x="448" y="60"/>
      <point x="386" y="60" type="curve" smooth="yes"/>
    </contour>
    <contour>
      <point x="615" y="680" type="move" name="top"/>
    </contour>
  </outline>
</glyph>
<glyph name="oe" format="1">
  <advance width="948"/>
  <unicode hex="0153"/>
  <outline>
    <contour>
      <point x="180" y="58"/>
      <point x="129" y="100"/>
      <point x="129" y="251" type="curve" smooth="yes"/>
      <point x="129" y="402"/>
      <point x="180" y="444"/>
      <point x="295" y="444" type="curve" smooth="yes"/>
      <point x="410" y="444"/>
      <point x="461" y="402"/>
      <point x="461" y="251" type="curve" smooth="yes"/>
      <point x="461" y="100"/>
      <point x="410" y="58"/>
      <point x="295" y="58" type="curve" smooth="yes"/>
    </contour>
    <contour>
      <point x="553" y="400"/>
      <point x="596" y="444"/>
      <point x="695" y="444" type="curve" smooth="yes"/>
      <point x="781" y="444"/>
      <point x="822" y="392"/>
      <point x="829" y="295" type="curve"/>
      <point x="545" y="295" type="line"/>
    </contour>
    <contour>
      <point x="495" y="98" type="line"/>
      <point x="532" y="13"/>
      <point x="613" y="-14"/>
      <point x="718" y="-14" type="curve" smooth="yes"/>
      <point x="780" y="-14"/>
      <point x="851" y="-4"/>
      <point x="899" y="9" type="curve"/>
      <point x="899" y="81" type="line"/>
      <point x="830" y="63"/>
      <point x="776" y="58"/>
      <point x="720" y="58" type="curve" smooth="yes"/>
      <point x="601" y="58"/>
      <point x="554" y="91"/>
      <point x="545" y="224" type="curve"/>
      <point x="917" y="224" type="line"/>
      <point x="917" y="264" type="line" smooth="yes"/>
      <point x="917" y="439"/>
      <point x="821" y="516"/>
      <point x="699" y="516" type="curve" smooth="yes"/>
      <point x="607" y="516"/>
      <point x="530" y="483"/>
      <point x="495" y="404" type="curve"/>
      <point x="502" y="404" type="line"/>
      <point x="468" y="486"/>
      <point x="400" y="516"/>
      <point x="295" y="516" type="curve" smooth="yes"/>
      <point x="154" y="516"/>
      <point x="41" y="446"/>
      <point x="41" y="251" type="curve" smooth="yes"/>
      <point x="41" y="56"/>
      <point x="153" y="-14"/>
      <point x="295" y="-14" type="curve" smooth="yes"/>
      <point x="411" y="-14"/>
      <point x="472" y="25"/>
      <point x="502" y="98" type="curve"/>
    </contour>
  </outline>
</glyph>
<glyph name="dotaccent" format="1">
  <advance width="500"/>
  <unicode hex="02D9"/>
  <outline>
    <contour>
      <point x="207" y="708"/>
      <point x="182" y="683"/>
      <point x="182" y="640" type="curve" smooth="yes"/>
      <point x="182" y="597"/>
      <point x="207" y="572"/>
      <point x="250" y="572" type="curve" smooth="yes"/>
      <point x="293" y="572"/>
      <point x="318" y="597"/>
      <point x="318" y="640" type="curve" smooth="yes"/>
      <point x="318" y="683"/>
      <point x="293" y="708"/>
      <point x="250" y="708" type="curve" smooth="yes"/>
    </contour>
    <contour>
      <point x="250" y="502" type="move" name="_top"/>
    </contour>
  </outline>
</glyph>
<glyph name="ring" format="1">
  <advance width="500"/>
  <unicode hex="02DA"/>
  <outline>
    <contour>
      <point x="332" y="562"/>
      <point x="377" y="605"/>
      <point x="377" y="680" type="curve" smooth="yes"/>
      <point x="377" y="755"/>
      <point x="332" y="798"/>
      <point x="250" y="798" type="curve" smooth="yes"/>
      <point x="168" y="798"/>
      <point x="123" y="755"/>
      <point x="123" y="680" type="curve" smooth="yes"/>
      <point x="123" y="605"/>
      <point x="168" y="562"/>
      <point x="250" y="562" type="curve" smooth="yes"/>
    </contour>
    <contour>
      <point x="213" y="619"/>
      <point x="190" y="637"/>
      <point x="190" y="680" type="curve" smooth="yes"/>
      <point x="190" y="723"/>
      <point x="213" y="741"/>
      <point x="250" y="741" type="curve" smooth="yes"/>
      <point x="287" y="741"/>
      <point x="310" y="723"/>
      <point x="310" y="680" type="curve" smooth="yes"/>
      <point x="310" y="637"/>
      <point x="287" y="619"/>
      <point x="250" y="619" type="curve" smooth="yes"/>
    </contour>
    <contour>
      <point x="250" y="502" type="move" name="_top"/>
    </contour>
  </outline>
</glyph>
<glyph name="tilde" format="1">
  <advance width="500"/>
  <unicode hex="02DC"/>
  <outline>
    <contour>
      <point x="99" y="707"/>
      <point x="58" y="659"/>
      <point x="58" y="572" type="curve"/>
      <point x="114" y="572" type="line"/>
      <point x="116" y="620"/>
      <point x="129" y="641"/>
      <point x="165" y="641" type="curve" smooth="yes"/>
      <point x="213" y="641"/>
      <point x="233" y="568"/>
      <point x="327" y="568" type="curve" smooth="yes"/>
      <point x="401" y="568"/>
      <point x="442" y="616"/>
      <point x="442" y="703" type="curve"/>
      <point x="386" y="703" type="line"/>
      <point x="384" y="655"/>
      <point x="371" y="634"/>
      <point x="336" y="634" type="curve" smooth="yes"/>
      <point x="282" y="634"/>
      <point x="262" y="707"/>
      <point x="173" y="707" type="curve" smooth="yes"/>
    </contour>
    <contour>
      <point x="250" y="502" type="move" name="_top"/>
    </contour>
  </outline>
</glyph>
<glyph name="commaaccent" format="1">
  <advance width="500"/>
  <unicode hex="0326"/>
  <outline>
    <contour>
      <point x="209" y="-272" type="line"/>
      <point x="269" y="-272" type="line"/>
      <point x="299" y="-65" type="line"/>
      <point x="209" y="-65" type="line"/>
    </contour>
    <contour>
      <point x="250" y="0" type="move" name="_bottom"/>
    </contour>
  </outline>
</glyph>
<glyph name="pi" format="1">
  <advance width="718"/>
  <unicode hex="03C0"/>
  <outline>
    <contour>
      <point x="46" y="502" type="line"/>
      <point x="46" y="446" type="line"/>
      <point x="114" y="417" type="line"/>
      <point x="114" y="0" type="line"/>
      <point x="198" y="0" type="line"/>
      <point x="198" y="432" type="line"/>
      <point x="454" y="432" type="line"/>
      <point x="454" y="150" type="line" smooth="yes"/>
      <point x="454" y="35"/>
      <point x="512" y="-8"/>
      <point x="604" y="-8" type="curve" smooth="yes"/>
      <point x="667" y="-8"/>
      <point x="693" y="13"/>
      <point x="693" y="57" type="curve" smooth="yes"/>
      <point x="693" y="94"/>
      <point x="675" y="113"/>
      <point x="622" y="113" type="curve"/>
      <point x="600" y="64" type="line"/>
      <point x="560" y="64"/>
      <point x="538" y="86"/>
      <point x="538" y="134" type="curve" smooth="yes"/>
      <point x="538" y="432" type="line"/>
      <point x="668" y="432" type="line"/>
      <point x="668" y="502" type="line"/>
    </contour>
  </outline>
</glyph>
<glyph name="candraBindu-deva" format="1">
  <advance width="250"/>
  <unicode hex="0901"/>
  <note>
	dCandrabindu
  </note>
  <outline>
    <contour>
      <point x="90" y="976"/>
      <point x="66" y="954"/>
      <point x="66" y="913" type="curve" smooth="yes"/>
      <point x="66" y="872"/>
      <point x="90" y="850"/>
      <point x="130" y="850" type="curve" smooth="yes"/>
      <point x="170" y="850"/>
      <point x="194" y="872"/>
      <point x="194" y="913" type="curve" smooth="yes"/>
      <point x="194" y="954"/>
      <point x="170" y="976"/>
      <point x="130" y="976" type="curve" smooth="yes"/>
    </contour>
    <component base="eCandraMatra-deva" xOffset="5"/>
    <contour>
      <point x="130" y="680" type="move" name="_top"/>
    </contour>
  </outline>
</glyph>
<glyph name="anusvara-deva" format="1">
  <advance width="250"/>
  <unicode hex="0902"/>
  <outline>
    <contour>
      <point x="91" y="856"/>
      <point x="67" y="834"/>
      <point x="67" y="793" type="curve" smooth="yes"/>
      <point x="67" y="752"/>
      <point x="91" y="730"/>
      <point x="130" y="730" type="curve" smooth="yes"/>
      <point x="169" y="730"/>
      <point x="193" y="752"/>
      <point x="193" y="793" type="curve" smooth="yes"/>
      <point x="193" y="834"/>
      <point x="169" y="856"/>
      <point x="130" y="856" type="curve" smooth="yes"/>
    </contour>
    <contour>
      <point x="130" y="680" type="move" name="_top"/>
    </contour>
  </outline>
</glyph>
<glyph name="i-deva" format="1">
  <advance width="539"/>
  <unicode hex="0907"/>
  <outline>
    <contour>
      <point x="-10" y="604" type="move"/>
    </contour>
    <contour>
      <point x="549" y="604" type="line"/>
      <point x="549" y="680" type="line"/>
      <point x="-10" y="680" type="line"/>
      <point x="-10" y="604" type="line"/>
    </contour>
    <contour>
      <point x="428" y="-8"/>
      <point x="494" y="44"/>
      <point x="494" y="168" type="curve" smooth="yes"/>
      <point x="494" y="247"/>
      <point x="467" y="308"/>
      <point x="363" y="308" type="curve" smooth="yes"/>
      <point x="297" y="308"/>
      <point x="247" y="284"/>
      <point x="192" y="284" type="curve" smooth="yes"/>
      <point x="143" y="284"/>
      <point x="122" y="303"/>
      <point x="122" y="355" type="curve" smooth="yes"/>
      <point x="122" y="406"/>
      <point x="143" y="423"/>
      <point x="212" y="423" type="curve" smooth="yes"/>
      <point x="454" y="423" type="line"/>
      <point x="454" y="614" type="line"/>
      <point x="384" y="614" type="line"/>
      <point x="384" y="484" type="line"/>
      <point x="404" y="501" type="line"/>
      <point x="204" y="501" type="line" smooth="yes"/>
      <point x="92" y="501"/>
      <point x="50" y="452"/>
      <point x="50" y="359" type="curve" smooth="yes"/>
      <point x="50" y="260"/>
      <point x="98" y="204"/>
      <point x="191" y="204" type="curve" smooth="yes"/>
      <point x="252" y="204"/>
      <point x="311" y="228"/>
      <point x="360" y="228" type="curve" smooth="yes"/>
      <point x="403" y="228"/>
      <point x="422" y="209"/>
      <point x="422" y="162" type="curve" smooth="yes"/>
      <point x="422" y="102"/>
      <point x="391" y="74"/>
      <point x="285" y="74" type="curve" smooth="yes"/>
      <point x="225" y="74"/>
      <point x="167" y="83"/>
      <point x="138" y="107" type="curve"/>
      <point x="71" y="97" type="line"/>
      <point x="71" y="-108" type="line"/>
      <point x="139" y="-108" type="line"/>
      <point x="139" y="58" type="line"/>
      <point x="183" y="58" type="line"/>
      <point x="138" y="186" type="line"/>
      <point x="81" y="186"/>
      <point x="50" y="166"/>
      <point x="50" y="116" type="curve" smooth="yes"/>
      <point x="50" y="28"/>
      <point x="147" y="-8"/>
      <point x="275" y="-8" type="curve" smooth="yes"/>
    </contour>
    <contour>
      <point x="419" y="680" type="move" name="top"/>
    </contour>
    <contour>
      <point x="285" y="0" type="move" name="bottom"/>
    </contour>
  </outline>
</glyph>
<glyph name="rVocalic-deva" format="1">
  <advance width="758"/>
  <unicode hex="090B"/>
  <outline>
    <contour>
      <point x="322" y="249" type="line"/>
      <point x="165" y="472" type="line" smooth="yes"/>
      <point x="150" y="494"/>
      <point x="136" y="501"/>
      <point x="105" y="501" type="curve" smooth="yes"/>
      <point x="16" y="501" type="line"/>
      <point x="16" y="423" type="line"/>
      <point x="67" y="423" type="line" smooth="yes"/>
      <point x="102" y="423"/>
      <point x="108" y="419"/>
      <point x="129" y="391" type="curve" smooth="yes"/>
      <point x="270" y="204" type="line"/>
    </contour>
    <contour>
      <point x="419" y="0" type="line"/>
      <point x="419" y="614" type="line"/>
      <point x="351" y="614" type="line"/>
      <point x="351" y="0" type="line"/>
    </contour>
    <contour>
      <point x="768" y="604" type="line"/>
      <point x="768" y="680" type="line"/>
      <point x="-10" y="680" type="line"/>
      <point x="-9" y="604" type="line"/>
    </contour>
    <contour>
      <point x="549" y="331"/>
      <point x="568" y="289"/>
      <point x="623" y="289" type="curve"/>
      <point x="623" y="302" type="line"/>
      <point x="561" y="290"/>
      <point x="524" y="243"/>
      <point x="524" y="157" type="curve" smooth="yes"/>
      <point x="524" y="53"/>
      <point x="579" y="0"/>
      <point x="685" y="0" type="curve" smooth="yes"/>
      <point x="711" y="0"/>
      <point x="737" y="3"/>
      <point x="768" y="11" type="curve"/>
      <point x="768" y="93" type="line"/>
      <point x="730" y="85"/>
      <point x="709" y="82"/>
      <point x="684" y="82" type="curve" smooth="yes"/>
      <point x="622" y="82"/>
      <point x="596" y="101"/>
      <point x="596" y="160" type="curve" smooth="yes"/>
      <point x="596" y="218"/>
      <point x="622" y="239"/>
      <point x="708" y="239" type="curve" smooth="yes"/>
      <point x="743" y="239" type="line"/>
      <point x="743" y="317" type="line"/>
      <point x="688" y="317" type="line" smooth="yes"/>
      <point x="638" y="317"/>
      <point x="617" y="336"/>
      <point x="617" y="388" type="curve" smooth="yes"/>
      <point x="617" y="501" type="line"/>
      <point x="562" y="501" type="line"/>
      <point x="11" y="1" type="line"/>
      <point x="11" y="0" type="line"/>
      <point x="120" y="0" type="line"/>
      <point x="577" y="417" type="line"/>
      <point x="549" y="417" type="line"/>
      <point x="549" y="392" type="line"/>
    </contour>
    <contour>
      <point x="385" y="680" type="move" name="top"/>
    </contour>
    <contour>
      <point x="385" y="0" type="move" name="bottom"/>
    </contour>
  </outline>
</glyph>
<glyph name="e-deva" format="1">
  <advance width="604"/>
  <unicode hex="090F"/>
  <outline>
    <contour>
      <point x="96" y="614" type="line"/>
      <point x="96" y="212" type="line" smooth="yes"/>
      <point x="96" y="62"/>
      <point x="173" y="0"/>
      <point x="319" y="0" type="curve" smooth="yes"/>
      <point x="368" y="0"/>
      <point x="432" y="7"/>
      <point x="475" y="22" type="curve"/>
      <point x="475" y="102" type="line"/>
      <point x="423" y="86"/>
      <point x="366" y="80"/>
      <point x="318" y="80" type="curve" smooth="yes"/>
      <point x="204" y="80"/>
      <point x="164" y="113"/>
      <point x="164" y="209" type="curve" smooth="yes"/>
      <point x="164" y="614" type="line"/>
    </contour>
    <contour>
      <point x="508" y="614" type="line"/>
      <point x="440" y="614" type="line"/>
      <point x="440" y="381" type="line" smooth="yes"/>
      <point x="440" y="327"/>
      <point x="418" y="310"/>
      <point x="356" y="310" type="curve" smooth="yes"/>
      <point x="335" y="310"/>
      <point x="309" y="312"/>
      <point x="287" y="315" type="curve"/>
      <point x="287" y="235" type="line"/>
      <point x="306" y="231"/>
      <point x="334" y="230"/>
      <point x="352" y="230" type="curve" smooth="yes"/>
      <point x="468" y="230"/>
      <point x="508" y="272"/>
      <point x="508" y="377" type="curve" smooth="yes"/>
    </contour>
    <contour>
      <point x="-10" y="680" type="line"/>
      <point x="-10" y="604" type="line"/>
      <point x="614" y="604" type="line"/>
      <point x="614" y="680" type="line"/>
    </contour>
    <contour>
      <point x="474" y="680" type="move" name="top"/>
    </contour>
    <contour>
      <point x="315" y="0" type="move" name="bottom"/>
    </contour>
  </outline>
</glyph>
<glyph name="kha-deva" format="1">
  <advance width="849"/>
  <unicode hex="0916"/>
  <outline>
    <contour>
      <point x="562" y="0"/>
      <point x="641" y="20"/>
      <point x="705" y="72" type="curve"/>
      <point x="705" y="144" type="line"/>
      <point x="650" y="103"/>
      <point x="559" y="82"/>
      <point x="475" y="82" type="curve" smooth="yes"/>
      <point x="350" y="82"/>
      <point x="230" y="128"/>
      <point x="104" y="296" type="curve"/>
      <point x="108" y="269" type="line"/>
      <point x="236" y="269"/>
      <point x="288" y="318"/>
      <point x="288" y="444" type="curve" smooth="yes"/>
      <point x="288" y="511"/>
      <point x="273" y="579"/>
      <point x="256" y="617" type="curve"/>
      <point x="156" y="617" type="line"/>
      <point x="189" y="582"/>
      <point x="216" y="519"/>
      <point x="216" y="454" type="curve" smooth="yes"/>
      <point x="216" y="365"/>
      <point x="165" y="347"/>
      <point x="78" y="347" type="curve" smooth="yes"/>
      <point x="35" y="347" type="line"/>
      <point x="35" y="277" type="line"/>
      <point x="195" y="50"/>
      <point x="314" y="0"/>
      <point x="466" y="0" type="curve" smooth="yes"/>
    </contour>
    <contour>
      <point x="609" y="158"/>
      <point x="659" y="171"/>
      <point x="705" y="194" type="curve"/>
      <point x="705" y="264" type="line"/>
      <point x="658" y="247"/>
      <point x="625" y="240"/>
      <point x="562" y="240" type="curve" smooth="yes"/>
      <point x="469" y="240"/>
      <point x="442" y="255"/>
      <point x="442" y="328" type="curve" smooth="yes"/>
      <point x="442" y="401"/>
      <point x="469" y="416"/>
      <point x="562" y="416" type="curve" smooth="yes"/>
      <point x="625" y="416"/>
      <point x="658" y="409"/>
      <point x="705" y="392" type="curve"/>
      <point x="705" y="462" type="line"/>
      <point x="659" y="485"/>
      <point x="609" y="498"/>
      <point x="542" y="498" type="curve" smooth="yes"/>
      <point x="421" y="498"/>
      <point x="370" y="455"/>
      <point x="370" y="328" type="curve" smooth="yes"/>
      <point x="370" y="201"/>
      <point x="421" y="158"/>
      <point x="542" y="158" type="curve" smooth="yes"/>
    </contour>
    <contour>
      <point x="762" y="0" type="line"/>
      <point x="762" y="616" type="line"/>
      <point x="694" y="616" type="line"/>
      <point x="694" y="0" type="line"/>
    </contour>
    <contour>
      <point x="859" y="604" type="line"/>
      <point x="859" y="680" type="line"/>
      <point x="-10" y="680" type="line"/>
      <point x="-10" y="604" type="line"/>
    </contour>
    <contour>
      <point x="70" y="0" type="move" name="nukta"/>
    </contour>
    <contour>
      <point x="728" y="0" type="move" name="bottom"/>
    </contour>
    <contour>
      <point x="728" y="680" type="move" name="top"/>
    </contour>
  </outline>
</glyph>
<glyph name="ga-deva" format="1">
  <advance width="586"/>
  <unicode hex="0917"/>
  <outline>
    <contour>
      <point x="422" y="614" type="line"/>
      <point x="422" y="0" type="line"/>
      <point x="490" y="0" type="line"/>
      <point x="490" y="614" type="line"/>
    </contour>
    <contour>
      <point x="-10" y="680" type="line"/>
      <point x="-10" y="604" type="line"/>
      <point x="596" y="604" type="line"/>
      <point x="596" y="680" type="line"/>
    </contour>
    <contour>
      <point x="21" y="269" type="line"/>
      <point x="21" y="192"/>
      <point x="52" y="163"/>
      <point x="111" y="163" type="curve" smooth="yes"/>
      <point x="170" y="163"/>
      <point x="201" y="192"/>
      <point x="201" y="282" type="curve" smooth="yes"/>
      <point x="201" y="614" type="line"/>
      <point x="133" y="614" type="line"/>
      <point x="133" y="287" type="line"/>
      <point x="146" y="322" type="line"/>
    </contour>
    <contour>
      <point x="111" y="0" type="move" name="nukta"/>
    </contour>
    <contour>
      <point x="456" y="0" type="move" name="bottom"/>
    </contour>
    <contour>
      <point x="456" y="680" type="move" name="top"/>
    </contour>
  </outline>
</glyph>
<glyph name="gha-deva" format="1">
  <advance width="598"/>
  <unicode hex="0918"/>
  <outline>
    <contour>
      <point x="333" y="100"/>
      <point x="402" y="121"/>
      <point x="440" y="150" type="curve"/>
      <point x="440" y="223" type="line"/>
      <point x="389" y="196"/>
      <point x="335" y="182"/>
      <point x="263" y="182" type="curve" smooth="yes"/>
      <point x="162" y="182"/>
      <point x="136" y="209"/>
      <point x="136" y="274" type="curve" smooth="yes"/>
      <point x="136" y="333"/>
      <point x="157" y="357"/>
      <point x="242" y="357" type="curve" smooth="yes"/>
      <point x="320" y="357" type="line"/>
      <point x="320" y="435" type="line"/>
      <point x="245" y="435" type="line" smooth="yes"/>
      <point x="131" y="435"/>
      <point x="110" y="457"/>
      <point x="110" y="532" type="curve" smooth="yes"/>
      <point x="110" y="569"/>
      <point x="115" y="588"/>
      <point x="127" y="614" type="curve"/>
      <point x="51" y="614" type="line"/>
      <point x="41" y="592"/>
      <point x="38" y="564"/>
      <point x="38" y="540" type="curve" smooth="yes"/>
      <point x="38" y="444"/>
      <point x="84" y="398"/>
      <point x="163" y="386" type="curve"/>
      <point x="163" y="405" type="line"/>
      <point x="97" y="393"/>
      <point x="64" y="341"/>
      <point x="64" y="268" type="curve" smooth="yes"/>
      <point x="64" y="165"/>
      <point x="131" y="100"/>
      <point x="260" y="100" type="curve" smooth="yes"/>
    </contour>
    <contour>
      <point x="502" y="0" type="line"/>
      <point x="502" y="614" type="line"/>
      <point x="434" y="614" type="line"/>
      <point x="434" y="0" type="line"/>
    </contour>
    <contour>
      <point x="608" y="604" type="line"/>
      <point x="608" y="680" type="line"/>
      <point x="-10" y="680" type="line"/>
      <point x="-10" y="604" type="line"/>
    </contour>
  </outline>
</glyph>
<glyph name="nga-deva" format="1">
  <advance width="665"/>
  <unicode hex="0919"/>
  <outline>
    <contour>
      <point x="528" y="680" type="line"/>
      <point x="528" y="604" type="line"/>
      <point x="665" y="604" type="line"/>
      <point x="665" y="680" type="line"/>
    </contour>
    <component base="dda-deva"/>
    <component base="nukta-deva" xOffset="435" yOffset="494"/>
  </outline>
</glyph>
<glyph name="ttha-deva" format="1">
  <advance width="591"/>
  <unicode hex="0920"/>
  <outline>
    <contour>
      <point x="138" y="492"/>
      <point x="42" y="412"/>
      <point x="42" y="245" type="curve" smooth="yes"/>
      <point x="42" y="78"/>
      <point x="139" y="0"/>
      <point x="295" y="0" type="curve" smooth="yes"/>
      <point x="453" y="0"/>
      <point x="549" y="79"/>
      <point x="549" y="246" type="curve" smooth="yes"/>
      <point x="549" y="413"/>
      <point x="453" y="492"/>
      <point x="296" y="492" type="curve" smooth="yes"/>
    </contour>
    <contour>
      <point x="415" y="410"/>
      <point x="477" y="358"/>
      <point x="477" y="246" type="curve" smooth="yes"/>
      <point x="477" y="134"/>
      <point x="415" y="82"/>
      <point x="295" y="82" type="curve" smooth="yes"/>
      <point x="175" y="82"/>
      <point x="114" y="134"/>
      <point x="114" y="246" type="curve" smooth="yes"/>
      <point x="114" y="355"/>
      <point x="175" y="410"/>
      <point x="295" y="410" type="curve" smooth="yes"/>
    </contour>
    <contour>
      <point x="353" y="614" type="line"/>
      <point x="353" y="449" type="line"/>
      <point x="421" y="449" type="line"/>
      <point x="421" y="614" type="line"/>
    </contour>
    <contour>
      <point x="-10" y="680" type="line"/>
      <point x="-10" y="604" type="line"/>
      <point x="601" y="604" type="line"/>
      <point x="601" y="680" type="line"/>
    </contour>
    <contour>
      <point x="295" y="-120" type="move" name="nukta"/>
    </contour>
    <contour>
      <point x="295" y="0" type="move" name="bottom"/>
    </contour>
    <contour>
      <point x="387" y="680" type="move" name="top"/>
    </contour>
  </outline>
</glyph>
<glyph name="nna-deva" format="1">
  <advance width="794"/>
  <unicode hex="0923"/>
  <outline>
    <contour>
      <point x="400" y="156"/>
      <point x="461" y="220"/>
      <point x="461" y="363" type="curve" smooth="yes"/>
      <point x="461" y="614" type="line"/>
      <point x="393" y="614" type="line"/>
      <point x="393" y="360" type="line" smooth="yes"/>
      <point x="393" y="270"/>
      <point x="361" y="238"/>
      <point x="271" y="238" type="curve" smooth="yes"/>
      <point x="182" y="238"/>
      <point x="149" y="270"/>
      <point x="149" y="360" type="curve" smooth="yes"/>
      <point x="149" y="614" type="line"/>
      <point x="81" y="614" type="line"/>
      <point x="81" y="363" type="line" smooth="yes"/>
      <point x="81" y="220"/>
      <point x="143" y="156"/>
      <point x="271" y="156" type="curve" smooth="yes"/>
    </contour>
    <contour>
      <point x="698" y="0" type="line"/>
      <point x="698" y="614" type="line"/>
      <point x="630" y="614" type="line"/>
      <point x="630" y="0" type="line"/>
    </contour>
    <contour>
      <point x="804" y="604" type="line"/>
      <point x="804" y="680" type="line"/>
      <point x="-10" y="680" type="line"/>
      <point x="-10" y="604" type="line"/>
    </contour>
    <contour>
      <point x="270" y="0" type="move" name="nukta"/>
    </contour>
    <contour>
      <point x="664" y="0" type="move" name="bottom"/>
    </contour>
    <contour>
      <point x="664" y="680" type="move" name="top"/>
    </contour>
  </outline>
</glyph>
<glyph name="tha-deva" format="1">
  <advance width="639"/>
  <unicode hex="0925"/>
  <outline>
    <contour>
      <point x="475" y="614" type="line"/>
      <point x="475" y="0" type="line"/>
      <point x="543" y="0" type="line"/>
      <point x="543" y="614" type="line"/>
    </contour>
    <contour>
      <point x="395" y="680" type="line"/>
      <point x="395" y="604" type="line"/>
      <point x="649" y="604" type="line"/>
      <point x="649" y="680" type="line"/>
    </contour>
    <contour>
      <point x="327" y="642"/>
      <point x="285" y="688"/>
      <point x="188" y="688" type="curve" smooth="yes"/>
      <point x="98" y="688"/>
      <point x="60" y="648"/>
      <point x="60" y="570" type="curve" smooth="yes"/>
      <point x="60" y="490"/>
      <point x="99" y="453"/>
      <point x="182" y="453" type="curve"/>
      <point x="182" y="525" type="line"/>
      <point x="140" y="525"/>
      <point x="124" y="537"/>
      <point x="124" y="568" type="curve" smooth="yes"/>
      <point x="124" y="599"/>
      <point x="141" y="612"/>
      <point x="183" y="612" type="curve" smooth="yes"/>
      <point x="232" y="612"/>
      <point x="255" y="594"/>
      <point x="255" y="527" type="curve" smooth="yes"/>
      <point x="255" y="440"/>
      <point x="216" y="409"/>
      <point x="90" y="409" type="curve" smooth="yes"/>
      <point x="60" y="409" type="line"/>
      <point x="60" y="394" type="line" smooth="yes"/>
      <point x="60" y="232"/>
      <point x="158" y="159"/>
      <point x="332" y="159" type="curve" smooth="yes"/>
      <point x="386" y="159"/>
      <point x="442" y="166"/>
      <point x="485" y="188" type="curve"/>
      <point x="485" y="262" type="line"/>
      <point x="427" y="246"/>
      <point x="388" y="241"/>
      <point x="332" y="241" type="curve" smooth="yes"/>
      <point x="203" y="241"/>
      <point x="151" y="268"/>
      <point x="130" y="337" type="curve"/>
      <point x="268" y="337"/>
      <point x="327" y="398"/>
      <point x="327" y="530" type="curve" smooth="yes"/>
    </contour>
    <contour>
      <point x="95" y="65" type="move" name="nukta"/>
    </contour>
    <contour>
      <point x="509" y="0" type="move" name="bottom"/>
    </contour>
    <contour>
      <point x="509" y="680" type="move" name="top"/>
    </contour>
  </outline>
</glyph>
<glyph name="dha-deva" format="1">
  <advance width="640"/>
  <unicode hex="0927"/>
  <outline>
    <contour>
      <point x="650" y="680" type="line"/>
      <point x="396" y="680" type="line"/>
      <point x="396" y="604" type="line"/>
      <point x="476" y="604" type="line"/>
      <point x="476" y="0" type="line"/>
      <point x="544" y="0" type="line"/>
      <point x="544" y="604" type="line"/>
      <point x="650" y="604" type="line"/>
    </contour>
    <contour>
      <point x="99" y="688"/>
      <point x="50" y="638"/>
      <point x="50" y="533" type="curve" smooth="yes"/>
      <point x="50" y="426"/>
      <point x="102" y="370"/>
      <point x="194" y="367" type="curve"/>
      <point x="194" y="393" type="line"/>
      <point x="117" y="393"/>
      <point x="75" y="339"/>
      <point x="75" y="261" type="curve" smooth="yes"/>
      <point x="75" y="157"/>
      <point x="150" y="93"/>
      <point x="298" y="93" type="curve" smooth="yes"/>
      <point x="380" y="93"/>
      <point x="441" y="113"/>
      <point x="486" y="146" type="curve"/>
      <point x="486" y="220" type="line"/>
      <point x="427" y="189"/>
      <point x="381" y="175"/>
      <point x="295" y="175" type="curve" smooth="yes"/>
      <point x="175" y="175"/>
      <point x="147" y="202"/>
      <point x="147" y="265" type="curve" smooth="yes"/>
      <point x="147" y="311"/>
      <point x="162" y="339"/>
      <point x="223" y="339" type="curve" smooth="yes"/>
      <point x="351" y="339" type="line"/>
      <point x="351" y="417" type="line"/>
      <point x="226" y="417" type="line" smooth="yes"/>
      <point x="147" y="417"/>
      <point x="122" y="449"/>
      <point x="122" y="530" type="curve" smooth="yes"/>
      <point x="122" y="594"/>
      <point x="138" y="616"/>
      <point x="205" y="616" type="curve" smooth="yes"/>
      <point x="258" y="616"/>
      <point x="272" y="602"/>
      <point x="272" y="572" type="curve" smooth="yes"/>
      <point x="272" y="545"/>
      <point x="260" y="537"/>
      <point x="217" y="537" type="curve"/>
      <point x="217" y="465" type="line"/>
      <point x="309" y="465"/>
      <point x="346" y="500"/>
      <point x="346" y="572" type="curve" smooth="yes"/>
      <point x="346" y="646"/>
      <point x="306" y="688"/>
      <point x="207" y="688" type="curve" smooth="yes"/>
    </contour>
    <contour>
      <point x="111" y="0" type="move" name="nukta"/>
    </contour>
    <contour>
      <point x="510" y="0" type="move" name="bottom"/>
    </contour>
    <contour>
      <point x="510" y="680" type="move" name="top"/>
    </contour>
  </outline>
</glyph>
<glyph name="pha-deva" format="1">
  <advance width="864"/>
  <unicode hex="092B"/>
  <outline>
    <contour>
      <point x="483" y="0" type="line"/>
      <point x="483" y="614" type="line"/>
      <point x="415" y="614" type="line"/>
      <point x="415" y="0" type="line"/>
    </contour>
    <contour>
      <point x="874" y="604" type="line"/>
      <point x="874" y="680" type="line"/>
      <point x="-10" y="680" type="line"/>
      <point x="-10" y="604" type="line"/>
    </contour>
    <contour>
      <point x="331" y="175"/>
      <point x="382" y="184"/>
      <point x="425" y="203" type="curve"/>
      <point x="425" y="277" type="line"/>
      <point x="382" y="263"/>
      <point x="335" y="257"/>
      <point x="291" y="257" type="curve" smooth="yes"/>
      <point x="192" y="257"/>
      <point x="149" y="287"/>
      <point x="149" y="375" type="curve" smooth="yes"/>
      <point x="149" y="614" type="line"/>
      <point x="81" y="614" type="line"/>
      <point x="81" y="378" type="line" smooth="yes"/>
      <point x="81" y="231"/>
      <point x="159" y="175"/>
      <point x="282" y="175" type="curve" smooth="yes"/>
    </contour>
    <contour>
      <point x="573" y="114" type="line"/>
      <point x="598" y="111"/>
      <point x="625" y="110"/>
      <point x="645" y="110" type="curve" smooth="yes"/>
      <point x="709" y="110"/>
      <point x="752" y="121"/>
      <point x="780" y="150" type="curve" smooth="yes"/>
      <point x="810" y="181"/>
      <point x="824" y="232"/>
      <point x="824" y="301" type="curve" smooth="yes"/>
      <point x="824" y="444"/>
      <point x="763" y="496"/>
      <point x="631" y="496" type="curve" smooth="yes"/>
      <point x="560" y="496"/>
      <point x="516" y="481"/>
      <point x="472" y="459" type="curve"/>
      <point x="472" y="387" type="line"/>
      <point x="517" y="407"/>
      <point x="551" y="414"/>
      <point x="614" y="414" type="curve" smooth="yes"/>
      <point x="725" y="414"/>
      <point x="752" y="392"/>
      <point x="752" y="300" type="curve" smooth="yes"/>
      <point x="752" y="213"/>
      <point x="728" y="192"/>
      <point x="639" y="192" type="curve" smooth="yes"/>
      <point x="619" y="192"/>
      <point x="596" y="193"/>
      <point x="573" y="196" type="curve"/>
    </contour>
    <contour>
      <point x="149" y="65" type="move" name="nukta"/>
    </contour>
    <contour>
      <point x="449" y="0" type="move" name="bottom"/>
    </contour>
    <contour>
      <point x="449" y="680" type="move" name="top"/>
    </contour>
  </outline>
</glyph>
<glyph name="bha-deva" format="1">
  <advance width="701"/>
  <unicode hex="092D"/>
  <outline>
    <contour>
      <point x="258" y="158"/>
      <point x="303" y="183"/>
      <point x="303" y="250" type="curve" smooth="yes"/>
      <point x="303" y="529" type="line" smooth="yes"/>
      <point x="303" y="636"/>
      <point x="258" y="688"/>
      <point x="165" y="688" type="curve" smooth="yes"/>
      <point x="78" y="688"/>
      <point x="35" y="643"/>
      <point x="35" y="554" type="curve" smooth="yes"/>
      <point x="35" y="465"/>
      <point x="78" y="425"/>
      <point x="157" y="425" type="curve"/>
      <point x="157" y="505" type="line"/>
      <point x="116" y="505"/>
      <point x="97" y="518"/>
      <point x="97" y="555" type="curve" smooth="yes"/>
      <point x="97" y="592"/>
      <point x="116" y="606"/>
      <point x="167" y="606" type="curve" smooth="yes"/>
      <point x="212" y="606"/>
      <point x="235" y="595"/>
      <point x="235" y="520" type="curve" smooth="yes"/>
      <point x="235" y="261" type="line"/>
      <point x="562" y="261" type="line"/>
      <point x="562" y="339" type="line"/>
      <point x="218" y="339" type="line" smooth="yes"/>
      <point x="161" y="339"/>
      <point x="126" y="313"/>
      <point x="126" y="248" type="curve" smooth="yes"/>
      <point x="126" y="183"/>
      <point x="162" y="158"/>
      <point x="210" y="158" type="curve" smooth="yes"/>
    </contour>
    <contour>
      <point x="605" y="0" type="line"/>
      <point x="605" y="614" type="line"/>
      <point x="537" y="614" type="line"/>
      <point x="537" y="0" type="line"/>
    </contour>
    <contour>
      <point x="711" y="604" type="line"/>
      <point x="711" y="680" type="line"/>
      <point x="378" y="680" type="line"/>
      <point x="378" y="604" type="line"/>
    </contour>
    <contour>
      <point x="201" y="0" type="move" name="nukta"/>
    </contour>
    <contour>
      <point x="571" y="0" type="move" name="bottom"/>
    </contour>
    <contour>
      <point x="571" y="680" type="move" name="top"/>
    </contour>
  </outline>
</glyph>
<glyph name="ma-deva" format="1">
  <advance width="621"/>
  <unicode hex="092E"/>
  <outline>
    <contour>
      <point x="457" y="614" type="line"/>
      <point x="457" y="0" type="line"/>
      <point x="525" y="0" type="line"/>
      <point x="525" y="614" type="line"/>
    </contour>
    <contour>
      <point x="-10" y="680" type="line"/>
      <point x="-10" y="604" type="line"/>
      <point x="631" y="604" type="line"/>
      <point x="631" y="680" type="line"/>
    </contour>
    <contour>
      <point x="131" y="233" type="line"/>
      <point x="467" y="233" type="line"/>
      <point x="467" y="311" type="line"/>
      <point x="114" y="311" type="line" smooth="yes"/>
      <point x="67" y="311"/>
      <point x="29" y="289"/>
      <point x="29" y="223" type="curve" smooth="yes"/>
      <point x="29" y="160"/>
      <point x="63" y="137"/>
      <point x="111" y="137" type="curve" smooth="yes"/>
      <point x="158" y="137"/>
      <point x="199" y="160"/>
      <point x="199" y="224" type="curve" smooth="yes"/>
      <point x="199" y="615" type="line"/>
      <point x="131" y="615" type="line"/>
    </contour>
    <contour>
      <point x="114" y="0" type="move" name="nukta"/>
    </contour>
    <contour>
      <point x="491" y="0" type="move" name="bottom"/>
    </contour>
    <contour>
      <point x="491" y="680" type="move" name="top"/>
    </contour>
  </outline>
</glyph>
<glyph name="la-deva" format="1">
  <advance width="743"/>
  <unicode hex="0932"/>
  <outline>
    <contour>
      <point x="140" y="10"/>
      <point x="174" y="0"/>
      <point x="257" y="0" type="curve" smooth="yes"/>
      <point x="311" y="0" type="line"/>
      <point x="311" y="78" type="line"/>
      <point x="266" y="78" type="line" smooth="yes"/>
      <point x="226" y="78"/>
      <point x="177" y="79"/>
      <point x="153" y="97" type="curve" smooth="yes"/>
      <point x="124" y="118"/>
      <point x="117" y="170"/>
      <point x="117" y="230" type="curve" smooth="yes"/>
      <point x="117" y="349"/>
      <point x="145" y="385"/>
      <point x="241" y="385" type="curve" smooth="yes"/>
      <point x="298" y="385"/>
      <point x="329" y="372"/>
      <point x="356" y="327" type="curve"/>
      <point x="392" y="388" type="line"/>
      <point x="351" y="444"/>
      <point x="311" y="467"/>
      <point x="231" y="467" type="curve" smooth="yes"/>
      <point x="100" y="467"/>
      <point x="45" y="405"/>
      <point x="45" y="234" type="curve" smooth="yes"/>
      <point x="45" y="139"/>
      <point x="62" y="70"/>
      <point x="111" y="32" type="curve" smooth="yes"/>
    </contour>
    <contour>
      <point x="391" y="196" type="line"/>
      <point x="391" y="223" type="line" smooth="yes"/>
      <point x="391" y="342"/>
      <point x="427" y="383"/>
      <point x="529" y="383" type="curve" smooth="yes"/>
      <point x="589" y="383" type="line"/>
      <point x="589" y="461" type="line"/>
      <point x="539" y="461" type="line" smooth="yes"/>
      <point x="383" y="461"/>
      <point x="321" y="392"/>
      <point x="321" y="223" type="curve" smooth="yes"/>
      <point x="321" y="196" type="line"/>
    </contour>
    <contour>
      <point x="647" y="0" type="line"/>
      <point x="647" y="614" type="line"/>
      <point x="579" y="614" type="line"/>
      <point x="579" y="0" type="line"/>
    </contour>
    <contour>
      <point x="753" y="604" type="line"/>
      <point x="753" y="680" type="line"/>
      <point x="-10" y="680" type="line"/>
      <point x="-10" y="604" type="line"/>
    </contour>
    <contour>
      <point x="81" y="-65" type="move" name="nukta"/>
    </contour>
    <contour>
      <point x="613" y="0" type="move" name="bottom"/>
    </contour>
    <contour>
      <point x="613" y="680" type="move" name="top"/>
    </contour>
  </outline>
</glyph>
<glyph name="sha-deva" format="1">
  <advance width="690"/>
  <unicode hex="0936"/>
  <outline>
    <contour>
      <point x="396" y="0" type="line"/>
      <point x="396" y="1" type="line"/>
      <point x="153" y="303" type="line"/>
      <point x="153" y="267" type="line"/>
      <point x="302" y="267"/>
      <point x="380" y="339"/>
      <point x="380" y="489" type="curve" smooth="yes"/>
      <point x="380" y="617"/>
      <point x="323" y="688"/>
      <point x="212" y="688" type="curve" smooth="yes"/>
      <point x="118" y="688"/>
      <point x="67" y="638"/>
      <point x="67" y="544" type="curve" smooth="yes"/>
      <point x="67" y="443"/>
      <point x="127" y="398"/>
      <point x="226" y="397" type="curve"/>
      <point x="226" y="477" type="line"/>
      <point x="167" y="477"/>
      <point x="141" y="498"/>
      <point x="141" y="545" type="curve" smooth="yes"/>
      <point x="141" y="588"/>
      <point x="163" y="608"/>
      <point x="211" y="608" type="curve" smooth="yes"/>
      <point x="274" y="608"/>
      <point x="306" y="574"/>
      <point x="306" y="489" type="curve" smooth="yes"/>
      <point x="306" y="389"/>
      <point x="262" y="347"/>
      <point x="155" y="347" type="curve" smooth="yes"/>
      <point x="85" y="347" type="line"/>
      <point x="85" y="277" type="line"/>
      <point x="304" y="0" type="line"/>
    </contour>
    <contour>
      <point x="594" y="0" type="line"/>
      <point x="594" y="611" type="line"/>
      <point x="526" y="611" type="line"/>
      <point x="526" y="0" type="line"/>
    </contour>
    <contour>
      <point x="700" y="604" type="line"/>
      <point x="700" y="680" type="line"/>
      <point x="410" y="680" type="line"/>
      <point x="410" y="604" type="line"/>
    </contour>
    <contour>
      <point x="85" y="65" type="move" name="nukta"/>
    </contour>
    <contour>
      <point x="560" y="0" type="move" name="bottom"/>
    </contour>
    <contour>
      <point x="560" y="680" type="move" name="top"/>
    </contour>
  </outline>
</glyph>
<glyph name="oeMatra-deva" format="1">
  <advance width="250"/>
  <unicode hex="093A"/>
  <outline>
    <contour>
      <point x="91" y="820" type="line"/>
      <point x="91" y="670" type="line"/>
      <point x="159" y="670" type="line"/>
      <point x="159" y="820" type="line"/>
    </contour>
    <contour>
      <point x="125" y="680" type="move" name="_top"/>
    </contour>
  </outline>
</glyph>
<glyph name="nukta-deva" format="1">
  <advance width="250"/>
  <unicode hex="093C"/>
  <outline>
    <contour>
      <point x="85" y="-60"/>
      <point x="60" y="-83"/>
      <point x="60" y="-125" type="curve" smooth="yes"/>
      <point x="60" y="-167"/>
      <point x="85" y="-190"/>
      <point x="125" y="-190" type="curve" smooth="yes"/>
      <point x="165" y="-190"/>
      <point x="190" y="-167"/>
      <point x="190" y="-125" type="curve" smooth="yes"/>
      <point x="190" y="-83"/>
      <point x="165" y="-60"/>
      <point x="125" y="-60" type="curve" smooth="yes"/>
    </contour>
    <contour>
      <point x="125" y="-125" type="move" name="_nukta"/>
    </contour>
  </outline>
</glyph>
<glyph name="avagraha-deva" format="1">
  <advance width="564"/>
  <unicode hex="093D"/>
  <outline>
    <contour>
      <point x="83" y="30" type="line"/>
      <point x="159" y="0"/>
      <point x="227" y="-12"/>
      <point x="299" y="-12" type="curve" smooth="yes"/>
      <point x="446" y="-12"/>
      <point x="512" y="47"/>
      <point x="512" y="167" type="curve" smooth="yes"/>
      <point x="512" y="289"/>
      <point x="443" y="337"/>
      <point x="368" y="379" type="curve" smooth="yes"/>
      <point x="244" y="449"/>
      <point x="177" y="472"/>
      <point x="177" y="548" type="curve" smooth="yes"/>
      <point x="177" y="588"/>
      <point x="196" y="604"/>
      <point x="241" y="604" type="curve" smooth="yes"/>
      <point x="458" y="604" type="line"/>
      <point x="458" y="680" type="line"/>
      <point x="236" y="680" type="line" smooth="yes"/>
      <point x="153" y="680"/>
      <point x="105" y="631"/>
      <point x="105" y="547" type="curve" smooth="yes"/>
      <point x="105" y="417"/>
      <point x="222" y="365"/>
      <point x="298" y="324" type="curve" smooth="yes"/>
      <point x="412" y="263"/>
      <point x="440" y="229"/>
      <point x="440" y="166" type="curve" smooth="yes"/>
      <point x="440" y="101"/>
      <point x="411" y="68"/>
      <point x="299" y="68" type="curve" smooth="yes"/>
      <point x="229" y="68"/>
      <point x="165" y="81"/>
      <point x="83" y="120" type="curve"/>
    </contour>
  </outline>
</glyph>
<glyph name="iMatra-deva" format="1">
  <advance width="260"/>
  <unicode hex="093F"/>
  <outline>
    <contour>
      <point x="162" y="670" type="line"/>
      <point x="145" y="713"/>
      <point x="139" y="741"/>
      <point x="139" y="782" type="curve" smooth="yes"/>
      <point x="139" y="847"/>
      <point x="170" y="877"/>
      <point x="255" y="877" type="curve" smooth="yes"/>
      <point x="347" y="877"/>
      <point x="434" y="839"/>
      <point x="517" y="741" type="curve"/>
      <point x="517" y="807" type="line"/>
      <point x="445" y="899"/>
      <point x="352" y="953"/>
      <point x="253" y="953" type="curve" smooth="yes"/>
      <point x="137" y="953"/>
      <point x="71" y="888"/>
      <point x="71" y="795" type="curve" smooth="yes"/>
      <point x="71" y="746"/>
      <point x="81" y="705"/>
      <point x="98" y="670" type="curve"/>
    </contour>
    <component base="aaMatra-deva"/>
    <contour>
      <point x="517" y="807" type="move" name="imatra"/>
    </contour>
    <contour>
      <point x="483" y="811" type="move" name="top"/>
    </contour>
  </outline>
</glyph>
<glyph name="iiMatra-deva" format="1">
  <advance width="260"/>
  <unicode hex="0940"/>
  <outline>
    <contour>
      <point x="-166" y="780" type="line"/>
      <point x="-98" y="780" type="line"/>
      <point x="-98" y="798" type="line" smooth="yes"/>
      <point x="-98" y="842"/>
      <point x="-75" y="872"/>
      <point x="-9" y="872" type="curve" smooth="yes"/>
      <point x="66" y="872"/>
      <point x="96" y="833"/>
      <point x="96" y="732" type="curve" smooth="yes"/>
      <point x="96" y="670" type="line"/>
      <point x="164" y="670" type="line"/>
      <point x="164" y="747" type="line" smooth="yes"/>
      <point x="164" y="863"/>
      <point x="131" y="954"/>
      <point x="-6" y="954" type="curve" smooth="yes"/>
      <point x="-115" y="954"/>
      <point x="-166" y="896"/>
      <point x="-166" y="803" type="curve" smooth="yes"/>
    </contour>
    <component base="aaMatra-deva"/>
    <contour>
      <point x="-131" y="680" type="move" name="iimatra"/>
    </contour>
    <contour>
      <point x="131" y="0" type="move" name="bottom"/>
    </contour>
    <contour>
      <point x="131" y="680" type="move" name="top"/>
    </contour>
  </outline>
</glyph>
<glyph name="uuMatra-deva" format="1">
  <advance width="250"/>
  <unicode hex="0942"/>
  <outline>
    <contour>
      <point x="165" y="-182"/>
      <point x="130" y="-191"/>
      <point x="96" y="-191" type="curve" smooth="yes"/>
      <point x="47" y="-191"/>
      <point x="24" y="-172"/>
      <point x="24" y="-131" type="curve" smooth="yes"/>
      <point x="24" y="-83"/>
      <point x="54" y="-62"/>
      <point x="125" y="-62" type="curve" smooth="yes"/>
      <point x="200" y="-62"/>
      <point x="279" y="-86"/>
      <point x="381" y="-142" type="curve"/>
      <point x="381" y="-70" type="line"/>
      <point x="303" y="-20"/>
      <point x="206" y="10"/>
      <point x="127" y="10" type="curve" smooth="yes"/>
      <point x="23" y="10"/>
      <point x="-38" y="-41"/>
      <point x="-38" y="-130" type="curve" smooth="yes"/>
      <point x="-38" y="-209"/>
      <point x="10" y="-263"/>
      <point x="92" y="-263" type="curve" smooth="yes"/>
      <point x="128" y="-263"/>
      <point x="170" y="-253"/>
      <point x="204" y="-236" type="curve"/>
      <point x="204" y="-164" type="line"/>
    </contour>
    <contour>
      <point x="125" y="0" type="move" name="_bottom"/>
    </contour>
  </outline>
</glyph>
<glyph name="rVocalicMatra-deva" format="1">
  <advance width="250"/>
  <unicode hex="0943"/>
  <outline>
    <contour>
      <point x="159" y="-278"/>
      <point x="183" y="-275"/>
      <point x="215" y="-267" type="curve"/>
      <point x="215" y="-199" type="line"/>
      <point x="177" y="-207"/>
      <point x="156" y="-210"/>
      <point x="131" y="-210" type="curve" smooth="yes"/>
      <point x="67" y="-210"/>
      <point x="40" y="-191"/>
      <point x="40" y="-134" type="curve" smooth="yes"/>
      <point x="40" y="-77"/>
      <point x="67" y="-58"/>
      <point x="131" y="-58" type="curve" smooth="yes"/>
      <point x="156" y="-58"/>
      <point x="177" y="-61"/>
      <point x="215" y="-69" type="curve"/>
      <point x="215" y="-1" type="line"/>
      <point x="183" y="7"/>
      <point x="159" y="10"/>
      <point x="133" y="10" type="curve" smooth="yes"/>
      <point x="30" y="10"/>
      <point x="-18" y="-39"/>
      <point x="-18" y="-134" type="curve" smooth="yes"/>
      <point x="-18" y="-229"/>
      <point x="30" y="-278"/>
      <point x="133" y="-278" type="curve" smooth="yes"/>
    </contour>
    <contour>
      <point x="125" y="0" type="move" name="_bottom"/>
    </contour>
  </outline>
</glyph>
<glyph name="eShortMatra-deva" format="1">
  <advance width="250"/>
  <unicode hex="0946"/>
  <outline>
    <contour>
      <point x="159" y="670" type="line"/>
      <point x="159" y="781" type="line" smooth="yes"/>
      <point x="159" y="860"/>
      <point x="120" y="897"/>
      <point x="25" y="905" type="curve" smooth="yes"/>
      <point x="-77" y="914" type="line" smooth="yes"/>
      <point x="-132" y="919"/>
      <point x="-152" y="938"/>
      <point x="-152" y="986" type="curve" smooth="yes"/>
      <point x="-152" y="1010" type="line"/>
      <point x="-220" y="1010" type="line"/>
      <point x="-220" y="976" type="line" smooth="yes"/>
      <point x="-220" y="887"/>
      <point x="-179" y="850"/>
      <point x="-86" y="842" type="curve" smooth="yes"/>
      <point x="15" y="833" type="line" smooth="yes"/>
      <point x="71" y="828"/>
      <point x="91" y="809"/>
      <point x="91" y="761" type="curve" smooth="yes"/>
      <point x="91" y="670" type="line"/>
    </contour>
    <contour>
      <point x="125" y="680" type="move" name="_top"/>
    </contour>
  </outline>
</glyph>
<glyph name="aiMatra-deva" format="1">
  <advance width="250"/>
  <unicode hex="0948"/>
  <outline>
    <contour>
      <point x="-165" y="868" type="curve"/>
      <point x="-165" y="790" type="line"/>
      <point x="49" y="790"/>
      <point x="96" y="773"/>
      <point x="96" y="688" type="curve"/>
      <point x="106" y="688" type="line"/>
      <point x="106" y="799" type="line"/>
      <point x="72" y="845"/>
      <point x="1" y="868"/>
    </contour>
    <contour>
      <point x="-165" y="1041" type="curve"/>
      <point x="-165" y="963" type="line"/>
      <point x="40" y="963"/>
      <point x="96" y="940"/>
      <point x="96" y="841" type="curve" smooth="yes"/>
      <point x="96" y="670" type="line"/>
      <point x="164" y="670" type="line"/>
      <point x="164" y="835" type="line" smooth="yes"/>
      <point x="164" y="987"/>
      <point x="85" y="1041"/>
    </contour>
    <contour>
      <point x="130" y="680" type="move" name="_top"/>
    </contour>
  </outline>
</glyph>
<glyph name="prishthaMatraE-deva" format="1">
  <advance width="260"/>
  <unicode hex="094E"/>
  <outline>
    <contour>
      <point x="270" y="680" type="line"/>
      <point x="96" y="680" type="line"/>
      <point x="96" y="0" type="line"/>
      <point x="164" y="0" type="line"/>
      <point x="164" y="604" type="line"/>
      <point x="270" y="604" type="line"/>
    </contour>
  </outline>
</glyph>
<glyph name="awMatra-deva" format="1">
  <advance width="260"/>
  <unicode hex="094F"/>
  <outline>
    <contour>
      <point x="164" y="660" type="line"/>
      <point x="164" y="865" type="line" smooth="yes"/>
      <point x="164" y="976"/>
      <point x="112" y="984"/>
      <point x="23" y="999" type="curve" smooth="yes"/>
      <point x="-73" y="1015"/>
      <point x="-98" y="1024"/>
      <point x="-98" y="1060" type="curve" smooth="yes"/>
      <point x="-98" y="1070" type="line"/>
      <point x="-166" y="1070" type="line"/>
      <point x="-166" y="1060" type="line" smooth="yes"/>
      <point x="-166" y="949"/>
      <point x="-89" y="938"/>
      <point x="-13" y="928" type="curve" smooth="yes"/>
      <point x="56" y="919"/>
      <point x="99" y="916"/>
      <point x="99" y="866" type="curve" smooth="yes"/>
      <point x="99" y="660" type="line"/>
    </contour>
    <contour>
      <point x="96" y="660" type="line"/>
      <point x="141" y="660" type="line"/>
      <point x="141" y="711" type="line" smooth="yes"/>
      <point x="141" y="808"/>
      <point x="107" y="858"/>
      <point x="19" y="858" type="curve" smooth="yes"/>
      <point x="-12" y="858"/>
      <point x="-80" y="852"/>
      <point x="-115" y="852" type="curve" smooth="yes"/>
      <point x="-176" y="852"/>
      <point x="-196" y="870"/>
      <point x="-196" y="914" type="curve" smooth="yes"/>
      <point x="-196" y="924" type="line"/>
      <point x="-264" y="924" type="line"/>
      <point x="-264" y="914" type="line" smooth="yes"/>
      <point x="-264" y="820"/>
      <point x="-220" y="774"/>
      <point x="-119" y="774" type="curve" smooth="yes"/>
      <point x="-77" y="774"/>
      <point x="-18" y="782"/>
      <point x="16" y="782" type="curve" smooth="yes"/>
      <point x="75" y="782"/>
      <point x="96" y="759"/>
      <point x="96" y="710" type="curve" smooth="yes"/>
    </contour>
    <component base="aaMatra-deva"/>
    <contour>
      <point x="257" y="680" type="move" name="top"/>
    </contour>
  </outline>
</glyph>
<glyph name="udatta-deva" format="1">
  <advance width="250"/>
  <unicode hex="0951"/>
  <outline>
    <contour>
      <point x="96" y="1100" type="line"/>
      <point x="96" y="730" type="line"/>
      <point x="154" y="730" type="line"/>
      <point x="154" y="1100" type="line"/>
    </contour>
    <contour>
      <point x="125" y="680" type="move" name="_top"/>
    </contour>
  </outline>
</glyph>
<glyph name="anudatta-deva" format="1">
  <advance width="0"/>
  <unicode hex="0952"/>
  <outline>
    <contour>
      <point x="-96" y="-69" type="line"/>
      <point x="-442" y="-69" type="line"/>
      <point x="-442" y="-131" type="line"/>
      <point x="-96" y="-131" type="line"/>
    </contour>
    <contour>
      <point x="-269" y="0" type="move" name="_bottom"/>
    </contour>
  </outline>
</glyph>
<glyph name="acute-deva" format="1">
  <advance width="250"/>
  <unicode hex="0954"/>
  <outline>
    <contour>
      <point x="-186" y="980" type="line"/>
      <point x="-420" y="740" type="line"/>
      <point x="-329" y="740" type="line"/>
      <point x="-86" y="980" type="line"/>
    </contour>
    <contour>
      <point x="-375" y="680" type="move" name="_top"/>
    </contour>
  </outline>
</glyph>
<glyph name="ueMatra-deva" format="1">
  <advance width="0"/>
  <unicode hex="0956"/>
  <outline>
    <contour>
      <point x="-156" y="-202"/>
      <point x="-96" y="-152"/>
      <point x="-96" y="-50" type="curve"/>
      <point x="-158" y="-50" type="line"/>
      <point x="-158" y="-106"/>
      <point x="-198" y="-130"/>
      <point x="-287" y="-130" type="curve" smooth="yes"/>
      <point x="-376" y="-130"/>
      <point x="-416" y="-106"/>
      <point x="-416" y="-50" type="curve"/>
      <point x="-478" y="-50" type="line"/>
      <point x="-478" y="-150"/>
      <point x="-420" y="-202"/>
      <point x="-287" y="-202" type="curve" smooth="yes"/>
    </contour>
    <contour>
      <point x="-287" y="0" type="move" name="_bottom"/>
    </contour>
  </outline>
</glyph>
<glyph name="llVocalicMatra-deva" format="1">
  <advance width="250"/>
  <unicode hex="0963"/>
  <outline>
    <contour>
      <point x="311" y="-532"/>
      <point x="327" y="-530"/>
      <point x="342" y="-525" type="curve"/>
      <point x="342" y="-460" type="line"/>
      <point x="327" y="-465"/>
      <point x="311" y="-466"/>
      <point x="297" y="-466" type="curve" smooth="yes"/>
      <point x="251" y="-466"/>
      <point x="240" y="-456"/>
      <point x="240" y="-435" type="curve" smooth="yes"/>
      <point x="240" y="-411"/>
      <point x="254" y="-399"/>
      <point x="291" y="-399" type="curve"/>
      <point x="284" y="-369" type="line"/>
      <point x="218" y="-369"/>
      <point x="184" y="-394"/>
      <point x="184" y="-451" type="curve" smooth="yes"/>
      <point x="184" y="-507"/>
      <point x="218" y="-532"/>
      <point x="290" y="-532" type="curve" smooth="yes"/>
    </contour>
    <contour>
      <point x="313" y="-399"/>
      <point x="329" y="-396"/>
      <point x="342" y="-392" type="curve"/>
      <point x="342" y="-326" type="line"/>
      <point x="326" y="-331"/>
      <point x="311" y="-333"/>
      <point x="292" y="-333" type="curve" smooth="yes"/>
      <point x="257" y="-333"/>
      <point x="240" y="-326"/>
      <point x="240" y="-305" type="curve" smooth="yes"/>
      <point x="240" y="-256"/>
      <point x="335" y="-276"/>
      <point x="335" y="-147" type="curve" smooth="yes"/>
      <point x="335" y="-68"/>
      <point x="300" y="-20"/>
      <point x="218" y="-20" type="curve" smooth="yes"/>
      <point x="170" y="-20"/>
      <point x="138" y="-37"/>
      <point x="125" y="-76" type="curve"/>
      <point x="110" y="-32"/>
      <point x="76" y="-20"/>
      <point x="34" y="-20" type="curve" smooth="yes"/>
      <point x="-54" y="-20"/>
      <point x="-86" y="-73"/>
      <point x="-86" y="-166" type="curve" smooth="yes"/>
      <point x="-86" y="-276"/>
      <point x="-42" y="-315"/>
      <point x="44" y="-315" type="curve" smooth="yes"/>
      <point x="78" y="-315" type="line"/>
      <point x="78" y="-249" type="line"/>
      <point x="45" y="-249" type="line" smooth="yes"/>
      <point x="-14" y="-249"/>
      <point x="-30" y="-232"/>
      <point x="-30" y="-168" type="curve" smooth="yes"/>
      <point x="-30" y="-118"/>
      <point x="-20" y="-86"/>
      <point x="39" y="-86" type="curve" smooth="yes"/>
      <point x="85" y="-86"/>
      <point x="98" y="-105"/>
      <point x="98" y="-161" type="curve" smooth="yes"/>
      <point x="98" y="-193" type="line"/>
      <point x="152" y="-193" type="line"/>
      <point x="152" y="-161" type="line" smooth="yes"/>
      <point x="152" y="-107"/>
      <point x="165" y="-86"/>
      <point x="213" y="-86" type="curve" smooth="yes"/>
      <point x="263" y="-86"/>
      <point x="279" y="-109"/>
      <point x="279" y="-149" type="curve" smooth="yes"/>
      <point x="279" y="-246"/>
      <point x="184" y="-206"/>
      <point x="184" y="-305" type="curve" smooth="yes"/>
      <point x="184" y="-367"/>
      <point x="222" y="-399"/>
      <point x="291" y="-399" type="curve" smooth="yes"/>
    </contour>
    <contour>
      <point x="125" y="0" type="move" name="_bottom"/>
    </contour>
  </outline>
</glyph>
<glyph name="two-deva" format="1">
  <advance width="517"/>
  <unicode hex="0968"/>
  <outline>
    <contour>
      <point x="333" y="598"/>
      <point x="378" y="571"/>
      <point x="378" y="468" type="curve" smooth="yes"/>
      <point x="378" y="354"/>
      <point x="320" y="282"/>
      <point x="231" y="248" type="curve"/>
      <point x="237" y="190" type="line"/>
      <point x="399" y="0" type="line"/>
      <point x="494" y="0" type="line"/>
      <point x="494" y="1" type="line"/>
      <point x="236" y="301" type="line"/>
      <point x="210" y="316"/>
      <point x="183" y="321"/>
      <point x="149" y="321" type="curve" smooth="yes"/>
      <point x="68" y="321"/>
      <point x="41" y="292"/>
      <point x="41" y="235" type="curve" smooth="yes"/>
      <point x="41" y="176"/>
      <point x="70" y="147"/>
      <point x="146" y="147" type="curve" smooth="yes"/>
      <point x="297" y="147"/>
      <point x="450" y="272"/>
      <point x="450" y="472" type="curve" smooth="yes"/>
      <point x="450" y="601"/>
      <point x="392" y="680"/>
      <point x="244" y="680" type="curve" smooth="yes"/>
      <point x="189" y="680"/>
      <point x="128" y="669"/>
      <point x="81" y="651" type="curve"/>
      <point x="81" y="569" type="line"/>
      <point x="123" y="587"/>
      <point x="181" y="598"/>
      <point x="240" y="598" type="curve" smooth="yes"/>
    </contour>
  </outline>
</glyph>
<glyph name="three-deva" format="1">
  <advance width="469"/>
  <unicode hex="0969"/>
  <outline>
    <contour>
      <point x="174" y="136"/>
      <point x="131" y="137"/>
      <point x="102" y="146" type="curve"/>
      <point x="34" y="138" type="line"/>
      <point x="34" y="-53" type="line"/>
      <point x="102" y="-53" type="line"/>
      <point x="102" y="101" type="line"/>
      <point x="141" y="125" type="line"/>
      <point x="80" y="233" type="line"/>
      <point x="32" y="233"/>
      <point x="7" y="214"/>
      <point x="7" y="167" type="curve" smooth="yes"/>
      <point x="7" y="97"/>
      <point x="64" y="54"/>
      <point x="206" y="54" type="curve" smooth="yes"/>
      <point x="360" y="54"/>
      <point x="417" y="107"/>
      <point x="417" y="238" type="curve" smooth="yes"/>
      <point x="417" y="343"/>
      <point x="381" y="383"/>
      <point x="304" y="392" type="curve"/>
      <point x="304" y="373" type="line"/>
      <point x="373" y="392"/>
      <point x="406" y="431"/>
      <point x="406" y="522" type="curve" smooth="yes"/>
      <point x="406" y="630"/>
      <point x="359" y="680"/>
      <point x="218" y="680" type="curve" smooth="yes"/>
      <point x="168" y="680"/>
      <point x="117" y="674"/>
      <point x="53" y="658" type="curve"/>
      <point x="53" y="576" type="line"/>
      <point x="116" y="592"/>
      <point x="167" y="598"/>
      <point x="220" y="598" type="curve" smooth="yes"/>
      <point x="317" y="598"/>
      <point x="334" y="579"/>
      <point x="334" y="519" type="curve" smooth="yes"/>
      <point x="334" y="441"/>
      <point x="304" y="419"/>
      <point x="239" y="419" type="curve" smooth="yes"/>
      <point x="122" y="419" type="line"/>
      <point x="122" y="341" type="line"/>
      <point x="239" y="341" type="line" smooth="yes"/>
      <point x="307" y="341"/>
      <point x="345" y="323"/>
      <point x="345" y="243" type="curve" smooth="yes"/>
      <point x="345" y="160"/>
      <point x="307" y="136"/>
      <point x="196" y="136" type="curve" smooth="yes"/>
    </contour>
  </outline>
</glyph>
<glyph name="four-deva" format="1">
  <advance width="506"/>
  <unicode hex="096A"/>
  <outline>
    <contour>
      <point x="369" y="-1"/>
      <point x="434" y="63"/>
      <point x="434" y="174" type="curve" smooth="yes"/>
      <point x="434" y="295"/>
      <point x="357" y="336"/>
      <point x="279" y="364" type="curve" smooth="yes"/>
      <point x="194" y="394"/>
      <point x="117" y="421"/>
      <point x="117" y="550" type="curve" smooth="yes"/>
      <point x="117" y="592"/>
      <point x="125" y="637"/>
      <point x="142" y="680" type="curve"/>
      <point x="70" y="680" type="line"/>
      <point x="53" y="638"/>
      <point x="45" y="596"/>
      <point x="45" y="546" type="curve" smooth="yes"/>
      <point x="45" y="231"/>
      <point x="362" y="390"/>
      <point x="362" y="175" type="curve" smooth="yes"/>
      <point x="362" y="111"/>
      <point x="333" y="81"/>
      <point x="253" y="81" type="curve" smooth="yes"/>
      <point x="173" y="81"/>
      <point x="144" y="111"/>
      <point x="144" y="175" type="curve" smooth="yes"/>
      <point x="144" y="390"/>
      <point x="461" y="231"/>
      <point x="461" y="546" type="curve" smooth="yes"/>
      <point x="461" y="596"/>
      <point x="453" y="638"/>
      <point x="436" y="680" type="curve"/>
      <point x="364" y="680" type="line"/>
      <point x="381" y="637"/>
      <point x="389" y="592"/>
      <point x="389" y="550" type="curve" smooth="yes"/>
      <point x="389" y="421"/>
      <point x="312" y="394"/>
      <point x="227" y="364" type="curve" smooth="yes"/>
      <point x="150" y="336"/>
      <point x="72" y="295"/>
      <point x="72" y="174" type="curve" smooth="yes"/>
      <point x="72" y="63"/>
      <point x="137" y="-1"/>
      <point x="253" y="-1" type="curve" smooth="yes"/>
    </contour>
    <contour>
      <point x="115" y="65" type="move" name="nukta"/>
    </contour>
    <contour>
      <point x="426" y="0" type="move" name="bottom"/>
    </contour>
  </outline>
</glyph>
<glyph name="five-deva" format="1">
  <advance width="521"/>
  <unicode hex="096B"/>
  <outline>
    <contour>
      <point x="356" y="359"/>
      <point x="307" y="340"/>
      <point x="236" y="340" type="curve" smooth="yes"/>
      <point x="149" y="340"/>
      <point x="108" y="368"/>
      <point x="108" y="459" type="curve" smooth="yes"/>
      <point x="108" y="680" type="line"/>
      <point x="40" y="680" type="line"/>
      <point x="40" y="460" type="line" smooth="yes"/>
      <point x="40" y="317"/>
      <point x="116" y="258"/>
      <point x="238" y="258" type="curve" smooth="yes"/>
      <point x="392" y="258"/>
      <point x="484" y="336"/>
      <point x="484" y="522" type="curve" smooth="yes"/>
      <point x="484" y="604"/>
      <point x="461" y="630"/>
      <point x="410" y="630" type="curve" smooth="yes"/>
      <point x="358" y="630"/>
      <point x="336" y="602"/>
      <point x="336" y="544" type="curve" smooth="yes"/>
      <point x="336" y="201" type="line" smooth="yes"/>
      <point x="336" y="115"/>
      <point x="294" y="82"/>
      <point x="201" y="82" type="curve" smooth="yes"/>
      <point x="150" y="82"/>
      <point x="94" y="92"/>
      <point x="40" y="113" type="curve"/>
      <point x="40" y="31" type="line"/>
      <point x="100" y="9"/>
      <point x="149" y="0"/>
      <point x="200" y="0" type="curve" smooth="yes"/>
      <point x="334" y="0"/>
      <point x="404" y="63"/>
      <point x="404" y="192" type="curve" smooth="yes"/>
      <point x="404" y="394" type="line"/>
    </contour>
  </outline>
</glyph>
<glyph name="six-deva" format="1">
  <advance width="467"/>
  <unicode hex="096C"/>
  <outline>
    <contour>
      <point x="370" y="669" type="line"/>
      <point x="331" y="676"/>
      <point x="291" y="680"/>
      <point x="251" y="680" type="curve" smooth="yes"/>
      <point x="110" y="680"/>
      <point x="63" y="630"/>
      <point x="63" y="522" type="curve" smooth="yes"/>
      <point x="63" y="431"/>
      <point x="96" y="392"/>
      <point x="165" y="373" type="curve"/>
      <point x="165" y="392" type="line"/>
      <point x="88" y="383"/>
      <point x="52" y="343"/>
      <point x="52" y="238" type="curve" smooth="yes"/>
      <point x="52" y="107"/>
      <point x="109" y="54"/>
      <point x="263" y="54" type="curve" smooth="yes"/>
      <point x="405" y="54"/>
      <point x="462" y="97"/>
      <point x="462" y="167" type="curve" smooth="yes"/>
      <point x="462" y="214"/>
      <point x="437" y="233"/>
      <point x="389" y="233" type="curve"/>
      <point x="328" y="125" type="line"/>
      <point x="367" y="101" type="line"/>
      <point x="367" y="-53" type="line"/>
      <point x="435" y="-53" type="line"/>
      <point x="435" y="138" type="line"/>
      <point x="367" y="146" type="line"/>
      <point x="338" y="137"/>
      <point x="295" y="136"/>
      <point x="273" y="136" type="curve" smooth="yes"/>
      <point x="162" y="136"/>
      <point x="124" y="160"/>
      <point x="124" y="243" type="curve" smooth="yes"/>
      <point x="124" y="323"/>
      <point x="162" y="341"/>
      <point x="230" y="341" type="curve" smooth="yes"/>
      <point x="360" y="341" type="line"/>
      <point x="360" y="419" type="line"/>
      <point x="230" y="419" type="line" smooth="yes"/>
      <point x="165" y="419"/>
      <point x="135" y="441"/>
      <point x="135" y="519" type="curve" smooth="yes"/>
      <point x="135" y="579"/>
      <point x="152" y="598"/>
      <point x="249" y="598" type="curve" smooth="yes"/>
      <point x="289" y="598"/>
      <point x="327" y="595"/>
      <point x="370" y="587" type="curve"/>
    </contour>
  </outline>
</glyph>
<glyph name="seven-deva" format="1">
  <advance width="598"/>
  <unicode hex="096D"/>
  <outline>
    <contour>
      <point x="458" y="0"/>
      <point x="548" y="61"/>
      <point x="548" y="315" type="curve" smooth="yes"/>
      <point x="548" y="454"/>
      <point x="521" y="555"/>
      <point x="384" y="555" type="curve" smooth="yes"/>
      <point x="287" y="555"/>
      <point x="223" y="504"/>
      <point x="223" y="390" type="curve" smooth="yes"/>
      <point x="223" y="276"/>
      <point x="286" y="218"/>
      <point x="377" y="218" type="curve" smooth="yes"/>
      <point x="419" y="218"/>
      <point x="462" y="228"/>
      <point x="486" y="244" type="curve"/>
      <point x="486" y="333" type="line"/>
      <point x="469" y="313"/>
      <point x="429" y="300"/>
      <point x="389" y="300" type="curve" smooth="yes"/>
      <point x="323" y="300"/>
      <point x="295" y="332"/>
      <point x="295" y="390" type="curve" smooth="yes"/>
      <point x="295" y="447"/>
      <point x="323" y="473"/>
      <point x="384" y="473" type="curve" smooth="yes"/>
      <point x="460" y="473"/>
      <point x="476" y="428"/>
      <point x="476" y="320" type="curve" smooth="yes"/>
      <point x="476" y="113"/>
      <point x="417" y="82"/>
      <point x="310" y="82" type="curve" smooth="yes"/>
      <point x="192" y="82"/>
      <point x="124" y="120"/>
      <point x="124" y="341" type="curve" smooth="yes"/>
      <point x="124" y="451"/>
      <point x="141" y="558"/>
      <point x="177" y="680" type="curve"/>
      <point x="105" y="680" type="line"/>
      <point x="75" y="586"/>
      <point x="52" y="475"/>
      <point x="52" y="337" type="curve" smooth="yes"/>
      <point x="52" y="92"/>
      <point x="125" y="0"/>
      <point x="308" y="0" type="curve" smooth="yes"/>
    </contour>
  </outline>
</glyph>
<glyph name="eight-deva" format="1">
  <advance width="404"/>
  <unicode hex="096E"/>
  <outline>
    <contour>
      <point x="30" y="64"/>
      <point x="99" y="0"/>
      <point x="260" y="0" type="curve" smooth="yes"/>
      <point x="314" y="0"/>
      <point x="360" y="7"/>
      <point x="399" y="22" type="curve"/>
      <point x="399" y="104" type="line"/>
      <point x="351" y="88"/>
      <point x="311" y="82"/>
      <point x="260" y="82" type="curve" smooth="yes"/>
      <point x="141" y="82"/>
      <point x="102" y="114"/>
      <point x="102" y="197" type="curve" smooth="yes"/>
      <point x="102" y="347"/>
      <point x="236" y="527"/>
      <point x="351" y="680" type="curve"/>
      <point x="262" y="680" type="line"/>
      <point x="154" y="533"/>
      <point x="30" y="359"/>
      <point x="30" y="192" type="curve" smooth="yes"/>
    </contour>
  </outline>
</glyph>
<glyph name="nine-deva" format="1">
  <advance width="463"/>
  <unicode hex="096F"/>
  <outline>
    <contour>
      <point x="448" y="90" type="line"/>
      <point x="244" y="157"/>
      <point x="107" y="262"/>
      <point x="107" y="468" type="curve" smooth="yes"/>
      <point x="107" y="558"/>
      <point x="134" y="598"/>
      <point x="226" y="598" type="curve" smooth="yes"/>
      <point x="310" y="598"/>
      <point x="341" y="565"/>
      <point x="341" y="483" type="curve" smooth="yes"/>
      <point x="341" y="398"/>
      <point x="309" y="368"/>
      <point x="225" y="368" type="curve" smooth="yes"/>
      <point x="170" y="368"/>
      <point x="122" y="381"/>
      <point x="98" y="409" type="curve"/>
      <point x="98" y="327" type="line"/>
      <point x="128" y="299"/>
      <point x="174" y="286"/>
      <point x="227" y="286" type="curve" smooth="yes"/>
      <point x="343" y="286"/>
      <point x="413" y="350"/>
      <point x="413" y="483" type="curve" smooth="yes"/>
      <point x="413" y="612"/>
      <point x="347" y="680"/>
      <point x="226" y="680" type="curve" smooth="yes"/>
      <point x="115" y="680"/>
      <point x="35" y="623"/>
      <point x="35" y="457" type="curve" smooth="yes"/>
      <point x="35" y="254"/>
      <point x="153" y="102"/>
      <point x="448" y="0" type="curve"/>
    </contour>
    <contour>
      <point x="448" y="90" type="move"/>
    </contour>
    <contour>
      <point x="448" y="90" type="move"/>
    </contour>
  </outline>
</glyph>
<glyph name="jjya-deva" format="1">
  <advance width="587"/>
  <unicode hex="097A"/>
  <outline>
    <contour>
      <point x="423" y="614" type="line"/>
      <point x="423" y="0" type="line"/>
      <point x="491" y="0" type="line"/>
      <point x="491" y="614" type="line"/>
    </contour>
    <contour>
      <point x="-10" y="680" type="line"/>
      <point x="-10" y="604" type="line"/>
      <point x="597" y="604" type="line"/>
      <point x="597" y="680" type="line"/>
    </contour>
    <contour>
      <point x="141" y="626" type="line"/>
      <point x="408" y="230" type="line"/>
      <point x="479" y="230" type="line"/>
      <point x="213" y="626" type="line"/>
    </contour>
    <contour>
      <point x="155" y="568"/>
      <point x="167" y="529"/>
      <point x="167" y="490" type="curve" smooth="yes"/>
      <point x="167" y="434"/>
      <point x="142" y="412"/>
      <point x="55" y="412" type="curve" smooth="yes"/>
      <point x="29" y="412" type="line"/>
      <point x="29" y="396" type="line" smooth="yes"/>
      <point x="29" y="228"/>
      <point x="119" y="156"/>
      <point x="288" y="156" type="curve" smooth="yes"/>
      <point x="341" y="156"/>
      <point x="399" y="163"/>
      <point x="443" y="185" type="curve"/>
      <point x="443" y="268" type="line"/>
      <point x="397" y="245"/>
      <point x="346" y="238"/>
      <point x="286" y="238" type="curve" smooth="yes"/>
      <point x="187" y="238"/>
      <point x="120" y="257"/>
      <point x="97" y="339" type="curve"/>
      <point x="191" y="339"/>
      <point x="239" y="380"/>
      <point x="239" y="481" type="curve" smooth="yes"/>
      <point x="239" y="528"/>
      <point x="227" y="563"/>
      <point x="192" y="614" type="curve"/>
      <point x="123" y="614" type="line"/>
    </contour>
    <contour>
      <point x="97" y="65" type="move" name="nukta"/>
    </contour>
    <contour>
      <point x="457" y="0" type="move" name="bottom"/>
    </contour>
    <contour>
      <point x="457" y="680" type="move" name="top"/>
    </contour>
  </outline>
</glyph>
<glyph name="gga-deva" format="1">
  <advance width="586"/>
  <unicode hex="097B"/>
  <outline>
    <contour>
      <point x="21" y="26" type="line"/>
      <point x="21" y="-36" type="line"/>
      <point x="490" y="-36" type="line"/>
      <point x="490" y="26" type="line"/>
    </contour>
    <component base="ga-deva"/>
  </outline>
</glyph>
<glyph name="jja-deva" format="1">
  <advance width="699"/>
  <unicode hex="097C"/>
  <outline>
    <contour>
      <point x="603" y="-36" type="line"/>
      <point x="603" y="26" type="line"/>
      <point x="30" y="26" type="line"/>
      <point x="30" y="-36" type="line"/>
    </contour>
    <component base="ja-deva"/>
  </outline>
</glyph>
<glyph name="glottalstop-deva" format="1">
  <advance width="565"/>
  <unicode hex="097D"/>
  <outline>
    <contour>
      <point x="220" y="0" type="line"/>
      <point x="290" y="0" type="line"/>
      <point x="290" y="281" type="line"/>
      <point x="275" y="266" type="line"/>
      <point x="412" y="266"/>
      <point x="490" y="344"/>
      <point x="490" y="476" type="curve" smooth="yes"/>
      <point x="490" y="606"/>
      <point x="414" y="680"/>
      <point x="270" y="680" type="curve" smooth="yes"/>
      <point x="212" y="680"/>
      <point x="145" y="670"/>
      <point x="95" y="650" type="curve"/>
      <point x="95" y="570" type="line"/>
      <point x="151" y="591"/>
      <point x="210" y="600"/>
      <point x="266" y="600" type="curve" smooth="yes"/>
      <point x="374" y="600"/>
      <point x="416" y="567"/>
      <point x="416" y="476" type="curve" smooth="yes"/>
      <point x="416" y="384"/>
      <point x="373" y="346"/>
      <point x="268" y="346" type="curve" smooth="yes"/>
      <point x="220" y="346" type="line"/>
    </contour>
  </outline>
</glyph>
<glyph name="ddda-deva" format="1">
  <advance width="529"/>
  <unicode hex="097E"/>
  <outline>
    <contour>
      <point x="33" y="-75" type="line"/>
      <point x="33" y="-137" type="line"/>
      <point x="477" y="-137" type="line"/>
      <point x="477" y="-75" type="line"/>
    </contour>
    <component base="dda-deva"/>
  </outline>
</glyph>
<glyph name="bba-deva" format="1">
  <advance width="594"/>
  <unicode hex="097F"/>
  <outline>
    <contour>
      <point x="9" y="26" type="line"/>
      <point x="9" y="-36" type="line"/>
      <point x="498" y="-36" type="line"/>
      <point x="498" y="26" type="line"/>
    </contour>
    <component base="ba-deva"/>
  </outline>
</glyph>
<glyph name="endash" format="1">
  <advance width="577"/>
  <unicode hex="2013"/>
  <outline>
    <contour>
      <point x="62" y="339" type="line"/>
      <point x="62" y="259" type="line"/>
      <point x="515" y="259" type="line"/>
      <point x="515" y="339" type="line"/>
    </contour>
  </outline>
</glyph>
<glyph name="emdash" format="1">
  <advance width="938"/>
  <unicode hex="2014"/>
  <outline>
    <contour>
      <point x="65" y="338" type="line"/>
      <point x="65" y="260" type="line"/>
      <point x="873" y="260" type="line"/>
      <point x="873" y="338" type="line"/>
    </contour>
  </outline>
</glyph>
<glyph name="quoteright" format="1">
  <advance width="256"/>
  <unicode hex="2019"/>
  <outline>
    <contour>
      <point x="83" y="692"/>
      <point x="57" y="666"/>
      <point x="57" y="619" type="curve" smooth="yes"/>
      <point x="57" y="604"/>
      <point x="62" y="588"/>
      <point x="71" y="577" type="curve"/>
      <point x="139" y="556" type="line"/>
      <point x="139" y="455"/>
      <point x="119" y="436"/>
      <point x="57" y="432" type="curve"/>
      <point x="57" y="382" type="line"/>
      <point x="146" y="388"/>
      <point x="199" y="434"/>
      <point x="199" y="566" type="curve" smooth="yes"/>
      <point x="199" y="644"/>
      <point x="188" y="692"/>
      <point x="128" y="692" type="curve" smooth="yes"/>
    </contour>
  </outline>
</glyph>
<glyph name="dagger" format="1">
  <advance width="480"/>
  <unicode hex="2020"/>
  <outline>
    <contour>
      <point x="193" y="710" type="line"/>
      <point x="207" y="490" type="line"/>
      <point x="10" y="500" type="line"/>
      <point x="10" y="412" type="line"/>
      <point x="207" y="422" type="line"/>
      <point x="190" y="293" type="line"/>
      <point x="217" y="-100" type="line"/>
      <point x="263" y="-100" type="line"/>
      <point x="290" y="293" type="line"/>
      <point x="275" y="422" type="line"/>
      <point x="470" y="412" type="line"/>
      <point x="470" y="500" type="line"/>
      <point x="275" y="490" type="line"/>
      <point x="287" y="710" type="line"/>
    </contour>
  </outline>
</glyph>
<glyph name="daggerdbl" format="1">
  <advance width="502"/>
  <unicode hex="2021"/>
  <outline>
    <contour>
      <point x="201" y="753" type="line"/>
      <point x="221" y="554" type="line"/>
      <point x="30" y="564" type="line"/>
      <point x="30" y="480" type="line"/>
      <point x="219" y="490" type="line"/>
      <point x="201" y="340" type="line"/>
      <point x="221" y="187" type="line"/>
      <point x="30" y="199" type="line"/>
      <point x="30" y="114" type="line"/>
      <point x="219" y="127" type="line"/>
      <point x="201" y="-73" type="line"/>
      <point x="301" y="-73" type="line"/>
      <point x="283" y="127" type="line"/>
      <point x="472" y="114" type="line"/>
      <point x="472" y="199" type="line"/>
      <point x="281" y="187" type="line"/>
      <point x="301" y="340" type="line"/>
      <point x="283" y="490" type="line"/>
      <point x="472" y="480" type="line"/>
      <point x="472" y="564" type="line"/>
      <point x="281" y="554" type="line"/>
      <point x="301" y="753" type="line"/>
    </contour>
  </outline>
</glyph>
<glyph name="euro" format="1">
  <advance width="545"/>
  <unicode hex="20AC"/>
  <outline>
    <contour>
      <point x="10" y="232" type="line"/>
      <point x="10" y="172" type="line"/>
      <point x="436" y="172" type="line"/>
      <point x="436" y="232" type="line"/>
    </contour>
    <contour>
      <point x="10" y="376" type="line"/>
      <point x="10" y="316" type="line"/>
      <point x="436" y="316" type="line"/>
      <point x="436" y="376" type="line"/>
    </contour>
    <contour>
      <point x="60" y="72"/>
      <point x="155" y="-15"/>
      <point x="365" y="-15" type="curve" smooth="yes"/>
      <point x="418" y="-15"/>
      <point x="466" y="-8"/>
      <point x="500" y="0" type="curve"/>
      <point x="500" y="72" type="line"/>
      <point x="453" y="61"/>
      <point x="412" y="57"/>
      <point x="369" y="57" type="curve" smooth="yes"/>
      <point x="192" y="57"/>
      <point x="148" y="106"/>
      <point x="148" y="274" type="curve" smooth="yes"/>
      <point x="148" y="442"/>
      <point x="192" y="491"/>
      <point x="369" y="491" type="curve" smooth="yes"/>
      <point x="412" y="491"/>
      <point x="453" y="487"/>
      <point x="500" y="476" type="curve"/>
      <point x="500" y="548" type="line"/>
      <point x="466" y="556"/>
      <point x="418" y="563"/>
      <point x="365" y="563" type="curve" smooth="yes"/>
      <point x="155" y="563"/>
      <point x="60" y="476"/>
      <point x="60" y="274" type="curve" smooth="yes"/>
    </contour>
  </outline>
</glyph>
<glyph name="liraTurkish" format="1">
  <advance width="592"/>
  <unicode hex="20BA"/>
  <outline>
    <contour>
      <point x="368" y="0" type="line" smooth="yes"/>
      <point x="480" y="0"/>
      <point x="552" y="54"/>
      <point x="552" y="178" type="curve" smooth="yes"/>
      <point x="552" y="251"/>
      <point x="527" y="280"/>
      <point x="473" y="280" type="curve" smooth="yes"/>
      <point x="424" y="280"/>
      <point x="399" y="257"/>
      <point x="399" y="193" type="curve"/>
      <point x="468" y="169" type="line"/>
      <point x="468" y="94"/>
      <point x="434" y="68"/>
      <point x="354" y="68" type="curve" smooth="yes"/>
      <point x="205" y="68" type="line"/>
      <point x="205" y="548" type="line"/>
      <point x="53" y="548" type="line"/>
      <point x="53" y="491" type="line"/>
      <point x="121" y="463" type="line"/>
      <point x="121" y="85" type="line"/>
      <point x="53" y="55" type="line"/>
      <point x="53" y="0" type="line"/>
    </contour>
    <contour>
      <point x="137" y="216" type="line"/>
      <point x="189" y="231" type="line"/>
      <point x="393" y="324" type="line"/>
      <point x="393" y="390" type="line"/>
      <point x="189" y="297" type="line"/>
      <point x="137" y="282" type="line"/>
      <point x="45" y="240" type="line"/>
      <point x="45" y="174" type="line"/>
    </contour>
    <contour>
      <point x="137" y="372" type="line"/>
      <point x="189" y="389" type="line"/>
      <point x="393" y="482" type="line"/>
      <point x="393" y="548" type="line"/>
      <point x="189" y="455" type="line"/>
      <point x="137" y="438" type="line"/>
      <point x="45" y="396" type="line"/>
      <point x="45" y="330" type="line"/>
    </contour>
  </outline>
</glyph>
<glyph name="literSign" format="1">
  <advance width="396"/>
  <unicode hex="2113"/>
  <outline>
    <contour>
      <point x="110" y="718"/>
      <point x="70" y="680"/>
      <point x="70" y="594" type="curve" smooth="yes"/>
      <point x="70" y="145" type="line" smooth="yes"/>
      <point x="70" y="35"/>
      <point x="118" y="-14"/>
      <point x="227" y="-14" type="curve" smooth="yes"/>
      <point x="267" y="-14"/>
      <point x="300" y="-8"/>
      <point x="334" y="7" type="curve"/>
      <point x="334" y="79" type="line"/>
      <point x="304" y="64"/>
      <point x="276" y="58"/>
      <point x="232" y="58" type="curve" smooth="yes"/>
      <point x="175" y="58"/>
      <point x="154" y="78"/>
      <point x="154" y="133" type="curve" smooth="yes"/>
      <point x="154" y="584" type="line" smooth="yes"/>
      <point x="154" y="632"/>
      <point x="166" y="646"/>
      <point x="205" y="646" type="curve" smooth="yes"/>
      <point x="253" y="646"/>
      <point x="267" y="615"/>
      <point x="267" y="512" type="curve" smooth="yes"/>
      <point x="267" y="381"/>
      <point x="241" y="340"/>
      <point x="154" y="340" type="curve"/>
      <point x="144" y="340" type="line"/>
      <point x="144" y="278" type="line"/>
      <point x="154" y="278" type="line"/>
      <point x="284" y="278"/>
      <point x="341" y="353"/>
      <point x="341" y="522" type="curve" smooth="yes"/>
      <point x="341" y="658"/>
      <point x="299" y="718"/>
      <point x="201" y="718" type="curve" smooth="yes"/>
    </contour>
  </outline>
</glyph>
<glyph name="summation" format="1">
  <advance width="652"/>
  <unicode hex="2211"/>
  <outline>
    <contour>
      <point x="577" y="0" type="line"/>
      <point x="577" y="173" type="line"/>
      <point x="521" y="173" type="line"/>
      <point x="496" y="70" type="line"/>
      <point x="134" y="70" type="line"/>
      <point x="135" y="42" type="line"/>
      <point x="378" y="310" type="line"/>
      <point x="378" y="370" type="line"/>
      <point x="135" y="638" type="line"/>
      <point x="134" y="610" type="line"/>
      <point x="496" y="610" type="line"/>
      <point x="521" y="507" type="line"/>
      <point x="577" y="507" type="line"/>
      <point x="577" y="680" type="line"/>
      <point x="0" y="680" type="line"/>
      <point x="0" y="623" type="line"/>
      <point x="70" y="594" type="line"/>
      <point x="320" y="318" type="line"/>
      <point x="320" y="361" type="line"/>
      <point x="70" y="86" type="line"/>
      <point x="0" y="57" type="line"/>
      <point x="0" y="0" type="line"/>
    </contour>
  </outline>
</glyph>
<glyph name="infinity" format="1">
  <advance width="1108"/>
  <unicode hex="221E"/>
  <outline>
    <contour>
      <point x="133" y="530"/>
      <point x="47" y="441"/>
      <point x="47" y="274" type="curve" smooth="yes"/>
      <point x="47" y="107"/>
      <point x="133" y="18"/>
      <point x="293" y="18" type="curve" smooth="yes"/>
      <point x="441" y="18"/>
      <point x="491" y="106"/>
      <point x="581" y="250" type="curve" smooth="yes"/>
      <point x="657" y="377"/>
      <point x="703" y="455"/>
      <point x="812" y="455" type="curve" smooth="yes"/>
      <point x="919" y="455"/>
      <point x="976" y="395"/>
      <point x="976" y="274" type="curve" smooth="yes"/>
      <point x="976" y="152"/>
      <point x="919" y="92"/>
      <point x="812" y="92" type="curve" smooth="yes"/>
      <point x="703" y="92"/>
      <point x="657" y="171"/>
      <point x="581" y="298" type="curve" smooth="yes"/>
      <point x="491" y="441"/>
      <point x="441" y="530"/>
      <point x="293" y="530" type="curve" smooth="yes"/>
    </contour>
    <contour>
      <point x="667" y="530"/>
      <point x="616" y="441"/>
      <point x="527" y="298" type="curve" smooth="yes"/>
      <point x="449" y="172"/>
      <point x="405" y="92"/>
      <point x="296" y="92" type="curve" smooth="yes"/>
      <point x="188" y="92"/>
      <point x="133" y="152"/>
      <point x="133" y="274" type="curve" smooth="yes"/>
      <point x="133" y="395"/>
      <point x="188" y="455"/>
      <point x="296" y="455" type="curve" smooth="yes"/>
      <point x="405" y="455"/>
      <point x="449" y="376"/>
      <point x="527" y="250" type="curve" smooth="yes"/>
      <point x="616" y="106"/>
      <point x="667" y="18"/>
      <point x="815" y="18" type="curve" smooth="yes"/>
      <point x="975" y="18"/>
      <point x="1061" y="107"/>
      <point x="1061" y="274" type="curve" smooth="yes"/>
      <point x="1061" y="441"/>
      <point x="975" y="530"/>
      <point x="815" y="530" type="curve" smooth="yes"/>
    </contour>
  </outline>
</glyph>
<glyph name="approxequal" format="1">
  <advance width="582"/>
  <unicode hex="2248"/>
  <outline>
    <contour>
      <point x="262" y="458"/>
      <point x="233" y="473"/>
      <point x="192" y="473" type="curve" smooth="yes"/>
      <point x="136" y="473"/>
      <point x="92" y="446"/>
      <point x="54" y="363" type="curve"/>
      <point x="115" y="334" type="line"/>
      <point x="145" y="390"/>
      <point x="161" y="401"/>
      <point x="194" y="401" type="curve" smooth="yes"/>
      <point x="216" y="401"/>
      <point x="228" y="396"/>
      <point x="278" y="369" type="curve" smooth="yes"/>
      <point x="331" y="341"/>
      <point x="360" y="326"/>
      <point x="401" y="326" type="curve" smooth="yes"/>
      <point x="457" y="326"/>
      <point x="501" y="353"/>
      <point x="539" y="436" type="curve"/>
      <point x="478" y="465" type="line"/>
      <point x="448" y="409"/>
      <point x="432" y="398"/>
      <point x="399" y="398" type="curve" smooth="yes"/>
      <point x="377" y="398"/>
      <point x="365" y="403"/>
      <point x="315" y="430" type="curve" smooth="yes"/>
    </contour>
    <contour>
      <point x="262" y="206"/>
      <point x="233" y="221"/>
      <point x="192" y="221" type="curve" smooth="yes"/>
      <point x="136" y="221"/>
      <point x="92" y="194"/>
      <point x="54" y="111" type="curve"/>
      <point x="115" y="82" type="line"/>
      <point x="145" y="138"/>
      <point x="161" y="149"/>
      <point x="194" y="149" type="curve" smooth="yes"/>
      <point x="216" y="149"/>
      <point x="228" y="144"/>
      <point x="278" y="117" type="curve" smooth="yes"/>
      <point x="331" y="89"/>
      <point x="360" y="74"/>
      <point x="401" y="74" type="curve" smooth="yes"/>
      <point x="457" y="74"/>
      <point x="501" y="101"/>
      <point x="539" y="184" type="curve"/>
      <point x="478" y="213" type="line"/>
      <point x="448" y="157"/>
      <point x="432" y="146"/>
      <point x="399" y="146" type="curve" smooth="yes"/>
      <point x="377" y="146"/>
      <point x="365" y="151"/>
      <point x="315" y="178" type="curve" smooth="yes"/>
    </contour>
  </outline>
</glyph>
<glyph name="notequal" format="1">
  <advance width="582"/>
  <unicode hex="2260"/>
  <outline>
    <contour>
      <point x="415" y="543" type="line"/>
      <point x="84" y="20" type="line"/>
      <point x="167" y="20" type="line"/>
      <point x="498" y="543" type="line"/>
    </contour>
    <component base="equal"/>
  </outline>
</glyph>
<glyph name="lessequal" format="1">
  <advance width="582"/>
  <unicode hex="2264"/>
  <outline>
    <contour>
      <point x="64" y="70" type="line"/>
      <point x="64" y="0" type="line"/>
      <point x="518" y="0" type="line"/>
      <point x="518" y="70" type="line"/>
    </contour>
    <contour>
      <point x="518" y="469" type="line"/>
      <point x="518" y="548" type="line"/>
      <point x="64" y="344" type="line"/>
      <point x="64" y="274" type="line"/>
      <point x="518" y="70" type="line"/>
      <point x="518" y="149" type="line"/>
      <point x="111" y="327" type="line"/>
      <point x="111" y="291" type="line"/>
    </contour>
  </outline>
</glyph>
<glyph name="lozenge" format="1">
  <advance width="666"/>
  <unicode hex="25CA"/>
  <outline>
    <contour>
      <point x="297" y="680" type="line"/>
      <point x="32" y="376" type="line"/>
      <point x="32" y="304" type="line"/>
      <point x="297" y="0" type="line"/>
      <point x="368" y="0" type="line"/>
      <point x="634" y="304" type="line"/>
      <point x="634" y="376" type="line"/>
      <point x="368" y="680" type="line"/>
    </contour>
    <contour>
      <point x="563" y="340" type="line"/>
      <point x="333" y="77" type="line"/>
      <point x="103" y="340" type="line"/>
      <point x="333" y="603" type="line"/>
    </contour>
  </outline>
</glyph>
